{
.appVersion = "1325";
DisplayStrings = (
"abcdefghijklmnopqrstuvwxyz\012ABCDEFGHIJKLMNOPQRSTUVWXYZ\0120123456789\012!@#$%^&*()&",
"AaBbCcDdEeFfGgHhIiJjKkLlMmNn\012OoPpOQqRrSsTtUuVvWwXxYyZz\012",
"Suzy/space mishandled/space the/space rogue/space axe,/space requiring/space five/space backwards/space jumps\012\012SUZY/space MISHANDLED/space THE/space ROGUE/space AXE,/space REQUIRING/space FIVE/space BACKWARDS/space JUMPS\012\012vexed/space mermaids/space long/space to/space befriend/space/endash/space or/space quickly/space hijack/space/endash/space cuddly,/space wheezy/space pomeranians\012\012",
"/Acaron/G.ss01/Icaron/Ocaron/Q.ss01/Ucaron U/dieresiscomb/Udieresisacute/Udieresiscaron/Udieresisgrave/Udieresismacron/a.ss01/acaron/g.ss01/i.ss01/icaron/l.ss01/ocaron/t.ss01/ucaron/udieresisacute/udieresiscaron/udieresisgrave/udieresismacron"
);
copyright = "Copyright © 2020 by Tyler Finck. All rights reserved.";
customParameters = (
{
name = Axes;
value = (
{
Name = Weight;
Tag = wght;
},
{
Name = Width;
Tag = wdth;
}
);
},
{
name = "Enforce Compatibility Check";
value = 1;
},
{
name = panose;
value = (
2,
11,
0,
9,
3,
0,
0,
0,
0,
3
);
},
{
name = "Variable Font Family Name";
value = "League Mono Variable";
},
{
name = "Use Typo Metrics";
value = 1;
},
{
name = fsType;
value = (
);
},
{
name = licenseURL;
value = "http://scripts.sil.org/OFL";
},
{
name = license;
value = "This Font Software is licensed under the SIL Open Font License, Version 1.1. This license is available with a FAQ at: http://scripts.sil.org/OFL";
},
{
name = vendorID;
value = ETCO;
},
{
name = "Use Line Breaks";
value = 1;
}
);
date = "2020-04-30 15:44:47 +0000";
designer = "Tyler Finck";
designerURL = "https://www.tylerfinck.com";
disablesNiceNames = 1;
familyName = "League Mono";
featurePrefixes = (
{
automatic = 1;
code = "languagesystem DFLT dflt;

languagesystem latn dflt;
languagesystem latn AZE;
languagesystem latn CRT;
languagesystem latn KAZ;
languagesystem latn TAT;

glyphs = (
{
glyphname = A;
lastChange = "2020-04-30 21:15:00 +0000";
layers = (
{
anchors = (
{
name = bottom;
position = "{452, 0}";
},
{
name = ogonek;
position = "{710, 0}";
},
{
name = top;
position = "{452, 1400}";
}
);
layerId = "2E286313-D5BF-4FB4-A4B7-BD9BC13B574E";
paths = (
{
closed = 1;
nodes = (
"250 406 LINE",
"654 406 LINE",
"654 470 LINE",
"250 470 LINE"
);
},
{
closed = 1;
nodes = (
"746 0 LINE",
"550 1400 LINE",
"354 1400 LINE",
"158 0 LINE",
"226 0 LINE",
"410 1336 LINE",
"494 1336 LINE",
"678 0 LINE"
);
}
);
width = 900;
},
{
anchors = (
{
name = bottom;
position = "{1050, 0}";
},
{
name = ogonek;
position = "{1778, 0}";
},
{
name = top;
position = "{1050, 1400}";
}
);
layerId = "E338D14E-1DA5-418D-88BC-8956EEA80AB9";
paths = (
{
closed = 1;
nodes = (
"522 448 LINE",
"1578 448 LINE",
"1578 512 LINE",
"522 512 LINE"
);
},
{
closed = 1;
nodes = (
"1828 0 LINE",
"1278 1400 LINE",
"822 1400 LINE",
"272 0 LINE",
"354 0 LINE",
"878 1336 LINE",
"1222 1336 LINE",
"1746 0 LINE"
);
}
);
width = 2100;
},
{
anchors = (
{
name = bottom;
position = "{440, 0}";
},
{
name = ogonek;
position = "{694, 0}";
},
{
name = top;
position = "{440, 1400}";
}
);
layerId = "C5C974ED-4386-41E8-AA57-C40E24C26BBD";
paths = (
{
closed = 1;
nodes = (
"204 274 LINE",
"674 274 LINE",
"674 518 LINE",
"204 518 LINE"
);
},
{
closed = 1;
nodes = (
"854 0 LINE",
"708 1400 LINE",
"170 1400 LINE",
"24 0 LINE",
"370 0 LINE",
"432 1156 LINE",
"446 1156 LINE",
"508 0 LINE"
);
}
);
width = 900;
},
{
anchors = (
{
name = bottom;
position = "{1034, 0}";
},
{
name = ogonek;
position = "{1756, 0}";
},
{
name = top;
position = "{1034, 1400}";
}
);
layerId = "DF71BB49-08D0-48AB-8F46-D55A70C0C2BD";
paths = (
{
closed = 1;
nodes = (
"459 302 LINE",
"1605 302 LINE",
"1605 610 LINE",
"459 610 LINE"
);
},
{
closed = 1;
nodes = (
"1974 0 LINE",
"1492 1400 LINE",
"572 1400 LINE",
"90 0 LINE",
"539 0 LINE",
"898 1092 LINE",
"1167 1092 LINE",
"1525 0 LINE"
);
}
);
width = 2100;
}
);
leftKerningGroup = A;
rightKerningGroup = A;
unicode = 0041;
},
{
glyphname = AE;
lastChange = "2020-04-30 15:52:49 +0000";
layers = (
{
anchors = (
{
name = bottom;
position = "{450, 0}";
},
{
name = top;
position = "{450, 1400}";
}
);
layerId = "2E286313-D5BF-4FB4-A4B7-BD9BC13B574E";
paths = (
{
closed = 1;
nodes = (
"580 0 LINE",
"580 1400 LINE",
"510 1400 LINE",
"510 0 LINE"
);
},
{
closed = 1;
nodes = (
"558 0 LINE",
"868 0 LINE",
"868 64 LINE",
"558 64 LINE"
);
},
{
closed = 1;
nodes = (
"558 656 LINE",
"828 656 LINE",
"828 720 LINE",
"558 720 LINE"
);
},
{
closed = 1;
nodes = (
"558 1336 LINE",
"868 1336 LINE",
"868 1400 LINE",
"558 1400 LINE"
);
},
{
closed = 1;
nodes = (
"44 0 LINE",
"116 0 LINE",
"418 1400 LINE",
"344 1400 LINE"
);
},
{
closed = 1;
nodes = (
"358 1336 LINE",
"526 1336 LINE",
"552 1400 LINE",
"382 1400 LINE"
);
},
{
closed = 1;
nodes = (
"184 418 LINE",
"530 418 LINE",
"536 482 LINE",
"210 482 LINE"
);
}
);
width = 900;
},
{
anchors = (
{
name = bottom;
position = "{1050, 0}";
},
{
name = top;
position = "{1050, 1400}";
}
);
layerId = "E338D14E-1DA5-418D-88BC-8956EEA80AB9";
paths = (
{
closed = 1;
nodes = (
"1212 0 LINE",
"1212 1400 LINE",
"1142 1400 LINE",
"1142 0 LINE"
);
},
{
closed = 1;
nodes = (
"1208 0 LINE",
"2026 0 LINE",
"2026 64 LINE",
"1208 64 LINE"
);
},
{
closed = 1;
nodes = (
"1208 656 LINE",
"1838 656 LINE",
"1838 720 LINE",
"1208 720 LINE"
);
},
{
closed = 1;
nodes = (
"1208 1336 LINE",
"2026 1336 LINE",
"2026 1400 LINE",
"1208 1400 LINE"
);
},
{
closed = 1;
nodes = (
"142 0 LINE",
"224 0 LINE",
"974 1400 LINE",
"890 1400 LINE"
);
},
{
closed = 1;
nodes = (
"874 1336 LINE",
"1138 1336 LINE",
"1200 1400 LINE",
"932 1400 LINE"
);
},
{
closed = 1;
nodes = (
"400 488 LINE",
"1172 488 LINE",
"1186 552 LINE",
"460 552 LINE"
);
}
);
width = 2100;
},
{
anchors = (
{
name = bottom;
position = "{450, 0}";
},
{
name = top;
position = "{450, 1400}";
}
);
layerId = "C5C974ED-4386-41E8-AA57-C40E24C26BBD";
paths = (
{
closed = 1;
nodes = (
"682 0 LINE",
"682 1400 LINE",
"374 1400 LINE",
"374 0 LINE"
);
},
{
closed = 1;
nodes = (
"490 0 LINE",
"824 0 LINE",
"824 224 LINE",
"490 224 LINE"
);
},
{
closed = 1;
nodes = (
"490 576 LINE",
"812 576 LINE",
"812 800 LINE",
"490 800 LINE"
);
},
{
closed = 1;
nodes = (
"490 1176 LINE",
"824 1176 LINE",
"824 1400 LINE",
"490 1400 LINE"
);
},
{
closed = 1;
nodes = (
"-72 0 LINE",
"256 0 LINE",
"442 1400 LINE",
"170 1400 LINE"
);
},
{
closed = 1;
nodes = (
"250 1176 LINE",
"460 1176 LINE",
"484 1400 LINE",
"272 1400 LINE"
);
},
{
closed = 1;
nodes = (
"250 228 LINE",
"442 228 LINE",
"474 452 LINE",
"274 452 LINE"
);
}
);
width = 900;
},
{
anchors = (
{
name = bottom;
position = "{1050, 0}";
},
{
name = top;
position = "{1050, 1400}";
}
);
layerId = "DF71BB49-08D0-48AB-8F46-D55A70C0C2BD";
paths = (
{
closed = 1;
nodes = (
"1351 0 LINE",
"1351 1400 LINE",
"958 1400 LINE",
"958 0 LINE"
);
},
{
closed = 1;
nodes = (
"1116 0 LINE",
"1967 0 LINE",
"1967 281 LINE",
"1116 281 LINE"
);
},
{
closed = 1;
nodes = (
"1116 547 LINE",
"1817 547 LINE",
"1817 829 LINE",
"1116 829 LINE"
);
},
{
closed = 1;
nodes = (
"1116 1119 LINE",
"1967 1119 LINE",
"1967 1400 LINE",
"1116 1400 LINE"
);
},
{
closed = 1;
nodes = (
"-15 0 LINE",
"414 0 LINE",
"1102 1400 LINE",
"709 1400 LINE"
);
},
{
closed = 1;
nodes = (
"728 1119 LINE",
"1049 1119 LINE",
"1108 1400 LINE",
"783 1400 LINE"
);
},
{
closed = 1;
nodes = (
"490 271 LINE",
"1053 271 LINE",
"1102 552 LINE",
"547 552 LINE"
);
}
);
width = 2100;
}
);
unicode = 00C6;
},
{
glyphname = B;
lastChange = "2020-04-30 21:16:38 +0000";
layers = (
{
anchors = (
{
name = bottom;
position = "{420, 0}";
},
{
name = top;
position = "{420, 1400}";
}
);
layerId = "2E286313-D5BF-4FB4-A4B7-BD9BC13B574E";
paths = (
{
closed = 1;
nodes = (
"474 0 LINE SMOOTH",
"692 0 OFFCURVE",
"764 152 OFFCURVE",
"764 400 CURVE SMOOTH",
"764 613 OFFCURVE",
"661 718 OFFCURVE",
"584 738 CURVE",
"649 761 OFFCURVE",
"734 864 OFFCURVE",
"734 1058 CURVE SMOOTH",
"734 1380 OFFCURVE",
"552 1400 OFFCURVE",
"404 1400 CURVE SMOOTH",
"210 1400 LINE",
"210 0 LINE"
);
},
{
closed = 1;
nodes = (
"276 690 LINE",
"492 690 LINE SMOOTH",
"606 690 OFFCURVE",
"696 594 OFFCURVE",
"696 400 CURVE SMOOTH",
"696 176 OFFCURVE",
"630 64 OFFCURVE",
"480 64 CURVE SMOOTH",
"276 64 LINE"
);
},
{
closed = 1;
nodes = (
"276 1336 LINE",
"456 1336 LINE SMOOTH",
"552 1336 OFFCURVE",
"662 1286 OFFCURVE",
"662 1058 CURVE SMOOTH",
"662 870 OFFCURVE",
"572 754 OFFCURVE",
"452 754 CURVE SMOOTH",
"276 754 LINE"
);
}
);
width = 900;
},
{
anchors = (
{
name = bottom;
position = "{1050, 0}";
},
{
name = top;
position = "{1050, 1400}";
}
);
layerId = "E338D14E-1DA5-418D-88BC-8956EEA80AB9";
paths = (
{
closed = 1;
nodes = (
"1208 0 LINE SMOOTH",
"1624 0 OFFCURVE",
"1762 170 OFFCURVE",
"1762 400 CURVE SMOOTH",
"1762 680 OFFCURVE",
"1502 730 OFFCURVE",
"1454 732 CURVE",
"1500 744 OFFCURVE",
"1690 846 OFFCURVE",
"1690 1064 CURVE SMOOTH",
"1690 1326 OFFCURVE",
"1518 1400 OFFCURVE",
"1184 1400 CURVE SMOOTH",
"446 1400 LINE",
"446 0 LINE"
);
},
{
closed = 1;
nodes = (
"516 690 LINE",
"1308 690 LINE SMOOTH",
"1508 690 OFFCURVE",
"1686 614 OFFCURVE",
"1686 400 CURVE SMOOTH",
"1686 176 OFFCURVE",
"1516 64 OFFCURVE",
"1218 64 CURVE SMOOTH",
"516 64 LINE"
);
},
{
closed = 1;
nodes = (
"516 1336 LINE",
"1176 1336 LINE SMOOTH",
"1518 1336 OFFCURVE",
"1614 1252 OFFCURVE",
"1614 1064 CURVE SMOOTH",
"1614 896 OFFCURVE",
"1468 754 OFFCURVE",
"1258 754 CURVE SMOOTH",
"516 754 LINE"
);
}
);
width = 2100;
},
{
anchors = (
{
name = bottom;
position = "{426, 0}";
},
{
name = top;
position = "{426, 1400}";
}
);
layerId = "C5C974ED-4386-41E8-AA57-C40E24C26BBD";
paths = (
{
closed = 1;
nodes = (
"486 0 LINE SMOOTH",
"698 0 OFFCURVE",
"856 130 OFFCURVE",
"856 402 CURVE SMOOTH",
"856 714 OFFCURVE",
"638 740 OFFCURVE",
"620 742 CURVE",
"638 744 OFFCURVE",
"834 774 OFFCURVE",
"834 1056 CURVE SMOOTH",
"834 1318 OFFCURVE",
"621 1400 OFFCURVE",
"452 1400 CURVE SMOOTH",
"60 1400 LINE",
"60 0 LINE"
);
},
{
closed = 1;
nodes = (
"414 600 LINE",
"416 600 LINE SMOOTH",
"482 600 OFFCURVE",
"512 546 OFFCURVE",
"512 424 CURVE SMOOTH",
"512 290 OFFCURVE",
"486 244 OFFCURVE",
"422 244 CURVE SMOOTH",
"414 244 LINE"
);
},
{
closed = 1;
nodes = (
"414 1156 LINE",
"416 1156 LINE SMOOTH",
"456 1156 OFFCURVE",
"496 1132 OFFCURVE",
"496 1010 CURVE SMOOTH",
"496 884 OFFCURVE",
"464 844 OFFCURVE",
"416 844 CURVE SMOOTH",
"414 844 LINE"
);
}
);
width = 900;
},
{
anchors = (
{
name = bottom;
position = "{1058, 0}";
},
{
name = top;
position = "{1058, 1400}";
}
);
layerId = "DF71BB49-08D0-48AB-8F46-D55A70C0C2BD";
paths = (
{
closed = 1;
nodes = (
"1319 0 LINE SMOOTH",
"1683 0 OFFCURVE",
"1935 149 OFFCURVE",
"1935 410 CURVE SMOOTH",
"1935 647 OFFCURVE",
"1717 735 OFFCURVE",
"1545 744 CURVE",
"1660 754 OFFCURVE",
"1812 841 OFFCURVE",
"1812 1048 CURVE SMOOTH",
"1812 1390 OFFCURVE",
"1339 1400 OFFCURVE",
"1131 1400 CURVE SMOOTH",
"246 1400 LINE",
"246 0 LINE"
);
},
{
closed = 1;
nodes = (
"668 577 LINE",
"1233 577 LINE SMOOTH",
"1340 577 OFFCURVE",
"1499 577 OFFCURVE",
"1499 431 CURVE SMOOTH",
"1499 318 OFFCURVE",
"1390 293 OFFCURVE",
"1279 293 CURVE SMOOTH",
"668 293 LINE"
);
},
{
closed = 1;
nodes = (
"668 1107 LINE",
"1119 1107 LINE SMOOTH",
"1272 1107 OFFCURVE",
"1387 1088 OFFCURVE",
"1387 991 CURVE SMOOTH",
"1387 877 OFFCURVE",
"1226 867 OFFCURVE",
"1112 867 CURVE SMOOTH",
"668 867 LINE"
);
}
);
width = 2100;
}
);
leftKerningGroup = H;
rightKerningGroup = B;
unicode = 0042;
},
{
glyphname = C;
lastChange = "2020-04-30 21:16:28 +0000";
layers = (
{
anchors = (
{
name = bottom;
position = "{458, 0}";
},
{
name = top;
position = "{458, 1400}";
}
);
layerId = "2E286313-D5BF-4FB4-A4B7-BD9BC13B574E";
paths = (
{
closed = 1;
nodes = (
"642 -22 OFFCURVE",
"720 104 OFFCURVE",
"760 178 CURVE",
"700 212 LINE",
"666 148 OFFCURVE",
"594 44 OFFCURVE",
"466 44 CURVE SMOOTH",
"314 44 OFFCURVE",
"182 250 OFFCURVE",
"182 696 CURVE SMOOTH",
"182 1142 OFFCURVE",
"314 1346 OFFCURVE",
"466 1346 CURVE SMOOTH",
"594 1346 OFFCURVE",
"666 1242 OFFCURVE",
"700 1158 CURVE",
"760 1190 LINE",
"716 1284 OFFCURVE",
"642 1412 OFFCURVE",
"466 1412 CURVE SMOOTH",
"260 1412 OFFCURVE",
"112 1186 OFFCURVE",
"112 696 CURVE SMOOTH",
"112 206 OFFCURVE",
"252 -22 OFFCURVE",
"458 -22 CURVE SMOOTH"
);
}
);
width = 900;
},
{
anchors = (
{
name = bottom;
position = "{1116, 0}";
},
{
name = top;
position = "{1116, 1400}";
}
);
layerId = "E338D14E-1DA5-418D-88BC-8956EEA80AB9";
paths = (
{
closed = 1;
nodes = (
"1454 -22 OFFCURVE",
"1656 74 OFFCURVE",
"1782 194 CURVE",
"1726 246 LINE",
"1628 140 OFFCURVE",
"1432 44 OFFCURVE",
"1126 44 CURVE SMOOTH",
"664 44 OFFCURVE",
"342 290 OFFCURVE",
"342 696 CURVE SMOOTH",
"342 1102 OFFCURVE",
"678 1346 OFFCURVE",
"1140 1346 CURVE SMOOTH",
"1450 1346 OFFCURVE",
"1614 1246 OFFCURVE",
"1726 1124 CURVE",
"1782 1174 LINE",
"1652 1306 OFFCURVE",
"1474 1412 OFFCURVE",
"1130 1412 CURVE SMOOTH",
"636 1412 OFFCURVE",
"266 1146 OFFCURVE",
"266 696 CURVE SMOOTH",
"266 246 OFFCURVE",
"622 -22 OFFCURVE",
"1116 -22 CURVE SMOOTH"
);
}
);
width = 2100;
},
{
anchors = (
{
name = bottom;
position = "{468, 0}";
},
{
name = top;
position = "{468, 1400}";
}
);
layerId = "C5C974ED-4386-41E8-AA57-C40E24C26BBD";
paths = (
{
closed = 1;
nodes = (
"707 -22 OFFCURVE",
"820 224 OFFCURVE",
"836 370 CURVE",
"552 486 LINE",
"548 402 OFFCURVE",
"532 230 OFFCURVE",
"468 230 CURVE SMOOTH",
"404 230 OFFCURVE",
"384 360 OFFCURVE",
"384 696 CURVE SMOOTH",
"384 1030 OFFCURVE",
"402 1160 OFFCURVE",
"468 1160 CURVE SMOOTH",
"532 1160 OFFCURVE",
"548 994 OFFCURVE",
"552 910 CURVE",
"836 1034 LINE",
"820 1180 OFFCURVE",
"707 1412 OFFCURVE",
"466 1412 CURVE SMOOTH",
"228 1412 OFFCURVE",
"50 1238 OFFCURVE",
"50 696 CURVE SMOOTH",
"50 152 OFFCURVE",
"228 -22 OFFCURVE",
"466 -22 CURVE SMOOTH"
);
}
);
width = 900;
},
{
anchors = (
{
name = bottom;
position = "{1050, 0}";
},
{
name = top;
position = "{1050, 1400}";
}
);
layerId = "DF71BB49-08D0-48AB-8F46-D55A70C0C2BD";
paths = (
{
closed = 1;
nodes = (
"1502 -22 OFFCURVE",
"1787 85 OFFCURVE",
"1876 160 CURVE",
"1611 421 LINE",
"1550 362 OFFCURVE",
"1360 275 OFFCURVE",
"1082 275 CURVE SMOOTH",
"798 275 OFFCURVE",
"531 374 OFFCURVE",
"531 696 CURVE SMOOTH",
"531 1016 OFFCURVE",
"807 1115 OFFCURVE",
"1091 1115 CURVE SMOOTH",
"1367 1115 OFFCURVE",
"1553 1012 OFFCURVE",
"1611 938 CURVE",
"1908 1177 LINE",
"1805 1275 OFFCURVE",
"1504 1412 OFFCURVE",
"1100 1412 CURVE SMOOTH",
"676 1412 OFFCURVE",
"93 1293 OFFCURVE",
"93 696 CURVE SMOOTH",
"93 104 OFFCURVE",
"666 -22 OFFCURVE",
"1091 -22 CURVE SMOOTH"
);
}
);
width = 2100;
}
);
leftKerningGroup = O;
rightKerningGroup = C;
unicode = 0043;
},
{
glyphname = D;
lastChange = "2020-04-30 15:52:49 +0000";
layers = (
{
anchors = (
{
name = bottom;
position = "{374, 0}";
},
{
name = center;
position = "{196, 700}";
},
{
name = top;
position = "{424, 1400}";
}
);
layerId = "2E286313-D5BF-4FB4-A4B7-BD9BC13B574E";
paths = (
{
closed = 1;
nodes = (
"384 0 LINE SMOOTH",
"554 0 OFFCURVE",
"738 100 OFFCURVE",
"738 700 CURVE SMOOTH",
"738 1300 OFFCURVE",
"554 1400 OFFCURVE",
"384 1400 CURVE SMOOTH",
"170 1400 LINE",
"170 0 LINE"
);
},
{
closed = 1;
nodes = (
"236 1336 LINE",
"370 1336 LINE SMOOTH",
"554 1336 OFFCURVE",
"668 1172 OFFCURVE",
"668 700 CURVE SMOOTH",
"668 228 OFFCURVE",
"554 64 OFFCURVE",
"370 64 CURVE SMOOTH",
"236 64 LINE"
);
}
);
width = 900;
},
{
anchors = (
{
name = bottom;
position = "{1050, 0}";
},
{
name = center;
position = "{582, 700}";
},
{
name = top;
position = "{1050, 1400}";
}
);
layerId = "E338D14E-1DA5-418D-88BC-8956EEA80AB9";
paths = (
{
closed = 1;
nodes = (
"960 0 LINE SMOOTH",
"1546 0 OFFCURVE",
"1824 180 OFFCURVE",
"1824 700 CURVE SMOOTH",
"1824 1220 OFFCURVE",
"1546 1400 OFFCURVE",
"960 1400 CURVE SMOOTH",
"386 1400 LINE",
"386 0 LINE"
);
},
{
closed = 1;
nodes = (
"456 1336 LINE",
"960 1336 LINE SMOOTH",
"1534 1336 OFFCURVE",
"1752 1152 OFFCURVE",
"1752 700 CURVE SMOOTH",
"1752 248 OFFCURVE",
"1534 64 OFFCURVE",
"960 64 CURVE SMOOTH",
"456 64 LINE"
);
}
);
width = 2100;
},
{
anchors = (
{
name = bottom;
position = "{364, 0}";
},
{
name = center;
position = "{178, 700}";
},
{
name = top;
position = "{386, 1400}";
}
);
layerId = "C5C974ED-4386-41E8-AA57-C40E24C26BBD";
paths = (
{
closed = 1;
nodes = (
"388 0 LINE SMOOTH",
"620 0 OFFCURVE",
"854 114 OFFCURVE",
"854 700 CURVE SMOOTH",
"854 1286 OFFCURVE",
"620 1400 OFFCURVE",
"388 1400 CURVE SMOOTH",
"68 1400 LINE",
"68 0 LINE"
);
},
{
closed = 1;
nodes = (
"392 1156 LINE",
"420 1156 LINE SMOOTH",
"506 1156 OFFCURVE",
"520 974 OFFCURVE",
"520 700 CURVE SMOOTH",
"520 426 OFFCURVE",
"506 244 OFFCURVE",
"420 244 CURVE SMOOTH",
"392 244 LINE"
);
}
);
width = 900;
},
{
anchors = (
{
name = bottom;
position = "{1037, 0}";
},
{
name = center;
position = "{558, 700}";
},
{
name = top;
position = "{999, 1400}";
}
);
layerId = "DF71BB49-08D0-48AB-8F46-D55A70C0C2BD";
paths = (
{
closed = 1;
nodes = (
"966 0 LINE SMOOTH",
"1636 0 OFFCURVE",
"1982 199 OFFCURVE",
"1982 700 CURVE SMOOTH",
"1982 1201 OFFCURVE",
"1636 1400 OFFCURVE",
"966 1400 CURVE SMOOTH",
"248 1400 LINE",
"248 0 LINE"
);
},
{
closed = 1;
nodes = (
"668 1092 LINE",
"1028 1092 LINE SMOOTH",
"1469 1092 OFFCURVE",
"1552 883 OFFCURVE",
"1552 700 CURVE SMOOTH",
"1552 517 OFFCURVE",
"1469 308 OFFCURVE",
"1028 308 CURVE SMOOTH",
"668 308 LINE"
);
}
);
width = 2100;
}
);
leftKerningGroup = H;
rightKerningGroup = O;
unicode = 0044;
},
{
glyphname = E;
lastChange = "2020-04-30 15:52:17 +0000";
layers = (
{
anchors = (
{
name = bottom;
position = "{440, 0}";
},
{
name = ogonek;
position = "{656, 0}";
},
{
name = top;
position = "{540, 1400}";
},
{
name = topleft;
position = "{100, 1400}";
}
);
layerId = "2E286313-D5BF-4FB4-A4B7-BD9BC13B574E";
paths = (
{
closed = 1;
nodes = (
"696 1400 LINE",
"208 1400 LINE",
"208 0 LINE",
"696 0 LINE",
"696 64 LINE",
"274 64 LINE",
"274 656 LINE",
"608 656 LINE",
"608 720 LINE",
"274 720 LINE",
"274 1336 LINE",
"696 1336 LINE"
);
}
);
width = 900;
},
{
anchors = (
{
name = bottom;
position = "{1120, 0}";
},
{
name = ogonek;
position = "{1498, 0}";
},
{
name = top;
position = "{1120, 1400}";
},
{
name = topleft;
position = "{70, 1400}";
}
);
layerId = "E338D14E-1DA5-418D-88BC-8956EEA80AB9";
paths = (
{
closed = 1;
nodes = (
"1744 1400 LINE",
"434 1400 LINE",
"434 0 LINE",
"1744 0 LINE",
"1744 64 LINE",
"504 64 LINE",
"504 656 LINE",
"1594 656 LINE",
"1594 720 LINE",
"504 720 LINE",
"504 1336 LINE",
"1744 1336 LINE"
);
}
);
width = 2100;
},
{
anchors = (
{
name = bottom;
position = "{449, 0}";
},
{
name = ogonek;
position = "{663, 0}";
},
{
name = top;
position = "{493, 1400}";
},
{
name = topleft;
position = "{89, 1400}";
}
);
layerId = "C5C974ED-4386-41E8-AA57-C40E24C26BBD";
paths = (
{
closed = 1;
nodes = (
"761 1400 LINE",
"125 1400 LINE",
"125 0 LINE",
"761 0 LINE",
"761 244 LINE",
"451 244 LINE",
"451 566 LINE",
"675 566 LINE",
"675 810 LINE",
"451 810 LINE",
"451 1156 LINE",
"761 1156 LINE"
);
}
);
width = 900;
},
{
anchors = (
{
name = bottom;
position = "{1132, 0}";
},
{
name = ogonek;
position = "{1507, 0}";
},
{
name = top;
position = "{1056, 1400}";
},
{
name = topleft;
position = "{55, 1400}";
}
);
layerId = "DF71BB49-08D0-48AB-8F46-D55A70C0C2BD";
paths = (
{
closed = 1;
nodes = (
"1832 1400 LINE",
"321 1400 LINE",
"321 0 LINE",
"1832 0 LINE",
"1832 308 LINE",
"744 308 LINE",
"744 534 LINE",
"1685 534 LINE",
"1685 842 LINE",
"744 842 LINE",
"744 1092 LINE",
"1832 1092 LINE"
);
}
);
width = 2100;
}
);
leftKerningGroup = H;
rightKerningGroup = E;
unicode = 0045;
},
{
glyphname = F;
lastChange = "2020-04-30 15:52:17 +0000";
layers = (
{
anchors = (
{
name = bottom;
position = "{516, 0}";
},
{
name = top;
position = "{516, 1400}";
}
);
layerId = "2E286313-D5BF-4FB4-A4B7-BD9BC13B574E";
paths = (
{
closed = 1;
nodes = (
"760 1400 LINE",
"252 1400 LINE",
"252 0 LINE",
"318 0 LINE",
"318 656 LINE",
"680 656 LINE",
"680 720 LINE",
"318 720 LINE",
"318 1336 LINE",
"760 1336 LINE"
);
}
);
width = 900;
},
{
anchors = (
{
name = bottom;
position = "{1090, 0}";
},
{
name = top;
position = "{1090, 1400}";
}
);
layerId = "E338D14E-1DA5-418D-88BC-8956EEA80AB9";
paths = (
{
closed = 1;
nodes = (
"1878 1400 LINE",
"568 1400 LINE",
"568 0 LINE",
"638 0 LINE",
"638 656 LINE",
"1738 656 LINE",
"1738 720 LINE",
"638 720 LINE",
"638 1336 LINE",
"1878 1336 LINE"
);
}
);
width = 2100;
},
{
anchors = (
{
name = bottom;
position = "{484, 0}";
},
{
name = top;
position = "{484, 1400}";
}
);
layerId = "C5C974ED-4386-41E8-AA57-C40E24C26BBD";
paths = (
{
closed = 1;
nodes = (
"788 1400 LINE",
"162 1400 LINE",
"162 0 LINE",
"488 0 LINE",
"488 546 LINE",
"724 546 LINE",
"724 790 LINE",
"488 790 LINE",
"488 1156 LINE",
"788 1156 LINE"
);
}
);
width = 900;
},
{
anchors = (
{
name = bottom;
position = "{1047, 0}";
},
{
name = top;
position = "{1047, 1400}";
}
);
layerId = "DF71BB49-08D0-48AB-8F46-D55A70C0C2BD";
paths = (
{
closed = 1;
nodes = (
"1916 1400 LINE",
"446 1400 LINE",
"446 0 LINE",
"869 0 LINE",
"869 507 LINE",
"1798 507 LINE",
"1798 815 LINE",
"869 815 LINE",
"869 1092 LINE",
"1916 1092 LINE"
);
}
);
width = 2100;
}
);
leftKerningGroup = H;
rightKerningGroup = F;
unicode = 0046;
},
{
glyphname = G;
lastChange = "2020-04-30 20:37:55 +0000";
layers = (
{
anchors = (
{
name = bottom;
position = "{500, 0}";
},
{
name = top;
position = "{500, 1400}";
}
);
layerId = "2E286313-D5BF-4FB4-A4B7-BD9BC13B574E";
paths = (
{
closed = 1;
nodes = (
"468 690 LINE",
"468 626 LINE",
"726 626 LINE",
"726 214 LINE",
"692 152 OFFCURVE",
"632 44 OFFCURVE",
"482 44 CURVE SMOOTH",
"310 44 OFFCURVE",
"200 270 OFFCURVE",
"200 696 CURVE SMOOTH",
"200 1122 OFFCURVE",
"340 1346 OFFCURVE",
"492 1346 CURVE SMOOTH",
"632 1346 OFFCURVE",
"686 1222 OFFCURVE",
"708 1156 CURVE",
"766 1190 LINE",
"732 1302 OFFCURVE",
"644 1412 OFFCURVE",
"492 1412 CURVE SMOOTH",
"286 1412 OFFCURVE",
"130 1166 OFFCURVE",
"130 696 CURVE SMOOTH",
"130 226 OFFCURVE",
"256 -22 OFFCURVE",
"482 -22 CURVE SMOOTH",
"678 -22 OFFCURVE",
"768 128 OFFCURVE",
"792 190 CURVE",
"792 690 LINE"
);
}
);
width = 900;
},
{
anchors = (
{
name = bottom;
position = "{1120, 0}";
},
{
name = top;
position = "{1120, 1400}";
}
);
layerId = "E338D14E-1DA5-418D-88BC-8956EEA80AB9";
paths = (
{
closed = 1;
nodes = (
"1074 690 LINE",
"1074 626 LINE",
"1788 626 LINE",
"1788 208 LINE",
"1668 120 OFFCURVE",
"1492 44 OFFCURVE",
"1130 44 CURVE SMOOTH",
"668 44 OFFCURVE",
"328 250 OFFCURVE",
"328 696 CURVE SMOOTH",
"328 1142 OFFCURVE",
"702 1346 OFFCURVE",
"1164 1346 CURVE SMOOTH",
"1462 1346 OFFCURVE",
"1656 1248 OFFCURVE",
"1768 1126 CURVE",
"1836 1170 LINE",
"1706 1308 OFFCURVE",
"1506 1412 OFFCURVE",
"1164 1412 CURVE SMOOTH",
"664 1412 OFFCURVE",
"252 1206 OFFCURVE",
"252 696 CURVE SMOOTH",
"252 186 OFFCURVE",
"630 -22 OFFCURVE",
"1130 -22 CURVE SMOOTH",
"1556 -22 OFFCURVE",
"1748 88 OFFCURVE",
"1858 170 CURVE",
"1858 690 LINE"
);
}
);
width = 2100;
},
{
anchors = (
{
name = bottom;
position = "{488, 0}";
},
{
name = top;
position = "{488, 1400}";
}
);
layerId = "C5C974ED-4386-41E8-AA57-C40E24C26BBD";
paths = (
{
closed = 1;
nodes = (
"464 716 LINE",
"464 478 LINE",
"540 478 LINE",
"540 292 LINE",
"534 266 OFFCURVE",
"520 234 OFFCURVE",
"484 234 CURVE SMOOTH",
"426 234 OFFCURVE",
"370 376 OFFCURVE",
"370 696 CURVE SMOOTH",
"370 1016 OFFCURVE",
"412 1156 OFFCURVE",
"478 1156 CURVE SMOOTH",
"532 1156 OFFCURVE",
"556 1028 OFFCURVE",
"564 964 CURVE",
"856 1108 LINE",
"794 1276 OFFCURVE",
"698 1412 OFFCURVE",
"478 1412 CURVE SMOOTH",
"262 1412 OFFCURVE",
"40 1218 OFFCURVE",
"40 696 CURVE SMOOTH",
"40 172 OFFCURVE",
"260 -22 OFFCURVE",
"484 -22 CURVE SMOOTH",
"674 -22 OFFCURVE",
"808 110 OFFCURVE",
"856 234 CURVE",
"856 716 LINE"
);
}
);
width = 900;
},
{
anchors = (
{
name = bottom;
position = "{1104, 0}";
},
{
name = top;
position = "{1104, 1400}";
}
);
layerId = "DF71BB49-08D0-48AB-8F46-D55A70C0C2BD";
paths = (
{
closed = 1;
nodes = (
"1069 725 LINE",
"1069 425 LINE",
"1536 425 LINE",
"1536 382 LINE",
"1450 331 OFFCURVE",
"1329 302 OFFCURVE",
"1079 302 CURVE SMOOTH",
"839 302 OFFCURVE",
"559 394 OFFCURVE",
"559 696 CURVE SMOOTH",
"559 998 OFFCURVE",
"814 1088 OFFCURVE",
"1091 1088 CURVE SMOOTH",
"1340 1088 OFFCURVE",
"1512 1029 OFFCURVE",
"1599 957 CURVE",
"1945 1189 LINE",
"1810 1339 OFFCURVE",
"1531 1412 OFFCURVE",
"1091 1412 CURVE SMOOTH",
"645 1412 OFFCURVE",
"130 1246 OFFCURVE",
"130 696 CURVE SMOOTH",
"130 143 OFFCURVE",
"649 -22 OFFCURVE",
"1079 -22 CURVE SMOOTH",
"1497 -22 OFFCURVE",
"1803 87 OFFCURVE",
"1945 253 CURVE",
"1945 725 LINE"
);
}
);
width = 2100;
}
);
leftKerningGroup = O;
rightKerningGroup = G;
unicode = 0047;
},
{
glyphname = G.ss01;
lastChange = "2020-04-30 20:39:06 +0000";
layers = (
{
layerId = "2E286313-D5BF-4FB4-A4B7-BD9BC13B574E";
paths = (
{
closed = 1;
nodes = (
"662 -22 OFFCURVE",
"752 170 OFFCURVE",
"752 656 CURVE SMOOTH",
"752 720 LINE",
"476 720 LINE",
"476 656 LINE",
"684 656 LINE",
"684 180 OFFCURVE",
"612 44 OFFCURVE",
"462 44 CURVE SMOOTH",
"288 44 OFFCURVE",
"222 250 OFFCURVE",
"222 696 CURVE SMOOTH",
"222 1142 OFFCURVE",
"306 1346 OFFCURVE",
"460 1346 CURVE SMOOTH",
"600 1346 OFFCURVE",
"644 1175 OFFCURVE",
"658 1106 CURVE",
"717 1144 LINE",
"697 1233 OFFCURVE",
"628 1412 OFFCURVE",
"460 1412 CURVE SMOOTH",
"278 1412 OFFCURVE",
"154 1220 OFFCURVE",
"154 696 CURVE SMOOTH",
"154 170 OFFCURVE",
"266 -22 OFFCURVE",
"462 -22 CURVE SMOOTH"
);
}
);
width = 900;
},
{
layerId = "E338D14E-1DA5-418D-88BC-8956EEA80AB9";
paths = (
{
closed = 1;
nodes = (
"1438 -22 OFFCURVE",
"1844 130 OFFCURVE",
"1844 656 CURVE SMOOTH",
"1844 720 LINE",
"1072 720 LINE",
"1072 656 LINE",
"1772 656 LINE",
"1772 180 OFFCURVE",
"1432 42 OFFCURVE",
"1100 42 CURVE SMOOTH",
"690 42 OFFCURVE",
"366 236 OFFCURVE",
"366 696 CURVE SMOOTH",
"366 1142 OFFCURVE",
"690 1348 OFFCURVE",
"1118 1348 CURVE SMOOTH",
"1416 1348 OFFCURVE",
"1632 1242 OFFCURVE",
"1730 1138 CURVE",
"1786 1186 LINE",
"1686 1294 OFFCURVE",
"1468 1412 OFFCURVE",
"1118 1412 CURVE SMOOTH",
"688 1412 OFFCURVE",
"288 1220 OFFCURVE",
"288 696 CURVE SMOOTH",
"288 170 OFFCURVE",
"672 -22 OFFCURVE",
"1100 -22 CURVE SMOOTH"
);
}
);
width = 2100;
},
{
layerId = "C5C974ED-4386-41E8-AA57-C40E24C26BBD";
paths = (
{
closed = 1;
nodes = (
"705 -22 OFFCURVE",
"820 190 OFFCURVE",
"820 613 CURVE SMOOTH",
"820 805 LINE",
"427 805 LINE",
"427 553 LINE",
"517 553 LINE",
"517 358 OFFCURVE",
"502 249 OFFCURVE",
"441 249 CURVE SMOOTH",
"372 249 OFFCURVE",
"344 317 OFFCURVE",
"344 696 CURVE SMOOTH",
"344 1060 OFFCURVE",
"381 1141 OFFCURVE",
"430 1141 CURVE SMOOTH",
"478 1141 OFFCURVE",
"511 993 OFFCURVE",
"515 935 CURVE",
"795 1054 LINE",
"767 1243 OFFCURVE",
"627 1412 OFFCURVE",
"439 1412 CURVE SMOOTH",
"197 1412 OFFCURVE",
"21 1229 OFFCURVE",
"21 696 CURVE SMOOTH",
"21 161 OFFCURVE",
"178 -22 OFFCURVE",
"441 -22 CURVE SMOOTH"
);
}
);
width = 900;
},
{
layerId = "DF71BB49-08D0-48AB-8F46-D55A70C0C2BD";
paths = (
{
closed = 1;
nodes = (
"1449 -22 OFFCURVE",
"1932 190 OFFCURVE",
"1932 647 CURVE SMOOTH",
"1932 818 LINE",
"1058 818 LINE",
"1058 527 LINE",
"1517 527 LINE",
"1483 402 OFFCURVE",
"1316 276 OFFCURVE",
"1031 276 CURVE SMOOTH",
"819 276 OFFCURVE",
"562 366 OFFCURVE",
"562 696 CURVE SMOOTH",
"562 1027 OFFCURVE",
"831 1114 OFFCURVE",
"1042 1114 CURVE SMOOTH",
"1288 1114 OFFCURVE",
"1472 1025 OFFCURVE",
"1533 948 CURVE",
"1854 1178 LINE",
"1789 1252 OFFCURVE",
"1478 1412 OFFCURVE",
"1047 1412 CURVE SMOOTH",
"608 1412 OFFCURVE",
"126 1187 OFFCURVE",
"126 696 CURVE SMOOTH",
"126 205 OFFCURVE",
"595 -22 OFFCURVE",
"1036 -22 CURVE SMOOTH"
);
}
);
width = 2100;
}
);
},
{
glyphname = H;
lastChange = "2020-04-30 15:52:17 +0000";
layers = (
{
anchors = (
{
name = bottom;
position = "{460, 0}";
},
{
name = center;
position = "{460, 1062}";
},
{
name = top;
position = "{460, 1400}";
},
{
name = topleft;
position = "{20, 1400}";
}
);
layerId = "2E286313-D5BF-4FB4-A4B7-BD9BC13B574E";
paths = (
{
closed = 1;
nodes = (
"652 760 LINE",
"266 760 LINE",
"266 1400 LINE",
"200 1400 LINE",
"200 0 LINE",
"266 0 LINE",
"266 696 LINE",
"652 696 LINE",
"652 0 LINE",
"718 0 LINE",
"718 1400 LINE",
"652 1400 LINE"
);
}
);
width = 900;
},
{
anchors = (
{
name = bottom;
position = "{1050, 0}";
},
{
name = center;
position = "{1050, 1132}";
},
{
name = top;
position = "{1050, 1400}";
},
{
name = topleft;
position = "{70, 1400}";
}
);
layerId = "E338D14E-1DA5-418D-88BC-8956EEA80AB9";
paths = (
{
closed = 1;
nodes = (
"1608 760 LINE",
"490 760 LINE",
"490 1400 LINE",
"420 1400 LINE",
"420 0 LINE",
"490 0 LINE",
"490 696 LINE",
"1608 696 LINE",
"1608 0 LINE",
"1676 0 LINE",
"1676 1400 LINE",
"1608 1400 LINE"
);
}
);
width = 2100;
},
{
anchors = (
{
name = bottom;
position = "{442, 0}";
},
{
name = center;
position = "{442, 1062}";
},
{
name = top;
position = "{442, 1400}";
},
{
name = topleft;
position = "{52, 1400}";
}
);
layerId = "C5C974ED-4386-41E8-AA57-C40E24C26BBD";
paths = (
{
closed = 1;
nodes = (
"486 850 LINE",
"398 850 LINE",
"398 1400 LINE",
"62 1400 LINE",
"62 0 LINE",
"398 0 LINE",
"398 606 LINE",
"486 606 LINE",
"486 0 LINE",
"822 0 LINE",
"822 1400 LINE",
"486 1400 LINE"
);
}
);
width = 900;
},
{
anchors = (
{
name = bottom;
position = "{1026, 0}";
},
{
name = center;
position = "{1026, 1132}";
},
{
name = top;
position = "{1026, 1400}";
},
{
name = topleft;
position = "{114, 1400}";
}
);
layerId = "DF71BB49-08D0-48AB-8F46-D55A70C0C2BD";
paths = (
{
closed = 1;
nodes = (
"1383 882 LINE",
"669 882 LINE",
"669 1400 LINE",
"233 1400 LINE",
"233 0 LINE",
"669 0 LINE",
"669 574 LINE",
"1383 574 LINE",
"1383 0 LINE",
"1817 0 LINE",
"1817 1400 LINE",
"1383 1400 LINE"
);
}
);
width = 2100;
}
);
leftKerningGroup = H;
rightKerningGroup = H;
unicode = 0048;
},
{
glyphname = I;
lastChange = "2020-04-30 15:52:17 +0000";
layers = (
{
anchors = (
{
name = bottom;
position = "{440, 0}";
},
{
name = ogonek;
position = "{442, 0}";
},
{
name = top;
position = "{438, 1400}";
},
{
name = topleft;
position = "{96, 1400}";
}
);
layerId = "2E286313-D5BF-4FB4-A4B7-BD9BC13B574E";
paths = (
{
closed = 1;
nodes = (
"690 1400 LINE",
"186 1400 LINE",
"186 1336 LINE",
"404 1336 LINE",
"404 64 LINE",
"186 64 LINE",
"186 0 LINE",
"690 0 LINE",
"690 64 LINE",
"470 64 LINE",
"470 1336 LINE",
"690 1336 LINE"
);
}
);
width = 900;
},
{
anchors = (
{
name = bottom;
position = "{1050, 0}";
},
{
name = ogonek;
position = "{1060, 0}";
},
{
name = top;
position = "{1050, 1400}";
},
{
name = topleft;
position = "{70, 1400}";
}
);
layerId = "E338D14E-1DA5-418D-88BC-8956EEA80AB9";
paths = (
{
closed = 1;
nodes = (
"1698 1400 LINE",
"396 1400 LINE",
"396 1336 LINE",
"1012 1336 LINE",
"1012 64 LINE",
"396 64 LINE",
"396 0 LINE",
"1698 0 LINE",
"1698 64 LINE",
"1080 64 LINE",
"1080 1336 LINE",
"1698 1336 LINE"
);
}
);
width = 2100;
},
{
anchors = (
{
name = bottom;
position = "{454, 0}";
},
{
name = ogonek;
position = "{450, 0}";
},
{
name = top;
position = "{454, 1400}";
},
{
name = topleft;
position = "{106, 1400}";
}
);
layerId = "C5C974ED-4386-41E8-AA57-C40E24C26BBD";
paths = (
{
closed = 1;
nodes = (
"779 1400 LINE",
"127 1400 LINE",
"127 1156 LINE",
"283 1156 LINE",
"283 244 LINE",
"127 244 LINE",
"127 0 LINE",
"779 0 LINE",
"779 244 LINE",
"619 244 LINE",
"619 1156 LINE",
"779 1156 LINE"
);
}
);
width = 900;
},
{
anchors = (
{
name = bottom;
position = "{1069, 0}";
},
{
name = ogonek;
position = "{1071, 0}";
},
{
name = top;
position = "{1072, 1400}";
},
{
name = topleft;
position = "{84, 1400}";
}
);
layerId = "DF71BB49-08D0-48AB-8F46-D55A70C0C2BD";
paths = (
{
closed = 1;
nodes = (
"1819 1400 LINE",
"316 1400 LINE",
"316 1092 LINE",
"848 1092 LINE",
"848 308 LINE",
"316 308 LINE",
"316 0 LINE",
"1819 0 LINE",
"1819 308 LINE",
"1282 308 LINE",
"1282 1092 LINE",
"1819 1092 LINE"
);
}
);
width = 2100;
}
);
leftKerningGroup = H;
rightKerningGroup = H;
unicode = 0049;
},
{
glyphname = J;
lastChange = "2020-04-30 20:40:04 +0000";
layers = (
{
anchors = (
{
name = bottom;
position = "{364, 0}";
},
{
name = top;
position = "{460, 1400}";
}
);
layerId = "2E286313-D5BF-4FB4-A4B7-BD9BC13B574E";
paths = (
{
closed = 1;
nodes = (
"236 1400 LINE",
"236 1336 LINE",
"546 1336 LINE",
"546 382 LINE SMOOTH",
"546 150 OFFCURVE",
"504 48 OFFCURVE",
"348 48 CURVE SMOOTH",
"280 48 OFFCURVE",
"232 82 OFFCURVE",
"212 106 CURVE",
"164 52 LINE",
"194 24 OFFCURVE",
"242 -18 OFFCURVE",
"350 -18 CURVE SMOOTH",
"542 -18 OFFCURVE",
"612 106 OFFCURVE",
"612 342 CURVE SMOOTH",
"612 1400 LINE"
);
}
);
width = 900;
},
{
anchors = (
{
name = bottom;
position = "{940, 0}";
},
{
name = top;
position = "{992, 1400}";
}
);
layerId = "E338D14E-1DA5-418D-88BC-8956EEA80AB9";
paths = (
{
closed = 1;
nodes = (
"480 1400 LINE",
"480 1336 LINE",
"1452 1336 LINE",
"1452 534 LINE SMOOTH",
"1452 140 OFFCURVE",
"1230 48 OFFCURVE",
"914 48 CURVE SMOOTH",
"588 48 OFFCURVE",
"462 162 OFFCURVE",
"418 222 CURVE",
"356 168 LINE",
"412 100 OFFCURVE",
"574 -18 OFFCURVE",
"918 -18 CURVE SMOOTH",
"1264 -18 OFFCURVE",
"1526 104 OFFCURVE",
"1526 502 CURVE SMOOTH",
"1526 1400 LINE"
);
}
);
width = 2100;
},
{
anchors = (
{
name = bottom;
position = "{440, 0}";
},
{
name = top;
position = "{468, 1400}";
}
);
layerId = "C5C974ED-4386-41E8-AA57-C40E24C26BBD";
paths = (
{
closed = 1;
nodes = (
"120 1400 LINE",
"120 1156 LINE",
"412 1156 LINE",
"412 340 LINE SMOOTH",
"412 264 OFFCURVE",
"383 247 OFFCURVE",
"341 247 CURVE SMOOTH",
"301 247 OFFCURVE",
"262 292 OFFCURVE",
"254 310 CURVE",
"32 96 LINE",
"80 32 OFFCURVE",
"210 -18 OFFCURVE",
"358 -18 CURVE SMOOTH",
"542 -18 OFFCURVE",
"744 59 OFFCURVE",
"744 298 CURVE SMOOTH",
"744 1400 LINE"
);
}
);
width = 900;
},
{
anchors = (
{
name = bottom;
position = "{1043, 0}";
},
{
name = top;
position = "{1003, 1400}";
}
);
layerId = "DF71BB49-08D0-48AB-8F46-D55A70C0C2BD";
paths = (
{
closed = 1;
nodes = (
"323 1400 LINE",
"323 1092 LINE",
"1270 1092 LINE",
"1270 535 LINE SMOOTH",
"1270 353 OFFCURVE",
"1123 306 OFFCURVE",
"935 306 CURVE SMOOTH",
"675 306 OFFCURVE",
"543 447 OFFCURVE",
"516 499 CURVE",
"204 214 LINE",
"284 111 OFFCURVE",
"548 -18 OFFCURVE",
"929 -18 CURVE SMOOTH",
"1365 -18 OFFCURVE",
"1705 80 OFFCURVE",
"1705 442 CURVE SMOOTH",
"1705 1400 LINE"
);
}
);
width = 2100;
}
);
leftKerningGroup = J;
rightKerningGroup = J;
unicode = 004A;
},
{
glyphname = K;
lastChange = "2020-04-30 15:52:17 +0000";
layers = (
{
anchors = (
{
name = bottom;
position = "{480, 0}";
},
{
name = top;
position = "{480, 1400}";
}
);
layerId = "2E286313-D5BF-4FB4-A4B7-BD9BC13B574E";
paths = (
{
closed = 1;
nodes = (
"774 0 LINE",
"462 712 LINE",
"740 1400 LINE",
"668 1400 LINE",
"412 750 LINE",
"332 750 LINE",
"332 1400 LINE",
"266 1400 LINE",
"266 0 LINE",
"332 0 LINE",
"332 686 LINE",
"402 686 LINE",
"702 0 LINE"
);
}
);
width = 900;
},
{
anchors = (
{
name = bottom;
position = "{1090, 0}";
},
{
name = top;
position = "{1090, 1400}";
}
);
layerId = "E338D14E-1DA5-418D-88BC-8956EEA80AB9";
paths = (
{
closed = 1;
nodes = (
"1758 0 LINE",
"956 716 LINE",
"1700 1400 LINE",
"1598 1400 LINE",
"896 750 LINE",
"622 750 LINE",
"622 1400 LINE",
"554 1400 LINE",
"554 0 LINE",
"622 0 LINE",
"622 686 LINE",
"884 686 LINE",
"1656 0 LINE"
);
}
);
width = 2100;
},
{
anchors = (
{
name = bottom;
position = "{490, 0}";
},
{
name = top;
position = "{490, 1400}";
}
);
layerId = "C5C974ED-4386-41E8-AA57-C40E24C26BBD";
paths = (
{
closed = 1;
nodes = (
"884 0 LINE",
"674 716 LINE",
"856 1400 LINE",
"504 1400 LINE",
"414 830 LINE",
"412 830 LINE",
"412 1400 LINE",
"76 1400 LINE",
"76 0 LINE",
"412 0 LINE",
"412 606 LINE",
"414 606 LINE",
"530 0 LINE"
);
}
);
width = 900;
},
{
anchors = (
{
name = bottom;
position = "{1103, 0}";
},
{
name = top;
position = "{1103, 1400}";
}
);
layerId = "DF71BB49-08D0-48AB-8F46-D55A70C0C2BD";
paths = (
{
closed = 1;
nodes = (
"1907 0 LINE",
"1244 721 LINE",
"1857 1400 LINE",
"1375 1400 LINE",
"899 859 LINE",
"730 859 LINE",
"730 1400 LINE",
"296 1400 LINE",
"296 0 LINE",
"730 0 LINE",
"730 577 LINE",
"900 577 LINE",
"1422 0 LINE"
);
}
);
width = 2100;
}
);
leftKerningGroup = H;
rightKerningGroup = K;
unicode = 004B;
},
{
glyphname = L;
lastChange = "2020-04-30 15:52:17 +0000";
layers = (
{
anchors = (
{
name = bottom;
position = "{500, 0}";
},
{
name = center;
position = "{276, 666}";
},
{
name = top;
position = "{500, 1400}";
},
{
name = topright;
position = "{850, 1400}";
}
);
layerId = "2E286313-D5BF-4FB4-A4B7-BD9BC13B574E";
paths = (
{
closed = 1;
nodes = (
"332 1400 LINE",
"266 1400 LINE",
"266 0 LINE",
"774 0 LINE",
"774 64 LINE",
"332 64 LINE"
);
}
);
width = 900;
},
{
anchors = (
{
name = bottom;
position = "{1090, 0}";
},
{
name = center;
position = "{658, 666}";
},
{
name = top;
position = "{1090, 1400}";
},
{
name = topright;
position = "{1702, 1400}";
}
);
layerId = "E338D14E-1DA5-418D-88BC-8956EEA80AB9";
paths = (
{
closed = 1;
nodes = (
"578 1400 LINE",
"506 1400 LINE",
"506 0 LINE",
"1790 0 LINE",
"1790 64 LINE",
"578 64 LINE"
);
}
);
width = 2100;
},
{
anchors = (
{
name = bottom;
position = "{530, 0}";
},
{
name = center;
position = "{312, 700}";
},
{
name = top;
position = "{490, 1400}";
},
{
name = topright;
position = "{702, 1400}";
}
);
layerId = "C5C974ED-4386-41E8-AA57-C40E24C26BBD";
paths = (
{
closed = 1;
nodes = (
"498 1400 LINE",
"162 1400 LINE",
"162 0 LINE",
"816 0 LINE",
"816 244 LINE",
"498 244 LINE"
);
}
);
width = 900;
},
{
anchors = (
{
name = bottom;
position = "{1131, 0}";
},
{
name = center;
position = "{707, 712}";
},
{
name = top;
position = "{1077, 1400}";
},
{
name = topright;
position = "{1501, 1400}";
}
);
layerId = "DF71BB49-08D0-48AB-8F46-D55A70C0C2BD";
paths = (
{
closed = 1;
nodes = (
"803 1400 LINE",
"365 1400 LINE",
"365 0 LINE",
"1847 0 LINE",
"1847 308 LINE",
"803 308 LINE"
);
}
);
width = 2100;
}
);
leftKerningGroup = H;
rightKerningGroup = L;
unicode = 004C;
},
{
glyphname = Lslash;
lastChange = "2020-04-30 15:52:49 +0000";
layers = (
{
components = (
{
name = L;
transform = "{1, 0, 0, 1, 40, 0}";
}
);
layerId = "2E286313-D5BF-4FB4-A4B7-BD9BC13B574E";
paths = (
{
closed = 1;
nodes = (
"94 416 LINE",
"598 920 LINE",
"598 1002 LINE",
"94 496 LINE"
);
}
);
width = 900;
},
{
components = (
{
name = L;
transform = "{1, 0, 0, 1, 144, 0}";
}
);
layerId = "E338D14E-1DA5-418D-88BC-8956EEA80AB9";
paths = (
{
closed = 1;
nodes = (
"424 416 LINE",
"928 920 LINE",
"928 1002 LINE",
"424 496 LINE"
);
}
);
width = 2100;
},
{
components = (
{
alignment = -1;
name = L;
transform = "{1, 0, 0, 1, -8, 0}";
}
);
layerId = "C5C974ED-4386-41E8-AA57-C40E24C26BBD";
paths = (
{
closed = 1;
nodes = (
"-30 266 LINE",
"694 870 LINE",
"694 1152 LINE",
"-30 546 LINE"
);
}
);
width = 900;
},
{
components = (
{
alignment = -1;
name = L;
transform = "{1, 0, 0, 1, 79, 0}";
}
);
layerId = "DF71BB49-08D0-48AB-8F46-D55A70C0C2BD";
paths = (
{
closed = 1;
nodes = (
"256 212 LINE",
"1059 852 LINE",
"1059 1206 LINE",
"256 564 LINE"
);
}
);
width = 2100;
}
);
unicode = 0141;
},
{
glyphname = M;
lastChange = "2020-04-30 21:17:58 +0000";
layers = (
{
anchors = (
{
name = bottom;
position = "{460, 0}";
},
{
name = top;
position = "{460, 1400}";
}
);
layerId = "2E286313-D5BF-4FB4-A4B7-BD9BC13B574E";
paths = (
{
closed = 1;
nodes = (
"492 140 LINE",
"698 1344 LINE",
"698 1400 LINE",
"638 1400 LINE",
"458 290 LINE",
"432 140 LINE"
);
},
{
closed = 1;
nodes = (
"192 0 LINE",
"224 1400 LINE",
"162 1400 LINE",
"124 0 LINE"
);
},
{
closed = 1;
nodes = (
"488 140 LINE",
"460 290 LINE",
"282 1400 LINE",
"222 1400 LINE",
"222 1344 LINE",
"426 140 LINE"
);
},
{
closed = 1;
nodes = (
"796 0 LINE",
"758 1400 LINE",
"696 1400 LINE",
"728 0 LINE"
);
}
);
width = 900;
},
{
anchors = (
{
name = bottom;
position = "{1050, 0}";
},
{
name = top;
position = "{1050, 1400}";
}
);
layerId = "E338D14E-1DA5-418D-88BC-8956EEA80AB9";
paths = (
{
closed = 1;
nodes = (
"1108 80 LINE",
"1650 1278 LINE",
"1668 1400 LINE",
"1626 1400 LINE",
"1058 148 LINE",
"1028 80 LINE"
);
},
{
closed = 1;
nodes = (
"320 0 LINE",
"466 1400 LINE",
"394 1400 LINE",
"246 0 LINE"
);
},
{
closed = 1;
nodes = (
"1068 80 LINE",
"1038 148 LINE",
"474 1400 LINE",
"440 1400 LINE",
"450 1278 LINE",
"988 80 LINE"
);
},
{
closed = 1;
nodes = (
"1856 0 LINE",
"1706 1400 LINE",
"1636 1400 LINE",
"1782 0 LINE"
);
}
);
width = 2100;
},
{
anchors = (
{
name = bottom;
position = "{452, 0}";
},
{
name = top;
position = "{452, 1400}";
}
);
layerId = "C5C974ED-4386-41E8-AA57-C40E24C26BBD";
paths = (
{
closed = 1;
nodes = (
"560 222 LINE",
"620 1032 LINE",
"640 1400 LINE",
"494 1400 LINE",
"458 760 LINE",
"418 222 LINE"
);
},
{
closed = 1;
nodes = (
"300 0 LINE",
"288 1400 LINE",
"46 1400 LINE",
"16 0 LINE"
);
},
{
closed = 1;
nodes = (
"488 222 LINE",
"452 760 LINE",
"410 1400 LINE",
"262 1400 LINE",
"286 1032 LINE",
"346 222 LINE"
);
},
{
closed = 1;
nodes = (
"888 0 LINE",
"858 1400 LINE",
"616 1400 LINE",
"604 0 LINE"
);
}
);
width = 900;
},
{
anchors = (
{
name = bottom;
position = "{1039, 0}";
},
{
name = top;
position = "{1039, 1400}";
}
);
layerId = "DF71BB49-08D0-48AB-8F46-D55A70C0C2BD";
paths = (
{
closed = 1;
nodes = (
"1200 191 LINE",
"1544 945 LINE",
"1589 1400 LINE",
"1400 1400 LINE",
"1030 577 LINE",
"1009 191 LINE"
);
},
{
closed = 1;
nodes = (
"477 0 LINE",
"593 1400 LINE",
"216 1400 LINE",
"49 0 LINE"
);
},
{
closed = 1;
nodes = (
"1068 191 LINE",
"1054 577 LINE",
"677 1400 LINE",
"494 1400 LINE",
"536 945 LINE",
"879 191 LINE"
);
},
{
closed = 1;
nodes = (
"2030 0 LINE",
"1861 1400 LINE",
"1486 1400 LINE",
"1603 0 LINE"
);
}
);
width = 2100;
}
);
leftKerningGroup = M;
rightKerningGroup = M;
unicode = 004D;
},
{
glyphname = N;
lastChange = "2020-04-30 15:52:49 +0000";
layers = (
{
anchors = (
{
name = bottom;
position = "{460, 0}";
},
{
name = top;
position = "{460, 1400}";
}
);
layerId = "2E286313-D5BF-4FB4-A4B7-BD9BC13B574E";
paths = (
{
closed = 1;
nodes = (
"696 130 LINE",
"234 1400 LINE",
"142 1400 LINE",
"142 0 LINE",
"208 0 LINE",
"208 1274 LINE",
"670 0 LINE",
"762 0 LINE",
"762 1400 LINE",
"696 1400 LINE"
);
}
);
width = 900;
},
{
anchors = (
{
name = bottom;
position = "{1050, 0}";
},
{
name = top;
position = "{1050, 1400}";
}
);
layerId = "E338D14E-1DA5-418D-88BC-8956EEA80AB9";
paths = (
{
closed = 1;
nodes = (
"1664 94 LINE",
"442 1400 LINE",
"378 1400 LINE",
"378 0 LINE",
"444 0 LINE",
"444 1304 LINE",
"1666 0 LINE",
"1728 0 LINE",
"1728 1400 LINE",
"1664 1400 LINE"
);
}
);
width = 2100;
},
{
anchors = (
{
name = bottom;
position = "{412, 0}";
},
{
name = top;
position = "{412, 1400}";
}
);
layerId = "C5C974ED-4386-41E8-AA57-C40E24C26BBD";
paths = (
{
closed = 1;
nodes = (
"538 478 LINE",
"470 1400 LINE",
"28 1400 LINE",
"28 0 LINE",
"344 0 LINE",
"344 914 LINE",
"408 0 LINE",
"856 0 LINE",
"856 1400 LINE",
"538 1400 LINE"
);
}
);
width = 900;
},
{
anchors = (
{
name = bottom;
position = "{985, 0}";
},
{
name = top;
position = "{985, 1400}";
}
);
layerId = "DF71BB49-08D0-48AB-8F46-D55A70C0C2BD";
paths = (
{
closed = 1;
nodes = (
"1449 387 LINE",
"816 1400 LINE",
"223 1400 LINE",
"223 0 LINE",
"628 0 LINE",
"628 1014 LINE",
"1269 0 LINE",
"1855 0 LINE",
"1855 1400 LINE",
"1449 1400 LINE"
);
}
);
width = 2100;
}
);
leftKerningGroup = H;
rightKerningGroup = H;
unicode = 004E;
},
{
glyphname = Eng;
lastChange = "2020-04-30 20:42:04 +0000";
layers = (
{
layerId = "2E286313-D5BF-4FB4-A4B7-BD9BC13B574E";
paths = (
{
closed = 1;
nodes = (
"660 -384 OFFCURVE",
"742 -250 OFFCURVE",
"742 -14 CURVE SMOOTH",
"742 1400 LINE",
"676 1400 LINE",
"676 200 LINE",
"228 1400 LINE",
"162 1400 LINE",
"162 0 LINE",
"228 0 LINE",
"228 1204 LINE",
"682 -14 LINE",
"676 22 LINE",
"676 -250 OFFCURVE",
"608 -318 OFFCURVE",
"476 -318 CURVE SMOOTH",
"414 -318 OFFCURVE",
"338 -298 OFFCURVE",
"314 -290 CURVE",
"300 -356 LINE",
"336 -368 OFFCURVE",
"408 -384 OFFCURVE",
"486 -384 CURVE SMOOTH"
);
}
);
width = 900;
},
{
layerId = "E338D14E-1DA5-418D-88BC-8956EEA80AB9";
paths = (
{
closed = 1;
nodes = (
"1478 -384 OFFCURVE",
"1688 -283 OFFCURVE",
"1688 -14 CURVE SMOOTH",
"1688 1400 LINE",
"1624 1400 LINE",
"1624 102 LINE",
"484 1400 LINE",
"418 1400 LINE",
"418 0 LINE",
"484 0 LINE",
"484 1296 LINE",
"1627 -5 LINE",
"1622 28 LINE",
"1622 -244 OFFCURVE",
"1453 -318 OFFCURVE",
"1242 -318 CURVE SMOOTH",
"1120 -318 OFFCURVE",
"908 -278 OFFCURVE",
"876 -270 CURVE",
"858 -336 LINE",
"906 -348 OFFCURVE",
"1102 -384 OFFCURVE",
"1246 -384 CURVE SMOOTH"
);
}
);
width = 2100;
},
{
layerId = "C5C974ED-4386-41E8-AA57-C40E24C26BBD";
paths = (
{
closed = 1;
nodes = (
"680 -384 OFFCURVE",
"830 -264 OFFCURVE",
"830 -24 CURVE SMOOTH",
"830 1400 LINE",
"522 1400 LINE",
"522 676 LINE",
"362 1400 LINE",
"50 1400 LINE",
"50 0 LINE",
"356 0 LINE",
"356 800 LINE",
"552 0 LINE",
"544 50 LINE",
"543 -25 OFFCURVE",
"535 -138 OFFCURVE",
"458 -138 CURVE SMOOTH",
"396 -138 OFFCURVE",
"342 -130 OFFCURVE",
"314 -118 CURVE",
"252 -364 LINE",
"294 -376 OFFCURVE",
"392 -384 OFFCURVE",
"474 -384 CURVE SMOOTH"
);
}
);
width = 900;
},
{
layerId = "DF71BB49-08D0-48AB-8F46-D55A70C0C2BD";
paths = (
{
closed = 1;
nodes = (
"1267 -384 OFFCURVE",
"1766 -325 OFFCURVE",
"1766 -28 CURVE SMOOTH",
"1766 1400 LINE",
"1374 1400 LINE",
"1374 372 LINE",
"762 1400 LINE",
"225 1400 LINE",
"225 0 LINE",
"617 0 LINE",
"617 939 LINE",
"1218 0 LINE",
"1368 0 LINE",
"1368 -38 OFFCURVE",
"1314 -84 OFFCURVE",
"1044 -84 CURVE SMOOTH",
"923 -84 OFFCURVE",
"761 -50 OFFCURVE",
"724 -37 CURVE",
"641 -347 LINE",
"697 -359 OFFCURVE",
"844 -384 OFFCURVE",
"992 -384 CURVE SMOOTH"
);
}
);
width = 2100;
}
);
unicode = 014A;
},
{
glyphname = O;
lastChange = "2020-04-30 15:52:17 +0000";
layers = (
{
anchors = (
{
name = bottom;
position = "{456, 0}";
},
{
name = center;
position = "{456, 700}";
},
{
name = ogonek;
position = "{478, 0}";
},
{
name = top;
position = "{478, 1400}";
},
{
name = topleft;
position = "{120, 1400}";
},
{
name = topright;
position = "{623, 1320}";
}
);
layerId = "2E286313-D5BF-4FB4-A4B7-BD9BC13B574E";
paths = (
{
closed = 1;
nodes = (
"608 -22 OFFCURVE",
"776 100 OFFCURVE",
"776 696 CURVE SMOOTH",
"776 1290 OFFCURVE",
"608 1412 OFFCURVE",
"456 1412 CURVE SMOOTH",
"302 1412 OFFCURVE",
"134 1290 OFFCURVE",
"134 696 CURVE SMOOTH",
"134 100 OFFCURVE",
"302 -22 OFFCURVE",
"456 -22 CURVE SMOOTH"
);
},
{
closed = 1;
nodes = (
"350 44 OFFCURVE",
"202 158 OFFCURVE",
"202 696 CURVE SMOOTH",
"202 1232 OFFCURVE",
"350 1346 OFFCURVE",
"456 1346 CURVE SMOOTH",
"560 1346 OFFCURVE",
"708 1232 OFFCURVE",
"708 696 CURVE SMOOTH",
"708 158 OFFCURVE",
"560 44 OFFCURVE",
"456 44 CURVE SMOOTH"
);
}
);
width = 900;
},
{
anchors = (
{
name = bottom;
position = "{1036, 0}";
},
{
name = center;
position = "{1050, 700}";
},
{
name = ogonek;
position = "{1086, -4}";
},
{
name = top;
position = "{1050, 1400}";
},
{
name = topleft;
position = "{70, 1400}";
},
{
name = topright;
position = "{1449, 1320}";
}
);
layerId = "E338D14E-1DA5-418D-88BC-8956EEA80AB9";
paths = (
{
closed = 1;
nodes = (
"1458 -22 OFFCURVE",
"1866 200 OFFCURVE",
"1866 696 CURVE SMOOTH",
"1866 1190 OFFCURVE",
"1458 1412 OFFCURVE",
"1052 1412 CURVE SMOOTH",
"642 1412 OFFCURVE",
"234 1190 OFFCURVE",
"234 696 CURVE SMOOTH",
"234 200 OFFCURVE",
"642 -22 OFFCURVE",
"1052 -22 CURVE SMOOTH"
);
},
{
closed = 1;
nodes = (
"692 44 OFFCURVE",
"310 258 OFFCURVE",
"310 696 CURVE SMOOTH",
"310 1132 OFFCURVE",
"692 1346 OFFCURVE",
"1052 1346 CURVE SMOOTH",
"1408 1346 OFFCURVE",
"1790 1132 OFFCURVE",
"1790 696 CURVE SMOOTH",
"1790 258 OFFCURVE",
"1408 44 OFFCURVE",
"1052 44 CURVE SMOOTH"
);
}
);
width = 2100;
},
{
anchors = (
{
name = bottom;
position = "{440, 0}";
},
{
name = center;
position = "{440, 700}";
},
{
name = ogonek;
position = "{458, -2}";
},
{
name = top;
position = "{450, 1400}";
},
{
name = topleft;
position = "{98, 1400}";
},
{
name = topright;
position = "{593, 1320}";
}
);
layerId = "C5C974ED-4386-41E8-AA57-C40E24C26BBD";
paths = (
{
closed = 1;
nodes = (
"694 -22 OFFCURVE",
"836 158 OFFCURVE",
"836 696 CURVE SMOOTH",
"836 1232 OFFCURVE",
"694 1412 OFFCURVE",
"440 1412 CURVE SMOOTH",
"186 1412 OFFCURVE",
"42 1232 OFFCURVE",
"42 696 CURVE SMOOTH",
"42 158 OFFCURVE",
"186 -22 OFFCURVE",
"440 -22 CURVE SMOOTH"
);
},
{
closed = 1;
nodes = (
"386 234 OFFCURVE",
"386 356 OFFCURVE",
"386 696 CURVE SMOOTH",
"386 1034 OFFCURVE",
"386 1156 OFFCURVE",
"440 1156 CURVE SMOOTH",
"494 1156 OFFCURVE",
"494 1034 OFFCURVE",
"494 696 CURVE SMOOTH",
"494 356 OFFCURVE",
"494 234 OFFCURVE",
"440 234 CURVE SMOOTH"
);
}
);
width = 900;
},
{
anchors = (
{
name = bottom;
position = "{1014, 0}";
},
{
name = center;
position = "{1028, 700}";
},
{
name = ogonek;
position = "{1059, -7}";
},
{
name = top;
position = "{1012, 1400}";
},
{
name = topleft;
position = "{40, 1400}";
},
{
name = topright;
position = "{1408, 1320}";
}
);
layerId = "DF71BB49-08D0-48AB-8F46-D55A70C0C2BD";
paths = (
{
closed = 1;
nodes = (
"1629 -22 OFFCURVE",
"1947 279 OFFCURVE",
"1947 696 CURVE SMOOTH",
"1947 1111 OFFCURVE",
"1629 1412 OFFCURVE",
"1030 1412 CURVE SMOOTH",
"430 1412 OFFCURVE",
"109 1111 OFFCURVE",
"109 696 CURVE SMOOTH",
"109 279 OFFCURVE",
"430 -22 OFFCURVE",
"1030 -22 CURVE SMOOTH"
);
},
{
closed = 1;
nodes = (
"687 302 OFFCURVE",
"560 527 OFFCURVE",
"560 696 CURVE SMOOTH",
"560 863 OFFCURVE",
"687 1088 OFFCURVE",
"1030 1088 CURVE SMOOTH",
"1372 1088 OFFCURVE",
"1499 863 OFFCURVE",
"1499 696 CURVE SMOOTH",
"1499 527 OFFCURVE",
"1372 302 OFFCURVE",
"1030 302 CURVE SMOOTH"
);
}
);
width = 2100;
}
);
leftKerningGroup = O;
rightKerningGroup = O;
unicode = 004F;
},
{
glyphname = OE;
lastChange = "2020-04-30 15:52:17 +0000";
layers = (
{
anchors = (
{
name = bottom;
position = "{450, 0}";
},
{
name = top;
position = "{450, 1400}";
}
);
layerId = "2E286313-D5BF-4FB4-A4B7-BD9BC13B574E";
paths = (
{
closed = 1;
nodes = (
"402 -22 OFFCURVE",
"446 -16 OFFCURVE",
"478 0 CURVE",
"472 68 LINE",
"438 50 OFFCURVE",
"404 44 OFFCURVE",
"366 44 CURVE SMOOTH",
"256 44 OFFCURVE",
"132 158 OFFCURVE",
"132 696 CURVE SMOOTH",
"132 1232 OFFCURVE",
"256 1346 OFFCURVE",
"366 1346 CURVE SMOOTH",
"404 1346 OFFCURVE",
"438 1340 OFFCURVE",
"472 1322 CURVE",
"466 1400 LINE",
"436 1408 OFFCURVE",
"402 1412 OFFCURVE",
"366 1412 CURVE SMOOTH",
"236 1412 OFFCURVE",
"56 1290 OFFCURVE",
"56 696 CURVE SMOOTH",
"56 100 OFFCURVE",
"236 -22 OFFCURVE",
"366 -22 CURVE SMOOTH"
);
},
{
closed = 1;
nodes = (
"862 1400 LINE",
"466 1400 LINE",
"466 0 LINE",
"862 0 LINE",
"862 64 LINE",
"536 64 LINE",
"536 656 LINE",
"844 656 LINE",
"844 720 LINE",
"536 720 LINE",
"536 1336 LINE",
"862 1336 LINE"
);
}
);
width = 900;
},
{
anchors = (
{
name = bottom;
position = "{1050, 0}";
},
{
name = top;
position = "{1050, 1400}";
}
);
layerId = "E338D14E-1DA5-418D-88BC-8956EEA80AB9";
paths = (
{
closed = 1;
nodes = (
"896 -22 OFFCURVE",
"998 -16 OFFCURVE",
"1074 0 CURVE",
"1058 68 LINE",
"980 50 OFFCURVE",
"900 44 OFFCURVE",
"812 44 CURVE SMOOTH",
"556 44 OFFCURVE",
"238 158 OFFCURVE",
"238 696 CURVE SMOOTH",
"238 1232 OFFCURVE",
"556 1346 OFFCURVE",
"812 1346 CURVE SMOOTH",
"900 1346 OFFCURVE",
"980 1340 OFFCURVE",
"1058 1322 CURVE",
"1046 1400 LINE",
"968 1412 OFFCURVE",
"896 1412 OFFCURVE",
"812 1412 CURVE SMOOTH",
"508 1412 OFFCURVE",
"160 1290 OFFCURVE",
"160 696 CURVE SMOOTH",
"160 100 OFFCURVE",
"508 -22 OFFCURVE",
"812 -22 CURVE SMOOTH"
);
},
{
closed = 1;
nodes = (
"1968 1400 LINE",
"1046 1400 LINE",
"1046 0 LINE",
"1968 0 LINE",
"1968 64 LINE",
"1114 64 LINE",
"1114 656 LINE",
"1884 656 LINE",
"1884 720 LINE",
"1114 720 LINE",
"1114 1336 LINE",
"1968 1336 LINE"
);
}
);
width = 2100;
},
{
anchors = (
{
name = bottom;
position = "{408, 0}";
},
{
name = top;
position = "{408, 1400}";
}
);
layerId = "C5C974ED-4386-41E8-AA57-C40E24C26BBD";
paths = (
{
closed = 1;
nodes = (
"370 -22 OFFCURVE",
"418 -6 OFFCURVE",
"462 38 CURVE",
"354 276 LINE",
"338 240 OFFCURVE",
"334 224 OFFCURVE",
"314 224 CURVE SMOOTH",
"274 224 OFFCURVE",
"288 288 OFFCURVE",
"288 696 CURVE SMOOTH",
"288 1102 OFFCURVE",
"274 1166 OFFCURVE",
"314 1166 CURVE SMOOTH",
"336 1166 OFFCURVE",
"338 1152 OFFCURVE",
"354 1112 CURVE",
"484 1338 LINE",
"438 1390 OFFCURVE",
"376 1412 OFFCURVE",
"314 1412 CURVE SMOOTH",
"156 1412 OFFCURVE",
"-28 1310 OFFCURVE",
"-28 696 CURVE SMOOTH",
"-28 80 OFFCURVE",
"156 -22 OFFCURVE",
"314 -22 CURVE SMOOTH"
);
},
{
closed = 1;
nodes = (
"814 1400 LINE",
"334 1400 LINE",
"334 0 LINE",
"814 0 LINE",
"814 244 LINE",
"664 244 LINE",
"664 566 LINE",
"788 566 LINE",
"788 810 LINE",
"664 810 LINE",
"664 1156 LINE",
"814 1156 LINE"
);
}
);
width = 900;
},
{
anchors = (
{
name = bottom;
position = "{993, 0}";
},
{
name = top;
position = "{993, 1400}";
}
);
layerId = "DF71BB49-08D0-48AB-8F46-D55A70C0C2BD";
paths = (
{
closed = 1;
nodes = (
"854 -22 OFFCURVE",
"960 -2 OFFCURVE",
"1052 52 CURVE",
"898 350 LINE",
"844 308 OFFCURVE",
"805 288 OFFCURVE",
"741 288 CURVE SMOOTH",
"580 288 OFFCURVE",
"450 335 OFFCURVE",
"450 696 CURVE SMOOTH",
"450 1055 OFFCURVE",
"580 1102 OFFCURVE",
"741 1102 CURVE SMOOTH",
"807 1102 OFFCURVE",
"844 1085 OFFCURVE",
"898 1037 CURVE",
"1070 1316 LINE",
"973 1386 OFFCURVE",
"864 1412 OFFCURVE",
"741 1412 CURVE SMOOTH",
"400 1412 OFFCURVE",
"46 1317 OFFCURVE",
"46 696 CURVE SMOOTH",
"46 73 OFFCURVE",
"400 -22 OFFCURVE",
"741 -22 CURVE SMOOTH"
);
},
{
closed = 1;
nodes = (
"1903 1400 LINE",
"867 1400 LINE",
"867 0 LINE",
"1903 0 LINE",
"1903 308 LINE",
"1288 308 LINE",
"1288 534 LINE",
"1808 534 LINE",
"1808 842 LINE",
"1288 842 LINE",
"1288 1092 LINE",
"1903 1092 LINE"
);
}
);
width = 2100;
}
);
unicode = 0152;
},
{
glyphname = P;
lastChange = "2020-04-30 20:42:38 +0000";
layers = (
{
anchors = (
{
name = bottom;
position = "{286, 0}";
},
{
name = top;
position = "{286, 1400}";
}
);
layerId = "2E286313-D5BF-4FB4-A4B7-BD9BC13B574E";
paths = (
{
closed = 1;
nodes = (
"276 0 LINE",
"276 500 LINE",
"458 500 LINE SMOOTH",
"570 500 OFFCURVE",
"774 576 OFFCURVE",
"774 958 CURVE SMOOTH",
"774 1340 OFFCURVE",
"570 1400 OFFCURVE",
"458 1400 CURVE SMOOTH",
"206 1400 LINE",
"206 0 LINE"
);
},
{
closed = 1;
nodes = (
"276 1336 LINE",
"462 1336 LINE SMOOTH",
"564 1336 OFFCURVE",
"702 1286 OFFCURVE",
"702 958 CURVE SMOOTH",
"702 630 OFFCURVE",
"564 564 OFFCURVE",
"462 564 CURVE SMOOTH",
"276 564 LINE"
);
}
);
width = 900;
},
{
anchors = (
{
name = bottom;
position = "{1050, 0}";
},
{
name = top;
position = "{1050, 1400}";
}
);
layerId = "E338D14E-1DA5-418D-88BC-8956EEA80AB9";
paths = (
{
closed = 1;
nodes = (
"554 0 LINE",
"554 500 LINE",
"1128 500 LINE SMOOTH",
"1422 500 OFFCURVE",
"1812 536 OFFCURVE",
"1812 958 CURVE SMOOTH",
"1812 1380 OFFCURVE",
"1422 1400 OFFCURVE",
"1128 1400 CURVE SMOOTH",
"488 1400 LINE",
"488 0 LINE"
);
},
{
closed = 1;
nodes = (
"554 1336 LINE",
"1172 1336 LINE SMOOTH",
"1400 1336 OFFCURVE",
"1736 1326 OFFCURVE",
"1736 958 CURVE SMOOTH",
"1736 590 OFFCURVE",
"1400 564 OFFCURVE",
"1172 564 CURVE SMOOTH",
"554 564 LINE"
);
}
);
width = 2100;
},
{
anchors = (
{
name = bottom;
position = "{336, 0}";
},
{
name = top;
position = "{336, 1400}";
}
);
layerId = "C5C974ED-4386-41E8-AA57-C40E24C26BBD";
paths = (
{
closed = 1;
nodes = (
"422 0 LINE",
"422 470 LINE",
"430 470 LINE SMOOTH",
"538 470 OFFCURVE",
"826 540 OFFCURVE",
"826 958 CURVE SMOOTH",
"826 1346 OFFCURVE",
"538 1400 OFFCURVE",
"430 1400 CURVE SMOOTH",
"88 1400 LINE",
"88 0 LINE"
);
},
{
closed = 1;
nodes = (
"422 1156 LINE",
"432 1156 LINE SMOOTH",
"482 1156 OFFCURVE",
"496 1088 OFFCURVE",
"496 944 CURVE SMOOTH",
"496 770 OFFCURVE",
"482 714 OFFCURVE",
"432 714 CURVE SMOOTH",
"422 714 LINE"
);
}
);
width = 900;
},
{
anchors = (
{
name = bottom;
position = "{1118, 0}";
},
{
name = top;
position = "{1118, 1400}";
}
);
layerId = "DF71BB49-08D0-48AB-8F46-D55A70C0C2BD";
paths = (
{
closed = 1;
nodes = (
"747 0 LINE",
"747 458 LINE",
"1130 458 LINE SMOOTH",
"1323 458 OFFCURVE",
"1898 458 OFFCURVE",
"1898 928 CURVE SMOOTH",
"1898 1400 OFFCURVE",
"1321 1400 OFFCURVE",
"1130 1400 CURVE SMOOTH",
"327 1400 LINE",
"327 0 LINE"
);
},
{
closed = 1;
nodes = (
"747 1107 LINE",
"1104 1107 LINE SMOOTH",
"1306 1107 OFFCURVE",
"1476 1080 OFFCURVE",
"1476 928 CURVE SMOOTH",
"1476 775 OFFCURVE",
"1303 751 OFFCURVE",
"1104 751 CURVE SMOOTH",
"747 751 LINE"
);
}
);
width = 2100;
}
);
leftKerningGroup = H;
rightKerningGroup = P;
unicode = 0050;
},
{
glyphname = Thorn;
lastChange = "2020-04-30 15:52:17 +0000";
layers = (
{
anchors = (
{
name = bottom;
position = "{450, 0}";
},
{
name = top;
position = "{450, 1400}";
}
);
layerId = "2E286313-D5BF-4FB4-A4B7-BD9BC13B574E";
paths = (
{
closed = 1;
nodes = (
"266 1176 LINE",
"266 1400 LINE",
"196 1400 LINE",
"196 0 LINE",
"266 0 LINE",
"266 256 LINE",
"444 256 LINE SMOOTH",
"570 256 OFFCURVE",
"760 292 OFFCURVE",
"760 734 CURVE SMOOTH",
"760 1156 OFFCURVE",
"570 1176 OFFCURVE",
"444 1176 CURVE SMOOTH"
);
},
{
closed = 1;
nodes = (
"266 320 LINE",
"266 1112 LINE",
"462 1112 LINE SMOOTH",
"560 1112 OFFCURVE",
"690 1102 OFFCURVE",
"690 734 CURVE SMOOTH",
"690 346 OFFCURVE",
"560 320 OFFCURVE",
"462 320 CURVE SMOOTH"
);
}
);
width = 900;
},
{
anchors = (
{
name = bottom;
position = "{1050, 0}";
},
{
name = top;
position = "{1050, 1400}";
}
);
layerId = "E338D14E-1DA5-418D-88BC-8956EEA80AB9";
paths = (
{
closed = 1;
nodes = (
"534 1176 LINE",
"534 1400 LINE",
"468 1400 LINE",
"468 0 LINE",
"534 0 LINE",
"534 256 LINE",
"988 256 LINE SMOOTH",
"1282 256 OFFCURVE",
"1678 292 OFFCURVE",
"1678 734 CURVE SMOOTH",
"1678 1156 OFFCURVE",
"1282 1176 OFFCURVE",
"988 1176 CURVE SMOOTH"
);
},
{
closed = 1;
nodes = (
"534 320 LINE",
"534 1112 LINE",
"1032 1112 LINE SMOOTH",
"1260 1112 OFFCURVE",
"1602 1102 OFFCURVE",
"1602 734 CURVE SMOOTH",
"1602 346 OFFCURVE",
"1260 320 OFFCURVE",
"1032 320 CURVE SMOOTH"
);
}
);
width = 2100;
},
{
anchors = (
{
name = bottom;
position = "{408, 0}";
},
{
name = top;
position = "{408, 1400}";
}
);
layerId = "C5C974ED-4386-41E8-AA57-C40E24C26BBD";
paths = (
{
closed = 1;
nodes = (
"384 1176 LINE",
"384 1400 LINE",
"76 1400 LINE",
"76 0 LINE",
"384 0 LINE",
"384 256 LINE",
"392 256 LINE SMOOTH",
"508 256 OFFCURVE",
"772 292 OFFCURVE",
"772 734 CURVE SMOOTH",
"772 1156 OFFCURVE",
"508 1176 OFFCURVE",
"392 1176 CURVE SMOOTH"
);
},
{
closed = 1;
nodes = (
"384 480 LINE",
"384 952 LINE",
"370 952 LINE SMOOTH",
"458 952 OFFCURVE",
"466 942 OFFCURVE",
"466 734 CURVE SMOOTH",
"466 506 OFFCURVE",
"458 480 OFFCURVE",
"370 480 CURVE SMOOTH"
);
}
);
width = 900;
},
{
anchors = (
{
name = bottom;
position = "{993, 0}";
},
{
name = top;
position = "{993, 1400}";
}
);
layerId = "DF71BB49-08D0-48AB-8F46-D55A70C0C2BD";
paths = (
{
closed = 1;
nodes = (
"694 1176 LINE",
"694 1400 LINE",
"305 1400 LINE",
"305 0 LINE",
"694 0 LINE",
"694 256 LINE",
"917 256 LINE SMOOTH",
"1101 256 OFFCURVE",
"1694 256 OFFCURVE",
"1694 734 CURVE SMOOTH",
"1694 1176 OFFCURVE",
"1140 1176 OFFCURVE",
"917 1176 CURVE SMOOTH"
);
},
{
closed = 1;
nodes = (
"694 537 LINE",
"694 895 LINE",
"907 895 LINE SMOOTH",
"1121 895 OFFCURVE",
"1298 885 OFFCURVE",
"1298 734 CURVE SMOOTH",
"1298 563 OFFCURVE",
"1121 537 OFFCURVE",
"907 537 CURVE SMOOTH"
);
}
);
width = 2100;
}
);
unicode = 00DE;
},
{
glyphname = Q;
lastChange = "2020-04-30 15:52:17 +0000";
layers = (
{
anchors = (
{
name = bottom;
position = "{600, 0}";
},
{
name = top;
position = "{600, 1400}";
}
);
components = (
{
name = O;
}
);
layerId = "2E286313-D5BF-4FB4-A4B7-BD9BC13B574E";
paths = (
{
closed = 1;
nodes = (
"814 -52 LINE",
"654 108 LINE",
"602 54 LINE",
"760 -104 LINE"
);
}
);
width = 900;
},
{
anchors = (
{
name = bottom;
position = "{1050, 0}";
},
{
name = top;
position = "{1050, 1400}";
}
);
components = (
{
name = O;
}
);
layerId = "E338D14E-1DA5-418D-88BC-8956EEA80AB9";
paths = (
{
closed = 1;
nodes = (
"1774 -144 LINE",
"1488 130 LINE",
"1432 70 LINE",
"1714 -200 LINE"
);
}
);
width = 2100;
},
{
anchors = (
{
name = bottom;
position = "{476, 0}";
},
{
name = top;
position = "{476, 1400}";
}
);
components = (
{
alignment = -1;
name = O;
}
);
layerId = "C5C974ED-4386-41E8-AA57-C40E24C26BBD";
paths = (
{
closed = 1;
nodes = (
"872 8 LINE",
"584 300 LINE",
"378 92 LINE",
"662 -194 LINE"
);
}
);
width = 900;
},
{
anchors = (
{
name = bottom;
position = "{882, 0}";
},
{
name = top;
position = "{882, 1400}";
}
);
components = (
{
alignment = -1;
name = O;
}
);
layerId = "DF71BB49-08D0-48AB-8F46-D55A70C0C2BD";
paths = (
{
closed = 1;
nodes = (
"1853 -63 LINE",
"1393 391 LINE",
"1128 122 LINE",
"1581 -322 LINE"
);
}
);
width = 2100;
}
);
unicode = 0051;
},
{
glyphname = Q.ss01;
lastChange = "2020-04-30 20:52:28 +0000";
layers = (
{
anchors = (
{
name = bottom;
position = "{450, 0}";
},
{
name = top;
position = "{450, 1400}";
}
);
components = (
{
name = O;
transform = "{1, 0, 0, 1, -10, 0}";
}
);
layerId = "2E286313-D5BF-4FB4-A4B7-BD9BC13B574E";
paths = (
{
closed = 1;
nodes = (
"844 -132 LINE",
"828 -12 OFFCURVE",
"682 110 OFFCURVE",
"518 48 CURVE",
"532 -10 LINE",
"644 32 OFFCURVE",
"770 -46 OFFCURVE",
"784 -176 CURVE"
);
}
);
width = 900;
},
{
anchors = (
{
name = bottom;
position = "{1054, 0}";
},
{
name = top;
position = "{1054, 1400}";
}
);
components = (
{
name = O;
}
);
layerId = "E338D14E-1DA5-418D-88BC-8956EEA80AB9";
paths = (
{
closed = 1;
nodes = (
"1658 -146 LINE",
"1616 32 OFFCURVE",
"1368 94 OFFCURVE",
"1188 48 CURVE",
"1206 -10 LINE",
"1356 32 OFFCURVE",
"1556 -28 OFFCURVE",
"1602 -196 CURVE"
);
}
);
width = 2100;
},
{
anchors = (
{
name = bottom;
position = "{408, 0}";
},
{
name = top;
position = "{408, 1400}";
}
);
components = (
{
name = O;
}
);
layerId = "C5C974ED-4386-41E8-AA57-C40E24C26BBD";
paths = (
{
closed = 1;
nodes = (
"948 -130 LINE",
"936 74 OFFCURVE",
"792 290 OFFCURVE",
"440 218 CURVE",
"486 -16 LINE",
"638 16 OFFCURVE",
"708 -158 OFFCURVE",
"728 -318 CURVE"
);
}
);
width = 900;
},
{
anchors = (
{
name = bottom;
position = "{997, 0}";
},
{
name = top;
position = "{997, 1400}";
}
);
components = (
{
name = O;
transform = "{1, 0, 0, 1, -30, 0}";
}
);
layerId = "DF71BB49-08D0-48AB-8F46-D55A70C0C2BD";
paths = (
{
closed = 1;
nodes = (
"1878 -143 LINE",
"1878 78 OFFCURVE",
"1705 279 OFFCURVE",
"1271 279 CURVE",
"1144 -13 LINE",
"1435 -13 OFFCURVE",
"1526 -100 OFFCURVE",
"1526 -337 CURVE"
);
}
);
width = 2100;
}
);
leftKerningGroup = O;
rightKerningGroup = O;
},
{
glyphname = R;
lastChange = "2020-04-30 21:15:06 +0000";
layers = (
{
anchors = (
{
name = bottom;
position = "{400, 0}";
},
{
name = top;
position = "{400, 1400}";
}
);
layerId = "2E286313-D5BF-4FB4-A4B7-BD9BC13B574E";
paths = (
{
closed = 1;
nodes = (
"476 1336 LINE SMOOTH",
"606 1336 OFFCURVE",
"658 1206 OFFCURVE",
"658 988 CURVE SMOOTH",
"658 768 OFFCURVE",
"612 624 OFFCURVE",
"482 624 CURVE SMOOTH",
"290 624 LINE",
"290 1336 LINE"
);
},
{
closed = 1;
nodes = (
"612 560 OFFCURVE",
"726 688 OFFCURVE",
"726 988 CURVE SMOOTH",
"726 1286 OFFCURVE",
"624 1400 OFFCURVE",
"472 1400 CURVE SMOOTH",
"224 1400 LINE",
"224 0 LINE",
"290 0 LINE",
"290 560 LINE",
"526 560 LINE SMOOTH"
);
},
{
closed = 1;
nodes = (
"714 0 LINE",
"564 626 LINE",
"508 586 LINE",
"644 0 LINE"
);
}
);
width = 900;
},
{
anchors = (
{
name = bottom;
position = "{1050, 0}";
},
{
name = top;
position = "{1050, 1400}";
}
);
layerId = "E338D14E-1DA5-418D-88BC-8956EEA80AB9";
paths = (
{
closed = 1;
nodes = (
"1346 1336 LINE SMOOTH",
"1574 1336 OFFCURVE",
"1730 1266 OFFCURVE",
"1730 1028 CURVE SMOOTH",
"1730 788 OFFCURVE",
"1580 704 OFFCURVE",
"1364 704 CURVE SMOOTH",
"520 704 LINE",
"520 1336 LINE"
);
},
{
closed = 1;
nodes = (
"1616 640 OFFCURVE",
"1806 750 OFFCURVE",
"1806 1028 CURVE SMOOTH",
"1806 1326 OFFCURVE",
"1596 1400 OFFCURVE",
"1302 1400 CURVE SMOOTH",
"448 1400 LINE",
"448 0 LINE",
"520 0 LINE",
"520 640 LINE",
"1342 640 LINE SMOOTH"
);
},
{
closed = 1;
nodes = (
"1782 0 LINE",
"1384 666 LINE",
"1300 666 LINE",
"1698 0 LINE"
);
}
);
width = 2100;
},
{
anchors = (
{
name = bottom;
position = "{406, 0}";
},
{
name = top;
position = "{406, 1400}";
}
);
layerId = "C5C974ED-4386-41E8-AA57-C40E24C26BBD";
paths = (
{
closed = 1;
nodes = (
"432 1156 LINE",
"475 1156 OFFCURVE",
"492 1078 OFFCURVE",
"492 976 CURVE SMOOTH",
"492 848 OFFCURVE",
"475 768 OFFCURVE",
"428 768 CURVE",
"422 768 LINE",
"422 1156 LINE"
);
},
{
closed = 1;
nodes = (
"627 524 OFFCURVE",
"830 590 OFFCURVE",
"830 980 CURVE SMOOTH",
"830 1342 OFFCURVE",
"643 1400 OFFCURVE",
"424 1400 CURVE SMOOTH",
"88 1400 LINE",
"88 0 LINE",
"422 0 LINE",
"422 524 LINE",
"432 524 LINE SMOOTH"
);
},
{
closed = 1;
nodes = (
"828 0 LINE",
"729 708 LINE",
"439 590 LINE",
"480 0 LINE"
);
}
);
width = 900;
},
{
anchors = (
{
name = bottom;
position = "{1058, 0}";
},
{
name = top;
position = "{1058, 1400}";
}
);
layerId = "DF71BB49-08D0-48AB-8F46-D55A70C0C2BD";
paths = (
{
closed = 1;
nodes = (
"1286 1092 LINE SMOOTH",
"1450 1092 OFFCURVE",
"1504 997 OFFCURVE",
"1504 917 CURVE SMOOTH",
"1504 788 OFFCURVE",
"1432 737 OFFCURVE",
"1290 737 CURVE SMOOTH",
"699 737 LINE",
"699 1092 LINE"
);
},
{
closed = 1;
nodes = (
"1538 428 OFFCURVE",
"1947 472 OFFCURVE",
"1947 922 CURVE SMOOTH",
"1947 1327 OFFCURVE",
"1583 1400 OFFCURVE",
"1236 1400 CURVE SMOOTH",
"263 1400 LINE",
"263 0 LINE",
"699 0 LINE",
"699 428 LINE",
"1214 428 LINE SMOOTH"
);
},
{
closed = 1;
nodes = (
"1936 0 LINE",
"1608 614 LINE",
"1220 509 LINE",
"1475 0 LINE"
);
}
);
width = 2100;
}
);
leftKerningGroup = H;
rightKerningGroup = R;
unicode = 0052;
},
{
glyphname = S;
lastChange = "2020-04-30 21:16:01 +0000";
layers = (
{
anchors = (
{
name = bottom;
position = "{470, 0}";
},
{
name = top;
position = "{482, 1400}";
}
);
layerId = "2E286313-D5BF-4FB4-A4B7-BD9BC13B574E";
paths = (
{
closed = 1;
nodes = (
"638 -22 OFFCURVE",
"794 114 OFFCURVE",
"794 330 CURVE SMOOTH",
"794 542 OFFCURVE",
"646 658 OFFCURVE",
"484 764 CURVE SMOOTH",
"348 852 OFFCURVE",
"268 964 OFFCURVE",
"268 1104 CURVE SMOOTH",
"268 1240 OFFCURVE",
"358 1346 OFFCURVE",
"482 1346 CURVE SMOOTH",
"638 1346 OFFCURVE",
"694 1218 OFFCURVE",
"710 1114 CURVE",
"774 1142 LINE",
"754 1258 OFFCURVE",
"658 1412 OFFCURVE",
"482 1412 CURVE SMOOTH",
"318 1412 OFFCURVE",
"200 1272 OFFCURVE",
"200 1104 CURVE SMOOTH",
"200 932 OFFCURVE",
"282 816 OFFCURVE",
"456 702 CURVE SMOOTH",
"660 568 OFFCURVE",
"724 474 OFFCURVE",
"724 312 CURVE SMOOTH",
"724 180 OFFCURVE",
"642 44 OFFCURVE",
"470 44 CURVE SMOOTH",
"310 44 OFFCURVE",
"238 182 OFFCURVE",
"221 284 CURVE",
"157 248 LINE",
"182 130 OFFCURVE",
"282 -22 OFFCURVE",
"470 -22 CURVE SMOOTH"
);
}
);
width = 900;
},
{
anchors = (
{
name = bottom;
position = "{1072, 0}";
},
{
name = top;
position = "{1050, 1400}";
}
);
layerId = "E338D14E-1DA5-418D-88BC-8956EEA80AB9";
paths = (
{
closed = 1;
nodes = (
"1554 -22 OFFCURVE",
"1858 106 OFFCURVE",
"1858 337 CURVE SMOOTH",
"1858 560 OFFCURVE",
"1555 655 OFFCURVE",
"1053 742 CURVE SMOOTH",
"695 804 OFFCURVE",
"422 880 OFFCURVE",
"422 1056 CURVE SMOOTH",
"422 1250 OFFCURVE",
"754 1346 OFFCURVE",
"1090 1346 CURVE SMOOTH",
"1426 1346 OFFCURVE",
"1650 1250 OFFCURVE",
"1758 1176 CURVE",
"1808 1232 LINE",
"1682 1320 OFFCURVE",
"1454 1412 OFFCURVE",
"1090 1412 CURVE SMOOTH",
"666 1412 OFFCURVE",
"342 1285 OFFCURVE",
"342 1058 CURVE SMOOTH",
"342 835 OFFCURVE",
"603 756 OFFCURVE",
"1041 676 CURVE SMOOTH",
"1523 588 OFFCURVE",
"1778 516 OFFCURVE",
"1778 334 CURVE SMOOTH",
"1778 150 OFFCURVE",
"1496 44 OFFCURVE",
"1048 44 CURVE SMOOTH",
"682 44 OFFCURVE",
"418 160 OFFCURVE",
"312 244 CURVE",
"262 188 LINE",
"380 106 OFFCURVE",
"634 -22 OFFCURVE",
"1048 -22 CURVE SMOOTH"
);
}
);
width = 2100;
},
{
anchors = (
{
name = bottom;
position = "{418, -2}";
},
{
name = top;
position = "{442, 1400}";
}
);
layerId = "C5C974ED-4386-41E8-AA57-C40E24C26BBD";
paths = (
{
closed = 1;
nodes = (
"612 -22 OFFCURVE",
"812 64 OFFCURVE",
"812 360 CURVE SMOOTH",
"812 582 OFFCURVE",
"659 710 OFFCURVE",
"537 811 CURVE SMOOTH",
"441 890 OFFCURVE",
"386 960 OFFCURVE",
"386 1048 CURVE SMOOTH",
"386 1126 OFFCURVE",
"412 1156 OFFCURVE",
"452 1156 CURVE SMOOTH",
"500 1156 OFFCURVE",
"526 1060 OFFCURVE",
"538 966 CURVE",
"808 1110 LINE",
"778 1271 OFFCURVE",
"677 1412 OFFCURVE",
"442 1412 CURVE SMOOTH",
"245 1412 OFFCURVE",
"52 1302 OFFCURVE",
"52 1048 CURVE SMOOTH",
"52 807 OFFCURVE",
"207 679 OFFCURVE",
"315 593 CURVE SMOOTH",
"400 525 OFFCURVE",
"476 450 OFFCURVE",
"476 350 CURVE SMOOTH",
"476 277 OFFCURVE",
"465 234 OFFCURVE",
"415 234 CURVE SMOOTH",
"359 234 OFFCURVE",
"332 328 OFFCURVE",
"316 420 CURVE",
"30 272 LINE",
"86 92 OFFCURVE",
"210 -22 OFFCURVE",
"416 -22 CURVE SMOOTH"
);
}
);
width = 900;
},
{
anchors = (
{
name = bottom;
position = "{1001, -3}";
},
{
name = top;
position = "{996, 1400}";
}
);
layerId = "DF71BB49-08D0-48AB-8F46-D55A70C0C2BD";
paths = (
{
closed = 1;
nodes = (
"1367 -22 OFFCURVE",
"1899 71 OFFCURVE",
"1899 440 CURVE SMOOTH",
"1899 784 OFFCURVE",
"1411 834 OFFCURVE",
"1062 854 CURVE SMOOTH",
"744 872 OFFCURVE",
"610 915 OFFCURVE",
"610 990 CURVE SMOOTH",
"610 1070 OFFCURVE",
"812 1108 OFFCURVE",
"1024 1108 CURVE SMOOTH",
"1252 1108 OFFCURVE",
"1441 1057 OFFCURVE",
"1540 1020 CURVE",
"1789 1305 LINE",
"1645 1350 OFFCURVE",
"1345 1412 OFFCURVE",
"1056 1412 CURVE SMOOTH",
"646 1412 OFFCURVE",
"165 1317 OFFCURVE",
"165 990 CURVE SMOOTH",
"165 678 OFFCURVE",
"546 568 OFFCURVE",
"915 549 CURVE SMOOTH",
"1265 531 OFFCURVE",
"1453 491 OFFCURVE",
"1453 410 CURVE SMOOTH",
"1453 328 OFFCURVE",
"1239 282 OFFCURVE",
"979 282 CURVE SMOOTH",
"701 282 OFFCURVE",
"471 349 OFFCURVE",
"373 400 CURVE",
"116 111 LINE",
"273 52 OFFCURVE",
"607 -22 OFFCURVE",
"956 -22 CURVE SMOOTH"
);
}
);
width = 2100;
}
);
leftKerningGroup = S;
rightKerningGroup = S;
unicode = 0053;
},
{
glyphname = Germandbls;
lastChange = "2020-04-30 21:19:15 +0000";
layers = (
{
layerId = "C5C974ED-4386-41E8-AA57-C40E24C26BBD";
paths = (
{
closed = 1;
nodes = (
"839 1132 LINE",
"839 1400 LINE",
"36 1400 LINE",
"36 0 LINE",
"342 0 LINE",
"342 1132 LINE",
"492 1132 LINE",
"366 837 LINE",
"480 689 OFFCURVE",
"524 565 OFFCURVE",
"524 389 CURVE SMOOTH",
"524 299 OFFCURVE",
"518 244 OFFCURVE",
"475 244 CURVE SMOOTH",
"445 244 OFFCURVE",
"424 254 OFFCURVE",
"390 282 CURVE",
"354 2 LINE",
"396 -16 OFFCURVE",
"440 -21 OFFCURVE",
"490 -21 CURVE SMOOTH",
"744 -21 OFFCURVE",
"844 106 OFFCURVE",
"844 404 CURVE SMOOTH",
"844 649 OFFCURVE",
"786 719 OFFCURVE",
"693 821 CURVE"
);
}
);
width = 900;
},
{
layerId = "2E286313-D5BF-4FB4-A4B7-BD9BC13B574E";
paths = (
{
closed = 1;
nodes = (
"716 1334 LINE",
"716 1400 LINE",
"122 1400 LINE",
"122 0 LINE",
"188 0 LINE",
"188 1334 LINE",
"645 1334 LINE",
"424 862 LINE",
"549 760 OFFCURVE",
"664 663 OFFCURVE",
"664 393 CURVE SMOOTH",
"664 103 OFFCURVE",
"574 44 OFFCURVE",
"454 44 CURVE SMOOTH",
"400 44 OFFCURVE",
"346 60 OFFCURVE",
"318 70 CURVE",
"304 4 LINE",
"350 -10 OFFCURVE",
"396 -22 OFFCURVE",
"454 -22 CURVE SMOOTH",
"636 -22 OFFCURVE",
"738 96 OFFCURVE",
"738 394 CURVE SMOOTH",
"738 690 OFFCURVE",
"565 833 OFFCURVE",
"503 882 CURVE"
);
}
);
width = 900;
},
{
layerId = "E338D14E-1DA5-418D-88BC-8956EEA80AB9";
paths = (
{
closed = 1;
nodes = (
"1637 1331 LINE",
"1637 1400 LINE",
"352 1400 LINE",
"352 0 LINE",
"422 0 LINE",
"422 1330 LINE",
"1531 1330 LINE",
"1019 878 LINE",
"1235 839 OFFCURVE",
"1804 714 OFFCURVE",
"1804 404 CURVE SMOOTH",
"1804 114 OFFCURVE",
"1410 44 OFFCURVE",
"1130 44 CURVE SMOOTH",
"1002 44 OFFCURVE",
"860 72 OFFCURVE",
"800 82 CURVE",
"780 10 LINE",
"866 -4 OFFCURVE",
"994 -22 OFFCURVE",
"1130 -22 CURVE SMOOTH",
"1554 -22 OFFCURVE",
"1886 106 OFFCURVE",
"1886 404 CURVE SMOOTH",
"1886 740 OFFCURVE",
"1360 876 OFFCURVE",
"1154 915 CURVE"
);
}
);
width = 2100;
},
{
layerId = "DF71BB49-08D0-48AB-8F46-D55A70C0C2BD";
paths = (
{
closed = 1;
nodes = (
"1764 1057 LINE",
"1764 1400 LINE",
"195 1400 LINE",
"195 0 LINE",
"591 0 LINE",
"591 1056 LINE",
"1210 1056 LINE",
"780 677 LINE",
"1028 659 OFFCURVE",
"1522 594 OFFCURVE",
"1522 468 CURVE SMOOTH",
"1522 345 OFFCURVE",
"1293 315 OFFCURVE",
"1118 315 CURVE SMOOTH",
"1024 315 OFFCURVE",
"875 335 OFFCURVE",
"817 350 CURVE",
"768 7 LINE",
"848 -12 OFFCURVE",
"1012 -21 OFFCURVE",
"1139 -21 CURVE SMOOTH",
"1661 -21 OFFCURVE",
"1935 117 OFFCURVE",
"1935 415 CURVE SMOOTH",
"1935 693 OFFCURVE",
"1634 827 OFFCURVE",
"1428 827 CURVE"
);
}
);
width = 2100;
}
);
unicode = 1E9E;
},
{
glyphname = Schwa;
lastChange = "2020-04-30 20:35:06 +0000";
layers = (
{
layerId = "C5C974ED-4386-41E8-AA57-C40E24C26BBD";
paths = (
{
closed = 1;
nodes = (
"566 768 LINE",
"30 768 LINE",
"30 158 OFFCURVE",
"196 -22 OFFCURVE",
"438 -22 CURVE SMOOTH",
"670 -22 OFFCURVE",
"850 156 OFFCURVE",
"850 696 CURVE SMOOTH",
"850 1227 OFFCURVE",
"670 1410 OFFCURVE",
"434 1410 CURVE SMOOTH",
"218 1410 OFFCURVE",
"98 1276 OFFCURVE",
"68 1160 CURVE",
"350 1032 LINE",
"362 1106 OFFCURVE",
"396 1154 OFFCURVE",
"434 1154 CURVE SMOOTH",
"494 1154 OFFCURVE",
"517 1095 OFFCURVE",
"516 704 CURVE SMOOTH",
"515 292 OFFCURVE",
"492 226 OFFCURVE",
"432 226 CURVE SMOOTH",
"372 226 OFFCURVE",
"358 292 OFFCURVE",
"358 554 CURVE",
"566 554 LINE"
);
}
);
width = 900;
},
{
layerId = "2E286313-D5BF-4FB4-A4B7-BD9BC13B574E";
paths = (
{
closed = 1;
nodes = (
"708 727 LINE",
"144 727 LINE",
"144 204 OFFCURVE",
"248 -22 OFFCURVE",
"438 -22 CURVE SMOOTH",
"590 -22 OFFCURVE",
"750 134 OFFCURVE",
"750 723 CURVE SMOOTH",
"750 1245 OFFCURVE",
"622 1413 OFFCURVE",
"444 1413 CURVE SMOOTH",
"268 1413 OFFCURVE",
"182 1263 OFFCURVE",
"160 1207 CURVE",
"222 1173 LINE",
"238 1225 OFFCURVE",
"292 1347 OFFCURVE",
"444 1347 CURVE SMOOTH",
"612 1347 OFFCURVE",
"684 1173 OFFCURVE",
"684 723 CURVE SMOOTH",
"684 186 OFFCURVE",
"572 44 OFFCURVE",
"442 44 CURVE SMOOTH",
"290 44 OFFCURVE",
"214 236 OFFCURVE",
"214 663 CURVE",
"708 663 LINE"
);
}
);
width = 900;
},
{
layerId = "E338D14E-1DA5-418D-88BC-8956EEA80AB9";
paths = (
{
closed = 1;
nodes = (
"1670 732 LINE",
"356 732 LINE",
"356 225 OFFCURVE",
"632 -22 OFFCURVE",
"1022 -22 CURVE SMOOTH",
"1400 -22 OFFCURVE",
"1734 191 OFFCURVE",
"1734 720 CURVE SMOOTH",
"1734 1204 OFFCURVE",
"1422 1410 OFFCURVE",
"1026 1410 CURVE SMOOTH",
"684 1410 OFFCURVE",
"452 1278 OFFCURVE",
"372 1204 CURVE",
"434 1150 LINE",
"500 1220 OFFCURVE",
"700 1344 OFFCURVE",
"1026 1344 CURVE SMOOTH",
"1420 1344 OFFCURVE",
"1658 1140 OFFCURVE",
"1658 728 CURVE SMOOTH",
"1658 229 OFFCURVE",
"1368 44 OFFCURVE",
"1022 44 CURVE SMOOTH",
"642 44 OFFCURVE",
"442 293 OFFCURVE",
"442 668 CURVE",
"1670 668 LINE"
);
}
);
width = 2100;
},
{
layerId = "DF71BB49-08D0-48AB-8F46-D55A70C0C2BD";
paths = (
{
closed = 1;
nodes = (
"1477 788 LINE",
"201 788 LINE",
"201 163 OFFCURVE",
"561 -22 OFFCURVE",
"1022 -22 CURVE SMOOTH",
"1508 -22 OFFCURVE",
"1869 221 OFFCURVE",
"1869 683 CURVE SMOOTH",
"1869 1179 OFFCURVE",
"1487 1406 OFFCURVE",
"1012 1406 CURVE SMOOTH",
"609 1406 OFFCURVE",
"335 1237 OFFCURVE",
"247 1140 CURVE",
"607 959 LINE",
"712 1050 OFFCURVE",
"846 1082 OFFCURVE",
"1012 1082 CURVE SMOOTH",
"1259 1082 OFFCURVE",
"1431 1034 OFFCURVE",
"1430 702 CURVE SMOOTH",
"1429 371 OFFCURVE",
"1265 291 OFFCURVE",
"1018 291 CURVE SMOOTH",
"764 291 OFFCURVE",
"647 379 OFFCURVE",
"637 520 CURVE",
"1477 520 LINE"
);
}
);
width = 2100;
}
);
unicode = 018F;
},
{
glyphname = T;
lastChange = "2020-04-30 15:52:17 +0000";
layers = (
{
anchors = (
{
name = bottom;
position = "{452, 0}";
},
{
name = center;
position = "{452, 700}";
},
{
name = top;
position = "{452, 1400}";
}
);
layerId = "2E286313-D5BF-4FB4-A4B7-BD9BC13B574E";
paths = (
{
closed = 1;
nodes = (
"118 1400 LINE",
"118 1336 LINE",
"416 1336 LINE",
"416 0 LINE",
"482 0 LINE",
"482 1336 LINE",
"782 1336 LINE",
"782 1400 LINE"
);
}
);
width = 900;
},
{
anchors = (
{
name = bottom;
position = "{1050, 0}";
},
{
name = center;
position = "{1050, 700}";
},
{
name = top;
position = "{1050, 1400}";
}
);
layerId = "E338D14E-1DA5-418D-88BC-8956EEA80AB9";
paths = (
{
closed = 1;
nodes = (
"280 1400 LINE",
"280 1336 LINE",
"1012 1336 LINE",
"1012 0 LINE",
"1078 0 LINE",
"1078 1336 LINE",
"1814 1336 LINE",
"1814 1400 LINE"
);
}
);
width = 2100;
},
{
anchors = (
{
name = bottom;
position = "{430, 0}";
},
{
name = center;
position = "{430, 700}";
},
{
name = top;
position = "{430, 1400}";
}
);
layerId = "C5C974ED-4386-41E8-AA57-C40E24C26BBD";
paths = (
{
closed = 1;
nodes = (
"76 1400 LINE",
"76 1156 LINE",
"259 1156 LINE",
"259 0 LINE",
"595 0 LINE",
"595 1156 LINE",
"778 1156 LINE",
"778 1400 LINE"
);
}
);
width = 900;
},
{
anchors = (
{
name = bottom;
position = "{1020, 0}";
},
{
name = center;
position = "{1020, 700}";
},
{
name = top;
position = "{1020, 1400}";
}
);
layerId = "DF71BB49-08D0-48AB-8F46-D55A70C0C2BD";
paths = (
{
closed = 1;
nodes = (
"223 1400 LINE",
"223 1092 LINE",
"799 1092 LINE",
"799 0 LINE",
"1231 0 LINE",
"1231 1092 LINE",
"1809 1092 LINE",
"1809 1400 LINE"
);
}
);
width = 2100;
}
);
leftKerningGroup = T;
rightKerningGroup = T;
unicode = 0054;
},
{
glyphname = U;
lastChange = "2020-04-30 21:14:33 +0000";
layers = (
{
anchors = (
{
name = bottom;
position = "{450, 0}";
},
{
name = ogonek;
position = "{504, 0}";
},
{
name = top;
position = "{450, 1400}";
},
{
name = topright;
position = "{714, 1285}";
}
);
layerId = "2E286313-D5BF-4FB4-A4B7-BD9BC13B574E";
paths = (
{
closed = 1;
nodes = (
"606 -22 OFFCURVE",
"740 68 OFFCURVE",
"740 416 CURVE SMOOTH",
"740 1400 LINE",
"674 1400 LINE",
"674 416 LINE SMOOTH",
"674 146 OFFCURVE",
"588 44 OFFCURVE",
"452 44 CURVE SMOOTH",
"318 44 OFFCURVE",
"228 146 OFFCURVE",
"228 420 CURVE SMOOTH",
"228 1400 LINE",
"162 1400 LINE",
"162 416 LINE SMOOTH",
"162 68 OFFCURVE",
"300 -22 OFFCURVE",
"452 -22 CURVE SMOOTH"
);
}
);
width = 900;
},
{
anchors = (
{
name = bottom;
position = "{1050, 0}";
},
{
name = ogonek;
position = "{1236, 0}";
},
{
name = top;
position = "{1050, 1400}";
},
{
name = topright;
position = "{1791, 1285}";
}
);
layerId = "E338D14E-1DA5-418D-88BC-8956EEA80AB9";
paths = (
{
closed = 1;
nodes = (
"1534 -22 OFFCURVE",
"1800 224 OFFCURVE",
"1800 698 CURVE SMOOTH",
"1800 1400 LINE",
"1732 1400 LINE",
"1732 692 LINE SMOOTH",
"1732 268 OFFCURVE",
"1486 44 OFFCURVE",
"1054 44 CURVE SMOOTH",
"624 44 OFFCURVE",
"372 268 OFFCURVE",
"372 692 CURVE SMOOTH",
"372 1400 LINE",
"304 1400 LINE",
"304 698 LINE SMOOTH",
"304 224 OFFCURVE",
"578 -22 OFFCURVE",
"1054 -22 CURVE SMOOTH"
);
}
);
width = 2100;
},
{
anchors = (
{
name = bottom;
position = "{448, 0}";
},
{
name = ogonek;
position = "{456, 0}";
},
{
name = top;
position = "{448, 1400}";
},
{
name = topright;
position = "{798, 1285}";
}
);
layerId = "C5C974ED-4386-41E8-AA57-C40E24C26BBD";
paths = (
{
closed = 1;
nodes = (
"636 -22 OFFCURVE",
"838 70 OFFCURVE",
"838 356 CURVE SMOOTH",
"838 1400 LINE",
"502 1400 LINE",
"502 380 LINE SMOOTH",
"502 260 OFFCURVE",
"486 234 OFFCURVE",
"450 234 CURVE SMOOTH",
"414 234 OFFCURVE",
"396 260 OFFCURVE",
"396 380 CURVE SMOOTH",
"396 1400 LINE",
"60 1400 LINE",
"60 356 LINE SMOOTH",
"60 70 OFFCURVE",
"264 -22 OFFCURVE",
"450 -22 CURVE SMOOTH"
);
}
);
width = 900;
},
{
anchors = (
{
name = bottom;
position = "{1048, 0}";
},
{
name = ogonek;
position = "{1171, 0}";
},
{
name = top;
position = "{1048, 1400}";
},
{
name = topright;
position = "{1905, 1285}";
}
);
layerId = "DF71BB49-08D0-48AB-8F46-D55A70C0C2BD";
paths = (
{
closed = 1;
nodes = (
"1575 -22 OFFCURVE",
"1933 227 OFFCURVE",
"1933 617 CURVE SMOOTH",
"1933 1400 LINE",
"1499 1400 LINE",
"1499 633 LINE SMOOTH",
"1499 413 OFFCURVE",
"1348 302 OFFCURVE",
"1052 302 CURVE SMOOTH",
"755 302 OFFCURVE",
"600 413 OFFCURVE",
"600 628 CURVE SMOOTH",
"600 1400 LINE",
"166 1400 LINE",
"166 617 LINE SMOOTH",
"166 227 OFFCURVE",
"530 -22 OFFCURVE",
"1052 -22 CURVE SMOOTH"
);
}
);
width = 2100;
}
);
leftKerningGroup = U;
rightKerningGroup = U;
unicode = 0055;
},
{
glyphname = V;
lastChange = "2020-04-30 15:52:17 +0000";
layers = (
{
anchors = (
{
name = bottom;
position = "{438, 0}";
},
{
name = top;
position = "{438, 1400}";
}
);
layerId = "2E286313-D5BF-4FB4-A4B7-BD9BC13B574E";
paths = (
{
closed = 1;
nodes = (
"466 64 LINE",
"424 64 LINE",
"240 1400 LINE",
"174 1400 LINE",
"366 0 LINE",
"522 0 LINE",
"734 1400 LINE",
"668 1400 LINE"
);
}
);
width = 900;
},
{
anchors = (
{
name = bottom;
position = "{1050, 0}";
},
{
name = top;
position = "{1050, 1400}";
}
);
layerId = "E338D14E-1DA5-418D-88BC-8956EEA80AB9";
paths = (
{
closed = 1;
nodes = (
"1194 64 LINE",
"928 64 LINE",
"404 1400 LINE",
"324 1400 LINE",
"874 0 LINE",
"1248 0 LINE",
"1796 1400 LINE",
"1718 1400 LINE"
);
}
);
width = 2100;
},
{
anchors = (
{
name = bottom;
position = "{404, 0}";
},
{
name = top;
position = "{404, 1400}";
}
);
layerId = "C5C974ED-4386-41E8-AA57-C40E24C26BBD";
paths = (
{
closed = 1;
nodes = (
"414 253 LINE",
"406 253 LINE",
"356 1400 LINE",
"10 1400 LINE",
"146 0 LINE",
"672 0 LINE",
"818 1400 LINE",
"472 1400 LINE"
);
}
);
width = 900;
},
{
anchors = (
{
name = bottom;
position = "{1003, 0}";
},
{
name = top;
position = "{1003, 1400}";
}
);
layerId = "DF71BB49-08D0-48AB-8F46-D55A70C0C2BD";
paths = (
{
closed = 1;
nodes = (
"1123 321 LINE",
"903 321 LINE",
"561 1400 LINE",
"101 1400 LINE",
"575 0 LINE",
"1451 0 LINE",
"1910 1400 LINE",
"1452 1400 LINE"
);
}
);
width = 2100;
}
);
leftKerningGroup = V;
rightKerningGroup = V;
unicode = 0056;
},
{
glyphname = W;
lastChange = "2020-04-30 21:17:27 +0000";
layers = (
{
anchors = (
{
name = bottom;
position = "{456, 0}";
},
{
name = top;
position = "{456, 1400}";
}
);
layerId = "2E286313-D5BF-4FB4-A4B7-BD9BC13B574E";
paths = (
{
closed = 1;
nodes = (
"690 0 LINE",
"800 1400 LINE",
"734 1400 LINE",
"636 68 LINE",
"632 0 LINE"
);
},
{
closed = 1;
nodes = (
"268 0 LINE",
"262 68 LINE",
"166 1400 LINE",
"100 1400 LINE",
"210 0 LINE"
);
},
{
closed = 1;
nodes = (
"308 0 LINE",
"466 1238 LINE",
"460 1324 LINE",
"422 1324 LINE",
"264 106 LINE",
"252 0 LINE"
);
},
{
closed = 1;
nodes = (
"648 0 LINE",
"636 106 LINE",
"478 1324 LINE",
"440 1324 LINE",
"434 1238 LINE",
"592 0 LINE"
);
}
);
width = 900;
},
{
anchors = (
{
name = bottom;
position = "{1050, 0}";
},
{
name = top;
position = "{1050, 1400}";
}
);
layerId = "E338D14E-1DA5-418D-88BC-8956EEA80AB9";
paths = (
{
closed = 1;
nodes = (
"1588 0 LINE",
"1876 1400 LINE",
"1796 1400 LINE",
"1532 98 LINE",
"1512 0 LINE"
);
},
{
closed = 1;
nodes = (
"586 0 LINE",
"566 98 LINE",
"304 1400 LINE",
"224 1400 LINE",
"510 0 LINE"
);
},
{
closed = 1;
nodes = (
"642 0 LINE",
"1050 1254 LINE",
"1074 1324 LINE",
"992 1324 LINE",
"574 56 LINE",
"552 0 LINE"
);
},
{
closed = 1;
nodes = (
"1548 0 LINE",
"1526 66 LINE",
"1110 1324 LINE",
"1030 1324 LINE",
"1054 1254 LINE",
"1460 0 LINE"
);
}
);
width = 2100;
},
{
anchors = (
{
name = bottom;
position = "{452, 0}";
},
{
name = top;
position = "{452, 1400}";
}
);
layerId = "C5C974ED-4386-41E8-AA57-C40E24C26BBD";
paths = (
{
closed = 1;
nodes = (
"826 0 LINE",
"902 1400 LINE",
"590 1400 LINE",
"604 420 LINE",
"606 0 LINE"
);
},
{
closed = 1;
nodes = (
"296 0 LINE",
"288 420 LINE",
"306 1400 LINE",
"-6 1400 LINE",
"70 0 LINE"
);
},
{
closed = 1;
nodes = (
"370 0 LINE",
"458 788 LINE",
"482 1224 LINE",
"376 1224 LINE",
"290 442 LINE",
"278 0 LINE"
);
},
{
closed = 1;
nodes = (
"622 0 LINE",
"602 440 LINE",
"520 1224 LINE",
"414 1224 LINE",
"446 788 LINE",
"526 0 LINE"
);
}
);
width = 900;
},
{
anchors = (
{
name = bottom;
position = "{1045, 0}";
},
{
name = top;
position = "{1045, 1400}";
}
);
layerId = "DF71BB49-08D0-48AB-8F46-D55A70C0C2BD";
paths = (
{
closed = 1;
nodes = (
"1803 0 LINE",
"2062 1400 LINE",
"1621 1400 LINE",
"1489 285 LINE",
"1477 0 LINE"
);
},
{
closed = 1;
nodes = (
"624 0 LINE",
"601 285 LINE",
"474 1400 LINE",
"33 1400 LINE",
"290 0 LINE"
);
},
{
closed = 1;
nodes = (
"790 0 LINE",
"1066 724 LINE",
"1104 1188 LINE",
"930 1188 LINE",
"582 300 LINE",
"587 0 LINE"
);
},
{
closed = 1;
nodes = (
"1513 0 LINE",
"1507 307 LINE",
"1167 1188 LINE",
"995 1188 LINE",
"1043 724 LINE",
"1306 0 LINE"
);
}
);
width = 2100;
}
);
leftKerningGroup = W;
rightKerningGroup = W;
unicode = 0057;
},
{
glyphname = X;
lastChange = "2020-04-30 15:52:49 +0000";
layers = (
{
anchors = (
{
name = bottom;
position = "{432, 0}";
},
{
name = top;
position = "{432, 1400}";
}
);
layerId = "2E286313-D5BF-4FB4-A4B7-BD9BC13B574E";
paths = (
{
closed = 1;
nodes = (
"424 660 LINE",
"508 660 LINE",
"508 724 LINE",
"424 724 LINE"
);
},
{
closed = 1;
nodes = (
"458 716 LINE",
"502 666 LINE",
"748 1400 LINE",
"678 1400 LINE"
);
},
{
closed = 1;
nodes = (
"748 0 LINE",
"500 716 LINE",
"432 716 LINE",
"678 0 LINE"
);
},
{
closed = 1;
nodes = (
"380 724 LINE",
"380 660 LINE",
"428 660 LINE",
"428 724 LINE"
);
},
{
closed = 1;
nodes = (
"140 1400 LINE",
"386 666 LINE",
"430 716 LINE",
"210 1400 LINE"
);
},
{
closed = 1;
nodes = (
"456 716 LINE",
"388 716 LINE",
"140 0 LINE",
"210 0 LINE"
);
}
);
width = 900;
},
{
anchors = (
{
name = bottom;
position = "{1050, 0}";
},
{
name = top;
position = "{1050, 1400}";
}
);
layerId = "E338D14E-1DA5-418D-88BC-8956EEA80AB9";
paths = (
{
closed = 1;
nodes = (
"1036 660 LINE",
"1236 660 LINE",
"1236 724 LINE",
"1036 724 LINE"
);
},
{
closed = 1;
nodes = (
"1164 716 LINE",
"1218 666 LINE",
"1764 1400 LINE",
"1670 1400 LINE"
);
},
{
closed = 1;
nodes = (
"1764 0 LINE",
"1214 716 LINE",
"1120 716 LINE",
"1670 0 LINE"
);
},
{
closed = 1;
nodes = (
"854 724 LINE",
"854 660 LINE",
"1044 660 LINE",
"1044 724 LINE"
);
},
{
closed = 1;
nodes = (
"326 1400 LINE",
"872 666 LINE",
"926 716 LINE",
"420 1400 LINE"
);
},
{
closed = 1;
nodes = (
"968 716 LINE",
"876 716 LINE",
"326 0 LINE",
"420 0 LINE"
);
}
);
width = 2100;
},
{
anchors = (
{
name = bottom;
position = "{400, 0}";
},
{
name = top;
position = "{400, 1400}";
}
);
layerId = "C5C974ED-4386-41E8-AA57-C40E24C26BBD";
paths = (
{
closed = 1;
nodes = (
"380 580 LINE",
"506 580 LINE",
"506 804 LINE",
"380 804 LINE"
);
},
{
closed = 1;
nodes = (
"346 732 LINE",
"620 666 LINE",
"850 1400 LINE",
"524 1400 LINE"
);
},
{
closed = 1;
nodes = (
"850 0 LINE",
"610 732 LINE",
"310 732 LINE",
"524 0 LINE"
);
},
{
closed = 1;
nodes = (
"310 804 LINE",
"310 580 LINE",
"402 580 LINE",
"402 804 LINE"
);
},
{
closed = 1;
nodes = (
"-34 1400 LINE",
"196 666 LINE",
"470 732 LINE",
"290 1400 LINE"
);
},
{
closed = 1;
nodes = (
"506 732 LINE",
"206 732 LINE",
"-34 0 LINE",
"290 0 LINE"
);
}
);
width = 900;
},
{
anchors = (
{
name = bottom;
position = "{1007, 0}";
},
{
name = top;
position = "{1007, 1400}";
}
);
layerId = "DF71BB49-08D0-48AB-8F46-D55A70C0C2BD";
paths = (
{
closed = 1;
nodes = (
"976 551 LINE",
"1233 551 LINE",
"1233 833 LINE",
"976 833 LINE"
);
},
{
closed = 1;
nodes = (
"1012 738 LINE",
"1378 666 LINE",
"1903 1400 LINE",
"1461 1400 LINE"
);
},
{
closed = 1;
nodes = (
"1903 0 LINE",
"1363 738 LINE",
"955 738 LINE",
"1461 0 LINE"
);
},
{
closed = 1;
nodes = (
"759 833 LINE",
"759 551 LINE",
"1009 551 LINE",
"1009 833 LINE"
);
},
{
closed = 1;
nodes = (
"90 1400 LINE",
"614 666 LINE",
"980 738 LINE",
"529 1400 LINE"
);
},
{
closed = 1;
nodes = (
"1036 738 LINE",
"629 738 LINE",
"90 0 LINE",
"529 0 LINE"
);
}
);
width = 2100;
}
);
leftKerningGroup = X;
rightKerningGroup = X;
unicode = 0058;
},
{
glyphname = Y;
lastChange = "2020-04-30 20:44:35 +0000";
layers = (
{
anchors = (
{
name = bottom;
position = "{600, 0}";
},
{
name = top;
position = "{454, 1400}";
},
{
name = topleft;
position = "{40, 1400}";
}
);
layerId = "2E286313-D5BF-4FB4-A4B7-BD9BC13B574E";
paths = (
{
closed = 1;
nodes = (
"456 656 LINE",
"488 574 LINE",
"764 1400 LINE",
"700 1400 LINE"
);
},
{
closed = 1;
nodes = (
"144 1400 LINE",
"422 574 LINE",
"454 656 LINE",
"208 1400 LINE"
);
},
{
closed = 1;
nodes = (
"488 0 LINE",
"488 656 LINE",
"422 656 LINE",
"422 0 LINE"
);
}
);
width = 900;
},
{
anchors = (
{
name = bottom;
position = "{1050, 0}";
},
{
name = top;
position = "{1050, 1400}";
},
{
name = topleft;
position = "{70, 1400}";
}
);
layerId = "E338D14E-1DA5-418D-88BC-8956EEA80AB9";
paths = (
{
closed = 1;
nodes = (
"1040 626 LINE",
"1090 574 LINE",
"1794 1400 LINE",
"1692 1400 LINE"
);
},
{
closed = 1;
nodes = (
"306 1400 LINE",
"1014 574 LINE",
"1064 626 LINE",
"410 1400 LINE"
);
},
{
closed = 1;
nodes = (
"1090 0 LINE",
"1090 638 LINE",
"1014 638 LINE",
"1014 0 LINE"
);
}
);
width = 2100;
},
{
anchors = (
{
name = bottom;
position = "{506, 0}";
},
{
name = top;
position = "{440, 1400}";
},
{
name = topleft;
position = "{62, 1400}";
}
);
layerId = "C5C974ED-4386-41E8-AA57-C40E24C26BBD";
paths = (
{
closed = 1;
nodes = (
"426 810 LINE",
"592 554 LINE",
"862 1400 LINE",
"540 1400 LINE"
);
},
{
closed = 1;
nodes = (
"18 1400 LINE",
"290 554 LINE",
"454 810 LINE",
"340 1400 LINE"
);
},
{
closed = 1;
nodes = (
"592 0 LINE",
"592 826 LINE",
"290 826 LINE",
"290 0 LINE"
);
}
);
width = 900;
},
{
anchors = (
{
name = bottom;
position = "{922, 0}";
},
{
name = top;
position = "{1031, 1400}";
},
{
name = topleft;
position = "{100, 1400}";
}
);
layerId = "DF71BB49-08D0-48AB-8F46-D55A70C0C2BD";
paths = (
{
closed = 1;
nodes = (
"999 815 LINE",
"1231 547 LINE",
"1927 1400 LINE",
"1475 1400 LINE"
);
},
{
closed = 1;
nodes = (
"135 1400 LINE",
"835 547 LINE",
"1064 815 LINE",
"589 1400 LINE"
);
},
{
closed = 1;
nodes = (
"1231 0 LINE",
"1231 833 LINE",
"835 833 LINE",
"835 0 LINE"
);
}
);
width = 2100;
}
);
leftKerningGroup = Y;
rightKerningGroup = Y;
unicode = 0059;
},
{
glyphname = Z;
lastChange = "2020-04-30 21:18:11 +0000";
layers = (
{
anchors = (
{
name = bottom;
position = "{444, 0}";
},
{
name = top;
position = "{444, 1400}";
}
);
layerId = "2E286313-D5BF-4FB4-A4B7-BD9BC13B574E";
paths = (
{
closed = 1;
nodes = (
"708 1336 LINE",
"708 1400 LINE",
"184 1400 LINE",
"184 1336 LINE",
"646 1336 LINE",
"168 64 LINE",
"168 0 LINE",
"732 0 LINE",
"732 64 LINE",
"232 64 LINE"
);
}
);
width = 900;
},
{
anchors = (
{
name = bottom;
position = "{1050, 0}";
},
{
name = top;
position = "{1050, 1400}";
}
);
layerId = "E338D14E-1DA5-418D-88BC-8956EEA80AB9";
paths = (
{
closed = 1;
nodes = (
"1758 1336 LINE",
"1758 1400 LINE",
"386 1400 LINE",
"386 1336 LINE",
"1656 1336 LINE",
"358 64 LINE",
"358 0 LINE",
"1800 0 LINE",
"1800 64 LINE",
"468 64 LINE"
);
}
);
width = 2100;
},
{
anchors = (
{
name = bottom;
position = "{446, 0}";
},
{
name = top;
position = "{446, 1400}";
}
);
layerId = "C5C974ED-4386-41E8-AA57-C40E24C26BBD";
paths = (
{
closed = 1;
nodes = (
"724 1156 LINE",
"724 1400 LINE",
"158 1400 LINE",
"158 1156 LINE",
"404 1156 LINE",
"146 244 LINE",
"146 0 LINE",
"762 0 LINE",
"762 244 LINE",
"470 244 LINE"
);
}
);
width = 900;
},
{
anchors = (
{
name = bottom;
position = "{1053, 0}";
},
{
name = top;
position = "{1053, 1400}";
}
);
layerId = "DF71BB49-08D0-48AB-8F46-D55A70C0C2BD";
paths = (
{
closed = 1;
nodes = (
"1780 1092 LINE",
"1780 1400 LINE",
"351 1400 LINE",
"351 1092 LINE",
"1287 1092 LINE",
"328 308 LINE",
"328 0 LINE",
"1841 0 LINE",
"1841 308 LINE",
"831 308 LINE"
);
}
);
width = 2100;
}
);
leftKerningGroup = Z;
rightKerningGroup = Z;
unicode = 005A;
},
{
glyphname = a;
lastChange = "2020-04-30 21:05:59 +0000";
layers = (
{
anchors = (
{
name = bottom;
position = "{450, 0}";
},
{
name = ogonek;
position = "{810, 20}";
},
{
name = top;
position = "{450, 1000}";
}
);
layerId = "2E286313-D5BF-4FB4-A4B7-BD9BC13B574E";
paths = (
{
closed = 1;
nodes = (
"862 34 LINE",
"696 202 LINE",
"664 134 LINE",
"812 -16 LINE"
);
},
{
closed = 1;
nodes = (
"652 126 OFFCURVE",
"574 42 OFFCURVE",
"448 42 CURVE SMOOTH",
"316 42 OFFCURVE",
"208 100 OFFCURVE",
"208 306 CURVE SMOOTH",
"208 504 OFFCURVE",
"324 568 OFFCURVE",
"508 568 CURVE SMOOTH",
"674 568 LINE",
"674 632 LINE",
"506 632 LINE SMOOTH",
"278 632 OFFCURVE",
"140 528 OFFCURVE",
"140 306 CURVE SMOOTH",
"140 82 OFFCURVE",
"266 -22 OFFCURVE",
"430 -22 CURVE SMOOTH",
"616 -22 OFFCURVE",
"684 80 OFFCURVE",
"714 148 CURVE",
"664 210 LINE"
);
},
{
closed = 1;
nodes = (
"318 1024 OFFCURVE",
"218 962 OFFCURVE",
"168 894 CURVE",
"224 844 LINE",
"262 900 OFFCURVE",
"344 958 OFFCURVE",
"440 958 CURVE SMOOTH",
"558 958 OFFCURVE",
"658 904 OFFCURVE",
"658 746 CURVE SMOOTH",
"658 160 LINE",
"728 142 LINE",
"728 762 LINE SMOOTH",
"728 944 OFFCURVE",
"584 1024 OFFCURVE",
"452 1024 CURVE SMOOTH"
);
}
);
width = 900;
},
{
anchors = (
{
name = bottom;
position = "{1050, 0}";
},
{
name = ogonek;
position = "{1890, 20}";
},
{
name = top;
position = "{1050, 1000}";
}
);
layerId = "E338D14E-1DA5-418D-88BC-8956EEA80AB9";
paths = (
{
closed = 1;
nodes = (
"1820 28 LINE",
"1608 236 LINE",
"1580 168 LINE",
"1770 -18 LINE"
);
},
{
closed = 1;
nodes = (
"1540 144 OFFCURVE",
"1332 42 OFFCURVE",
"1000 42 CURVE SMOOTH",
"694 42 OFFCURVE",
"440 94 OFFCURVE",
"440 300 CURVE SMOOTH",
"440 488 OFFCURVE",
"676 548 OFFCURVE",
"1032 548 CURVE SMOOTH",
"1598 548 LINE",
"1598 612 LINE",
"994 612 LINE SMOOTH",
"622 612 OFFCURVE",
"364 522 OFFCURVE",
"364 300 CURVE SMOOTH",
"364 76 OFFCURVE",
"584 -22 OFFCURVE",
"966 -22 CURVE SMOOTH",
"1446 -22 OFFCURVE",
"1626 144 OFFCURVE",
"1646 172 CURVE",
"1606 228 LINE"
);
},
{
closed = 1;
nodes = (
"730 1024 OFFCURVE",
"492 950 OFFCURVE",
"404 862 CURVE",
"450 806 LINE",
"528 882 OFFCURVE",
"770 960 OFFCURVE",
"1006 960 CURVE SMOOTH",
"1280 960 OFFCURVE",
"1582 904 OFFCURVE",
"1582 686 CURVE SMOOTH",
"1582 180 LINE",
"1650 162 LINE",
"1650 702 LINE SMOOTH",
"1650 944 OFFCURVE",
"1342 1024 OFFCURVE",
"1032 1024 CURVE SMOOTH"
);
}
);
width = 2100;
},
{
anchors = (
{
name = bottom;
position = "{428, 0}";
},
{
name = ogonek;
position = "{756, 20}";
},
{
name = top;
position = "{428, 1000}";
}
);
layerId = "C5C974ED-4386-41E8-AA57-C40E24C26BBD";
paths = (
{
closed = 1;
nodes = (
"896 140 LINE",
"710 338 LINE",
"516 160 LINE",
"712 -36 LINE"
);
},
{
closed = 1;
nodes = (
"490 262 OFFCURVE",
"470 214 OFFCURVE",
"420 214 CURVE SMOOTH",
"379 214 OFFCURVE",
"362 250 OFFCURVE",
"362 308 CURVE SMOOTH",
"362 360 OFFCURVE",
"380 402 OFFCURVE",
"426 402 CURVE SMOOTH",
"505 402 LINE",
"505 638 LINE",
"406 638 LINE SMOOTH",
"182 638 OFFCURVE",
"38 510 OFFCURVE",
"38 322 CURVE SMOOTH",
"38 102 OFFCURVE",
"182 -22 OFFCURVE",
"372 -22 CURVE SMOOTH",
"532 -22 OFFCURVE",
"632 72 OFFCURVE",
"660 154 CURVE",
"500 334 LINE"
);
},
{
closed = 1;
nodes = (
"220 1024 OFFCURVE",
"78 929 OFFCURVE",
"44 827 CURVE",
"325 668 LINE",
"335 705 OFFCURVE",
"359 766 OFFCURVE",
"415 766 CURVE SMOOTH",
"465 766 OFFCURVE",
"474 716 OFFCURVE",
"474 654 CURVE SMOOTH",
"474 226 LINE",
"800 172 LINE",
"800 710 LINE SMOOTH",
"800 896 OFFCURVE",
"648 1024 OFFCURVE",
"420 1024 CURVE SMOOTH"
);
}
);
width = 900;
},
{
anchors = (
{
name = bottom;
position = "{1021, 0}";
},
{
name = ogonek;
position = "{1817, 20}";
},
{
name = top;
position = "{1021, 1000}";
}
);
layerId = "DF71BB49-08D0-48AB-8F46-D55A70C0C2BD";
paths = (
{
closed = 1;
nodes = (
"1891 147 LINE",
"1627 421 LINE",
"1380 203 LINE",
"1635 -45 LINE"
);
},
{
closed = 1;
nodes = (
"1344 308 OFFCURVE",
"1132 275 OFFCURVE",
"932 275 CURVE SMOOTH",
"727 275 OFFCURVE",
"649 290 OFFCURVE",
"649 320 CURVE SMOOTH",
"649 344 OFFCURVE",
"718 363 OFFCURVE",
"1028 363 CURVE SMOOTH",
"1369 363 LINE",
"1369 620 LINE",
"966 620 LINE SMOOTH",
"402 620 OFFCURVE",
"226 506 OFFCURVE",
"226 302 CURVE SMOOTH",
"226 83 OFFCURVE",
"471 -22 OFFCURVE",
"888 -22 CURVE SMOOTH",
"1334 -22 OFFCURVE",
"1515 147 OFFCURVE",
"1532 194 CURVE",
"1384 396 LINE"
);
},
{
closed = 1;
nodes = (
"607 1024 OFFCURVE",
"332 950 OFFCURVE",
"236 893 CURVE",
"577 644 LINE",
"644 689 OFFCURVE",
"819 707 OFFCURVE",
"973 707 CURVE SMOOTH",
"1153 707 OFFCURVE",
"1333 649 OFFCURVE",
"1333 561 CURVE SMOOTH",
"1333 270 LINE",
"1748 203 LINE",
"1748 631 LINE SMOOTH",
"1748 879 OFFCURVE",
"1428 1024 OFFCURVE",
"989 1024 CURVE SMOOTH"
);
}
);
width = 2100;
}
);
unicode = 0061;
},
{
glyphname = a.ss01;
lastChange = "2020-04-30 15:55:39 +0000";
layers = (
{
anchors = (
{
name = bottom;
position = "{450, 0}";
},
{
name = ogonek;
position = "{697, 0}";
},
{
name = top;
position = "{450, 1000}";
}
);
layerId = "2E286313-D5BF-4FB4-A4B7-BD9BC13B574E";
paths = (
{
closed = 1;
nodes = (
"734 1000 LINE",
"664 1000 LINE",
"664 142 LINE",
"664 0 LINE",
"734 0 LINE"
);
},
{
closed = 1;
nodes = (
"270 1022 OFFCURVE",
"136 868 OFFCURVE",
"136 502 CURVE SMOOTH",
"136 136 OFFCURVE",
"286 -22 OFFCURVE",
"430 -22 CURVE SMOOTH",
"626 -22 OFFCURVE",
"720 148 OFFCURVE",
"720 372 CURVE",
"668 340 LINE",
"652 174 OFFCURVE",
"576 44 OFFCURVE",
"438 44 CURVE SMOOTH",
"310 44 OFFCURVE",
"204 178 OFFCURVE",
"204 502 CURVE SMOOTH",
"204 832 OFFCURVE",
"296 956 OFFCURVE",
"426 956 CURVE SMOOTH",
"564 956 OFFCURVE",
"650 790 OFFCURVE",
"668 644 CURVE",
"720 604 LINE",
"720 828 OFFCURVE",
"602 1022 OFFCURVE",
"414 1022 CURVE SMOOTH"
);
}
);
width = 900;
},
{
anchors = (
{
name = bottom;
position = "{1050, 0}";
},
{
name = ogonek;
position = "{1592, 0}";
},
{
name = top;
position = "{1050, 1000}";
}
);
layerId = "E338D14E-1DA5-418D-88BC-8956EEA80AB9";
paths = (
{
closed = 1;
nodes = (
"1638 1000 LINE",
"1566 1000 LINE",
"1566 142 LINE",
"1566 0 LINE",
"1638 0 LINE"
);
},
{
closed = 1;
nodes = (
"640 1022 OFFCURVE",
"362 868 OFFCURVE",
"362 502 CURVE SMOOTH",
"362 136 OFFCURVE",
"676 -22 OFFCURVE",
"1012 -22 CURVE SMOOTH",
"1430 -22 OFFCURVE",
"1634 208 OFFCURVE",
"1634 432 CURVE",
"1572 400 LINE",
"1534 234 OFFCURVE",
"1354 44 OFFCURVE",
"1032 44 CURVE SMOOTH",
"722 44 OFFCURVE",
"440 178 OFFCURVE",
"440 502 CURVE SMOOTH",
"440 832 OFFCURVE",
"690 956 OFFCURVE",
"1002 956 CURVE SMOOTH",
"1324 956 OFFCURVE",
"1528 770 OFFCURVE",
"1572 624 CURVE",
"1634 584 LINE",
"1634 808 OFFCURVE",
"1394 1022 OFFCURVE",
"976 1022 CURVE SMOOTH"
);
}
);
width = 2100;
},
{
anchors = (
{
name = bottom;
position = "{450, 0}";
},
{
name = ogonek;
position = "{657, 0}";
},
{
name = top;
position = "{450, 1000}";
}
);
layerId = "C5C974ED-4386-41E8-AA57-C40E24C26BBD";
paths = (
{
closed = 1;
nodes = (
"837 1000 LINE",
"502 1000 LINE",
"502 142 LINE",
"532 0 LINE",
"837 0 LINE"
);
},
{
closed = 1;
nodes = (
"120 1022 OFFCURVE",
"38 848 OFFCURVE",
"38 502 CURVE SMOOTH",
"38 156 OFFCURVE",
"124 -22 OFFCURVE",
"336 -22 CURVE SMOOTH",
"486 -22 OFFCURVE",
"590 170 OFFCURVE",
"590 394 CURVE",
"506 454 LINE",
"506 328 OFFCURVE",
"496 234 OFFCURVE",
"442 234 CURVE SMOOTH",
"376 234 OFFCURVE",
"372 344 OFFCURVE",
"372 502 CURVE SMOOTH",
"372 660 OFFCURVE",
"380 766 OFFCURVE",
"446 766 CURVE SMOOTH",
"490 766 OFFCURVE",
"506 658 OFFCURVE",
"506 552 CURVE",
"590 612 LINE",
"590 790 OFFCURVE",
"492 1022 OFFCURVE",
"332 1022 CURVE SMOOTH"
);
}
);
width = 900;
},
{
anchors = (
{
name = bottom;
position = "{1050, 0}";
},
{
name = ogonek;
position = "{1508, 0}";
},
{
name = top;
position = "{1050, 1000}";
}
);
layerId = "DF71BB49-08D0-48AB-8F46-D55A70C0C2BD";
paths = (
{
closed = 1;
nodes = (
"1779 1000 LINE",
"1346 1000 LINE",
"1346 142 LINE",
"1387 0 LINE",
"1779 0 LINE"
);
},
{
closed = 1;
nodes = (
"491 1022 OFFCURVE",
"229 841 OFFCURVE",
"229 502 CURVE SMOOTH",
"229 163 OFFCURVE",
"498 -22 OFFCURVE",
"925 -22 CURVE SMOOTH",
"1308 -22 OFFCURVE",
"1512 238 OFFCURVE",
"1512 462 CURVE",
"1352 460 LINE",
"1314 334 OFFCURVE",
"1242 275 OFFCURVE",
"1021 275 CURVE SMOOTH",
"769 275 OFFCURVE",
"682 376 OFFCURVE",
"682 502 CURVE SMOOTH",
"682 626 OFFCURVE",
"791 725 OFFCURVE",
"1016 725 CURVE SMOOTH",
"1236 725 OFFCURVE",
"1308 659 OFFCURVE",
"1352 526 CURVE",
"1512 595 LINE",
"1512 756 OFFCURVE",
"1313 1022 OFFCURVE",
"919 1022 CURVE SMOOTH"
);
}
);
width = 2100;
}
);
},
{
glyphname = ae;
lastChange = "2020-04-30 15:59:51 +0000";
layers = (
{
anchors = (
{
name = bottom;
position = "{450, 0}";
},
{
name = top;
position = "{450, 1000}";
}
);
layerId = "2E286313-D5BF-4FB4-A4B7-BD9BC13B574E";
paths = (
{
closed = 1;
nodes = (
"450 -22 OFFCURVE",
"500 150 OFFCURVE",
"500 152 CURVE",
"450 218 LINE",
"440 150 OFFCURVE",
"380 42 OFFCURVE",
"276 42 CURVE SMOOTH",
"168 42 OFFCURVE",
"114 106 OFFCURVE",
"114 266 CURVE",
"46 266 LINE",
"46 82 OFFCURVE",
"122 -22 OFFCURVE",
"272 -22 CURVE"
);
},
{
closed = 1;
nodes = (
"114 266 LINE",
"114 460 OFFCURVE",
"252 498 OFFCURVE",
"358 498 CURVE",
"340 562 LINE",
"194 562 OFFCURVE",
"46 488 OFFCURVE",
"46 266 CURVE"
);
},
{
closed = 1;
nodes = (
"424 498 LINE",
"424 562 LINE",
"340 562 LINE",
"358 498 LINE"
);
},
{
closed = 1;
nodes = (
"98 876 LINE",
"126 910 OFFCURVE",
"168 958 OFFCURVE",
"260 958 CURVE",
"368 958 OFFCURVE",
"418 800 OFFCURVE",
"418 682 CURVE",
"472 710 LINE",
"472 894 OFFCURVE",
"388 1024 OFFCURVE",
"260 1024 CURVE",
"152 1024 OFFCURVE",
"80 962 OFFCURVE",
"58 936 CURVE"
);
},
{
closed = 1;
nodes = (
"486 510 LINE",
"476 722 LINE",
"418 682 LINE",
"418 514 LINE"
);
},
{
closed = 1;
nodes = (
"822 214 LINE",
"806 154 OFFCURVE",
"768 44 OFFCURVE",
"664 44 CURVE SMOOTH",
"512 44 OFFCURVE",
"490 224 OFFCURVE",
"490 502 CURVE SMOOTH",
"490 788 OFFCURVE",
"532 958 OFFCURVE",
"656 958 CURVE SMOOTH",
"798 958 OFFCURVE",
"820 740 OFFCURVE",
"820 562 CURVE",
"892 498 LINE",
"892 838 OFFCURVE",
"824 1024 OFFCURVE",
"656 1024 CURVE SMOOTH",
"526 1024 OFFCURVE",
"418 908 OFFCURVE",
"418 514 CURVE SMOOTH",
"418 128 OFFCURVE",
"506 -22 OFFCURVE",
"662 -22 CURVE SMOOTH",
"752 -22 OFFCURVE",
"842 38 OFFCURVE",
"888 186 CURVE"
);
},
{
closed = 1;
nodes = (
"484 498 LINE",
"892 498 LINE",
"826 562 LINE",
"484 562 LINE"
);
}
);
width = 900;
},
{
anchors = (
{
name = bottom;
position = "{1050, 0}";
},
{
name = top;
position = "{1050, 1000}";
}
);
layerId = "E338D14E-1DA5-418D-88BC-8956EEA80AB9";
paths = (
{
closed = 1;
nodes = (
"954 -22 OFFCURVE",
"1102 210 OFFCURVE",
"1103 212 CURVE",
"1059 282 LINE",
"1035 214 OFFCURVE",
"902 42 OFFCURVE",
"618 42 CURVE",
"386 42 OFFCURVE",
"188 106 OFFCURVE",
"188 286 CURVE",
"112 286 LINE",
"112 82 OFFCURVE",
"280 -22 OFFCURVE",
"608 -22 CURVE"
);
},
{
closed = 1;
nodes = (
"188 286 LINE",
"188 470 OFFCURVE",
"442 498 OFFCURVE",
"590 498 CURVE",
"568 562 LINE",
"348 562 OFFCURVE",
"112 498 OFFCURVE",
"112 286 CURVE"
);
},
{
closed = 1;
nodes = (
"1036 498 LINE",
"1036 562 LINE",
"568 562 LINE",
"590 498 LINE"
);
},
{
closed = 1;
nodes = (
"212 836 LINE",
"262 870 OFFCURVE",
"392 958 OFFCURVE",
"606 958 CURVE",
"940 958 OFFCURVE",
"1022 700 OFFCURVE",
"1022 582 CURVE",
"1092 590 LINE",
"1092 774 OFFCURVE",
"986 1024 OFFCURVE",
"606 1024 CURVE",
"354 1024 OFFCURVE",
"196 922 OFFCURVE",
"160 896 CURVE"
);
},
{
closed = 1;
nodes = (
"1096 510 LINE",
"1096 602 LINE",
"1022 582 LINE",
"1022 514 LINE"
);
},
{
closed = 1;
nodes = (
"1942 214 LINE",
"1904 154 OFFCURVE",
"1796 44 OFFCURVE",
"1554 44 CURVE SMOOTH",
"1198 44 OFFCURVE",
"1104 224 OFFCURVE",
"1104 502 CURVE SMOOTH",
"1104 788 OFFCURVE",
"1246 958 OFFCURVE",
"1536 958 CURVE SMOOTH",
"1866 958 OFFCURVE",
"1956 740 OFFCURVE",
"1956 562 CURVE",
"2036 498 LINE",
"2036 798 OFFCURVE",
"1926 1024 OFFCURVE",
"1536 1024 CURVE SMOOTH",
"1232 1024 OFFCURVE",
"1022 868 OFFCURVE",
"1022 514 CURVE SMOOTH",
"1022 168 OFFCURVE",
"1162 -22 OFFCURVE",
"1548 -22 CURVE SMOOTH",
"1760 -22 OFFCURVE",
"1912 38 OFFCURVE",
"2010 186 CURVE"
);
},
{
closed = 1;
nodes = (
"1090 498 LINE",
"2036 498 LINE",
"1970 562 LINE",
"1090 562 LINE"
);
}
);
width = 2100;
},
{
anchors = (
{
name = bottom;
position = "{408, 0}";
},
{
name = top;
position = "{408, 1000}";
}
);
layerId = "C5C974ED-4386-41E8-AA57-C40E24C26BBD";
paths = (
{
closed = 1;
nodes = (
"376 -22 OFFCURVE",
"437 74 OFFCURVE",
"446 146 CURVE",
"364 318 LINE",
"354 250 OFFCURVE",
"334 202 OFFCURVE",
"287 202 CURVE",
"249 202 OFFCURVE",
"240 250 OFFCURVE",
"240 330 CURVE",
"2 326 LINE",
"2 102 OFFCURVE",
"104 -22 OFFCURVE",
"240 -22 CURVE"
);
},
{
closed = 1;
nodes = (
"240 330 LINE",
"240 432 OFFCURVE",
"282 448 OFFCURVE",
"332 448 CURVE",
"346 616 LINE",
"122 616 OFFCURVE",
"2 548 OFFCURVE",
"2 326 CURVE"
);
},
{
closed = 1;
nodes = (
"444 448 LINE",
"444 616 LINE",
"346 616 LINE",
"332 448 LINE"
);
},
{
closed = 1;
nodes = (
"144 708 LINE",
"166 751 OFFCURVE",
"194 798 OFFCURVE",
"250 798 CURVE SMOOTH",
"298 798 OFFCURVE",
"314 768 OFFCURVE",
"314 670 CURVE",
"496 704 LINE",
"496 914 OFFCURVE",
"393 1024 OFFCURVE",
"240 1024 CURVE",
"116 1024 OFFCURVE",
"34 950 OFFCURVE",
"-7 876 CURVE"
);
},
{
closed = 1;
nodes = (
"504 458 LINE",
"498 716 LINE",
"314 670 LINE",
"318 458 LINE"
);
},
{
closed = 1;
nodes = (
"622 322 LINE",
"616 282 OFFCURVE",
"603 202 OFFCURVE",
"575 202 CURVE SMOOTH",
"551 202 OFFCURVE",
"538 264 OFFCURVE",
"538 502 CURVE SMOOTH",
"538 708 OFFCURVE",
"540 798 OFFCURVE",
"570 798 CURVE SMOOTH",
"598 798 OFFCURVE",
"602 690 OFFCURVE",
"602 612 CURVE",
"820 448 LINE",
"820 800 OFFCURVE",
"768 1024 OFFCURVE",
"596 1024 CURVE SMOOTH",
"430 1024 OFFCURVE",
"314 900 OFFCURVE",
"314 494 CURVE SMOOTH",
"314 96 OFFCURVE",
"424 -22 OFFCURVE",
"580 -22 CURVE SMOOTH",
"670 -22 OFFCURVE",
"786 62 OFFCURVE",
"826 224 CURVE"
);
},
{
closed = 1;
nodes = (
"500 448 LINE",
"820 448 LINE",
"700 612 LINE",
"500 612 LINE"
);
}
);
width = 900;
},
{
anchors = (
{
name = bottom;
position = "{993, 0}";
},
{
name = top;
position = "{993, 1000}";
}
);
layerId = "DF71BB49-08D0-48AB-8F46-D55A70C0C2BD";
paths = (
{
closed = 1;
nodes = (
"853 -22 OFFCURVE",
"1063 111 OFFCURVE",
"1097 221 CURVE",
"894 399 LINE",
"870 331 OFFCURVE",
"764 259 OFFCURVE",
"622 259 CURVE SMOOTH",
"506 259 OFFCURVE",
"427 291 OFFCURVE",
"427 342 CURVE",
"52 327 LINE",
"52 99 OFFCURVE",
"265 -22 OFFCURVE",
"594 -22 CURVE"
);
},
{
closed = 1;
nodes = (
"427 342 LINE",
"427 421 OFFCURVE",
"546 430 OFFCURVE",
"645 430 CURVE",
"667 635 LINE",
"341 635 OFFCURVE",
"52 549 OFFCURVE",
"52 327 CURVE"
);
},
{
closed = 1;
nodes = (
"1063 430 LINE",
"1063 635 LINE",
"667 635 LINE",
"645 430 LINE"
);
},
{
closed = 1;
nodes = (
"261 608 LINE",
"312 668 OFFCURVE",
"426 741 OFFCURVE",
"592 741 CURVE",
"791 741 OFFCURVE",
"881 657 OFFCURVE",
"881 566 CURVE",
"1124 582 LINE",
"1124 855 OFFCURVE",
"913 1024 OFFCURVE",
"579 1024 CURVE",
"306 1024 OFFCURVE",
"112 906 OFFCURVE",
"35 815 CURVE"
);
},
{
closed = 1;
nodes = (
"1120 439 LINE",
"1126 594 LINE",
"881 566 LINE",
"886 438 LINE"
);
},
{
closed = 1;
nodes = (
"1650 361 LINE",
"1626 328 OFFCURVE",
"1572 258 OFFCURVE",
"1445 258 CURVE SMOOTH",
"1277 258 OFFCURVE",
"1193 318 OFFCURVE",
"1193 502 CURVE SMOOTH",
"1193 679 OFFCURVE",
"1290 741 OFFCURVE",
"1434 741 CURVE SMOOTH",
"1546 741 OFFCURVE",
"1616 672 OFFCURVE",
"1616 630 CURVE",
"1938 430 LINE",
"1938 742 OFFCURVE",
"1795 1024 OFFCURVE",
"1434 1024 CURVE SMOOTH",
"1094 1024 OFFCURVE",
"887 857 OFFCURVE",
"887 487 CURVE SMOOTH",
"887 125 OFFCURVE",
"1064 -22 OFFCURVE",
"1437 -22 CURVE SMOOTH",
"1650 -22 OFFCURVE",
"1837 72 OFFCURVE",
"1936 238 CURVE"
);
},
{
closed = 1;
nodes = (
"1112 430 LINE",
"1938 430 LINE",
"1799 630 LINE",
"1112 630 LINE"
);
}
);
width = 2100;
}
);
unicode = 00E6;
},
{
glyphname = b;
lastChange = "2020-04-30 15:52:17 +0000";
layers = (
{
anchors = (
{
name = bottom;
position = "{450, 0}";
},
{
name = top;
position = "{450, 1000}";
}
);
layerId = "2E286313-D5BF-4FB4-A4B7-BD9BC13B574E";
paths = (
{
closed = 1;
nodes = (
"240 0 LINE",
"240 142 LINE",
"240 1600 LINE",
"170 1600 LINE",
"170 0 LINE"
);
},
{
closed = 1;
nodes = (
"302 1022 OFFCURVE",
"184 808 OFFCURVE",
"184 584 CURVE",
"236 624 LINE",
"254 770 OFFCURVE",
"340 956 OFFCURVE",
"478 956 CURVE SMOOTH",
"608 956 OFFCURVE",
"700 832 OFFCURVE",
"700 502 CURVE SMOOTH",
"700 178 OFFCURVE",
"594 44 OFFCURVE",
"466 44 CURVE SMOOTH",
"328 44 OFFCURVE",
"252 234 OFFCURVE",
"236 400 CURVE",
"184 432 LINE",
"184 208 OFFCURVE",
"278 -22 OFFCURVE",
"474 -22 CURVE SMOOTH",
"618 -22 OFFCURVE",
"768 136 OFFCURVE",
"768 502 CURVE SMOOTH",
"768 868 OFFCURVE",
"634 1022 OFFCURVE",
"490 1022 CURVE SMOOTH"
);
}
);
width = 900;
},
{
anchors = (
{
name = bottom;
position = "{1050, 0}";
},
{
name = top;
position = "{1050, 1000}";
}
);
layerId = "E338D14E-1DA5-418D-88BC-8956EEA80AB9";
paths = (
{
closed = 1;
nodes = (
"540 0 LINE",
"540 142 LINE",
"540 1600 LINE",
"468 1600 LINE",
"468 0 LINE"
);
},
{
closed = 1;
nodes = (
"712 1022 OFFCURVE",
"472 808 OFFCURVE",
"472 584 CURVE",
"534 624 LINE",
"578 770 OFFCURVE",
"782 956 OFFCURVE",
"1104 956 CURVE SMOOTH",
"1416 956 OFFCURVE",
"1698 832 OFFCURVE",
"1698 502 CURVE SMOOTH",
"1698 178 OFFCURVE",
"1416 44 OFFCURVE",
"1104 44 CURVE SMOOTH",
"782 44 OFFCURVE",
"572 234 OFFCURVE",
"534 400 CURVE",
"472 432 LINE",
"472 208 OFFCURVE",
"712 -22 OFFCURVE",
"1130 -22 CURVE SMOOTH",
"1466 -22 OFFCURVE",
"1774 136 OFFCURVE",
"1774 502 CURVE SMOOTH",
"1774 868 OFFCURVE",
"1466 1022 OFFCURVE",
"1130 1022 CURVE SMOOTH"
);
}
);
width = 2100;
},
{
anchors = (
{
name = bottom;
position = "{430, 0}";
},
{
name = top;
position = "{430, 1000}";
}
);
layerId = "C5C974ED-4386-41E8-AA57-C40E24C26BBD";
paths = (
{
closed = 1;
nodes = (
"326 0 LINE",
"376 142 LINE",
"376 1600 LINE",
"40 1600 LINE",
"40 0 LINE"
);
},
{
closed = 1;
nodes = (
"366 1022 OFFCURVE",
"288 828 OFFCURVE",
"288 604 CURVE",
"375 584 LINE",
"375 688 OFFCURVE",
"388 766 OFFCURVE",
"430 766 CURVE SMOOTH",
"482 766 OFFCURVE",
"486 660 OFFCURVE",
"486 502 CURVE SMOOTH",
"486 344 OFFCURVE",
"478 234 OFFCURVE",
"426 234 CURVE SMOOTH",
"376 234 OFFCURVE",
"375 336 OFFCURVE",
"375 440 CURVE",
"288 420 LINE",
"288 196 OFFCURVE",
"350 -22 OFFCURVE",
"532 -22 CURVE SMOOTH",
"742 -22 OFFCURVE",
"838 156 OFFCURVE",
"838 502 CURVE SMOOTH",
"838 848 OFFCURVE",
"746 1022 OFFCURVE",
"546 1022 CURVE SMOOTH"
);
}
);
width = 900;
},
{
anchors = (
{
name = bottom;
position = "{1023, 0}";
},
{
name = top;
position = "{1023, 1000}";
}
);
layerId = "DF71BB49-08D0-48AB-8F46-D55A70C0C2BD";
paths = (
{
closed = 1;
nodes = (
"657 0 LINE",
"725 142 LINE",
"725 1600 LINE",
"292 1600 LINE",
"292 0 LINE"
);
},
{
closed = 1;
nodes = (
"799 1022 OFFCURVE",
"614 862 OFFCURVE",
"614 611 CURVE",
"723 570 LINE",
"743 660 OFFCURVE",
"878 698 OFFCURVE",
"1066 698 CURVE SMOOTH",
"1327 698 OFFCURVE",
"1408 625 OFFCURVE",
"1408 502 CURVE SMOOTH",
"1408 376 OFFCURVE",
"1340 302 OFFCURVE",
"1077 302 CURVE SMOOTH",
"874 302 OFFCURVE",
"739 373 OFFCURVE",
"723 454 CURVE",
"614 416 LINE",
"614 165 OFFCURVE",
"810 -22 OFFCURVE",
"1209 -22 CURVE SMOOTH",
"1634 -22 OFFCURVE",
"1869 163 OFFCURVE",
"1869 502 CURVE SMOOTH",
"1869 841 OFFCURVE",
"1618 1022 OFFCURVE",
"1206 1022 CURVE SMOOTH"
);
}
);
width = 2100;
}
);
leftKerningGroup = h;
rightKerningGroup = o;
unicode = 0062;
},
{
glyphname = c;
lastChange = "2020-04-30 16:01:05 +0000";
layers = (
{
anchors = (
{
name = bottom;
position = "{496, 0}";
},
{
name = top;
position = "{496, 1000}";
}
);
layerId = "2E286313-D5BF-4FB4-A4B7-BD9BC13B574E";
paths = (
{
closed = 1;
nodes = (
"698 212 LINE",
"672 138 OFFCURVE",
"628 44 OFFCURVE",
"510 44 CURVE SMOOTH",
"386 44 OFFCURVE",
"264 188 OFFCURVE",
"264 502 CURVE SMOOTH",
"264 820 OFFCURVE",
"386 958 OFFCURVE",
"510 958 CURVE SMOOTH",
"624 958 OFFCURVE",
"662 892 OFFCURVE",
"702 784 CURVE",
"768 816 LINE",
"728 922 OFFCURVE",
"656 1024 OFFCURVE",
"510 1024 CURVE SMOOTH",
"364 1024 OFFCURVE",
"192 888 OFFCURVE",
"192 502 CURVE SMOOTH",
"192 120 OFFCURVE",
"364 -22 OFFCURVE",
"510 -22 CURVE SMOOTH",
"656 -22 OFFCURVE",
"742 104 OFFCURVE",
"768 178 CURVE"
);
}
);
width = 900;
},
{
anchors = (
{
name = bottom;
position = "{1156, 0}";
},
{
name = top;
position = "{1156, 1000}";
}
);
layerId = "E338D14E-1DA5-418D-88BC-8956EEA80AB9";
paths = (
{
closed = 1;
nodes = (
"1722 226 LINE",
"1660 152 OFFCURVE",
"1464 44 OFFCURVE",
"1190 44 CURVE SMOOTH",
"916 44 OFFCURVE",
"546 168 OFFCURVE",
"546 502 CURVE SMOOTH",
"546 840 OFFCURVE",
"916 958 OFFCURVE",
"1190 958 CURVE SMOOTH",
"1464 958 OFFCURVE",
"1638 878 OFFCURVE",
"1730 770 CURVE",
"1782 816 LINE",
"1688 922 OFFCURVE",
"1512 1024 OFFCURVE",
"1190 1024 CURVE SMOOTH",
"868 1024 OFFCURVE",
"468 888 OFFCURVE",
"468 502 CURVE SMOOTH",
"468 120 OFFCURVE",
"868 -22 OFFCURVE",
"1190 -22 CURVE SMOOTH",
"1512 -22 OFFCURVE",
"1720 104 OFFCURVE",
"1782 178 CURVE"
);
}
);
width = 2100;
},
{
anchors = (
{
name = bottom;
position = "{500, 0}";
},
{
name = top;
position = "{500, 1000}";
}
);
layerId = "C5C974ED-4386-41E8-AA57-C40E24C26BBD";
paths = (
{
closed = 1;
nodes = (
"572 398 LINE",
"562 300 OFFCURVE",
"544 230 OFFCURVE",
"496 230 CURVE SMOOTH",
"434 230 OFFCURVE",
"418 308 OFFCURVE",
"418 502 CURVE SMOOTH",
"418 700 OFFCURVE",
"434 772 OFFCURVE",
"496 772 CURVE SMOOTH",
"544 772 OFFCURVE",
"562 700 OFFCURVE",
"572 602 CURVE",
"848 746 LINE",
"810 922 OFFCURVE",
"656 1024 OFFCURVE",
"492 1024 CURVE SMOOTH",
"276 1024 OFFCURVE",
"82 868 OFFCURVE",
"82 502 CURVE SMOOTH",
"82 140 OFFCURVE",
"276 -22 OFFCURVE",
"492 -22 CURVE SMOOTH",
"658 -22 OFFCURVE",
"804 92 OFFCURVE",
"850 256 CURVE"
);
}
);
width = 900;
},
{
anchors = (
{
name = bottom;
position = "{1162, 0}";
},
{
name = top;
position = "{1162, 1000}";
}
);
layerId = "DF71BB49-08D0-48AB-8F46-D55A70C0C2BD";
paths = (
{
closed = 1;
nodes = (
"1551 408 LINE",
"1486 340 OFFCURVE",
"1333 296 OFFCURVE",
"1144 296 CURVE SMOOTH",
"954 296 OFFCURVE",
"755 331 OFFCURVE",
"755 502 CURVE SMOOTH",
"755 677 OFFCURVE",
"954 706 OFFCURVE",
"1144 706 CURVE SMOOTH",
"1338 706 OFFCURVE",
"1485 664 OFFCURVE",
"1554 593 CURVE",
"1891 811 LINE",
"1800 922 OFFCURVE",
"1484 1024 OFFCURVE",
"1139 1024 CURVE SMOOTH",
"722 1024 OFFCURVE",
"319 888 OFFCURVE",
"319 502 CURVE SMOOTH",
"319 120 OFFCURVE",
"722 -22 OFFCURVE",
"1139 -22 CURVE SMOOTH",
"1482 -22 OFFCURVE",
"1803 98 OFFCURVE",
"1894 194 CURVE"
);
}
);
width = 2100;
}
);
leftKerningGroup = o;
rightKerningGroup = c;
unicode = 0063;
},
{
glyphname = eth;
lastChange = "2020-04-30 16:01:59 +0000";
layers = (
{
layerId = "2E286313-D5BF-4FB4-A4B7-BD9BC13B574E";
paths = (
{
closed = 1;
nodes = (
"292 44 OFFCURVE",
"218 228 OFFCURVE",
"218 502 CURVE SMOOTH",
"218 780 OFFCURVE",
"284 958 OFFCURVE",
"430 958 CURVE SMOOTH",
"572 958 OFFCURVE",
"668 756 OFFCURVE",
"674 632 CURVE",
"708 678 LINE",
"696 792 OFFCURVE",
"626 1024 OFFCURVE",
"436 1024 CURVE SMOOTH",
"226 1024 OFFCURVE",
"148 808 OFFCURVE",
"148 502 CURVE SMOOTH",
"148 200 OFFCURVE",
"244 -22 OFFCURVE",
"438 -22 CURVE",
"438 44 LINE"
);
},
{
closed = 1;
nodes = (
"212 1504 LINE",
"410 1482 OFFCURVE",
"674 1132 OFFCURVE",
"674 616 CURVE SMOOTH",
"674 138 OFFCURVE",
"578 44 OFFCURVE",
"438 44 CURVE",
"438 -22 LINE",
"614 -22 OFFCURVE",
"746 110 OFFCURVE",
"746 616 CURVE SMOOTH",
"746 1112 OFFCURVE",
"508 1520 OFFCURVE",
"244 1570 CURVE"
);
},
{
closed = 1;
nodes = (
"286 1364 LINE",
"338 1308 LINE",
"576 1480 LINE",
"522 1544 LINE"
);
}
);
width = 900;
},
{
layerId = "E338D14E-1DA5-418D-88BC-8956EEA80AB9";
paths = (
{
closed = 1;
nodes = (
"680 44 OFFCURVE",
"399 202 OFFCURVE",
"399 502 CURVE SMOOTH",
"399 808 OFFCURVE",
"662 958 OFFCURVE",
"1004 958 CURVE SMOOTH",
"1354 958 OFFCURVE",
"1624 756 OFFCURVE",
"1640 632 CURVE",
"1698 658 LINE",
"1670 772 OFFCURVE",
"1460 1024 OFFCURVE",
"1016 1024 CURVE SMOOTH",
"526 1024 OFFCURVE",
"318 808 OFFCURVE",
"318 502 CURVE SMOOTH",
"318 200 OFFCURVE",
"568 -22 OFFCURVE",
"1022 -22 CURVE",
"1022 44 LINE"
);
},
{
closed = 1;
nodes = (
"574 1524 LINE",
"1046 1502 OFFCURVE",
"1638 1112 OFFCURVE",
"1638 596 CURVE SMOOTH",
"1638 178 OFFCURVE",
"1348 44 OFFCURVE",
"1022 44 CURVE",
"1022 -22 LINE",
"1432 -22 OFFCURVE",
"1720 156 OFFCURVE",
"1720 602 CURVE SMOOTH",
"1720 1102 OFFCURVE",
"1228 1530 OFFCURVE",
"638 1590 CURVE"
);
},
{
closed = 1;
nodes = (
"756 1314 LINE",
"810 1258 LINE",
"1248 1530 LINE",
"1204 1596 LINE"
);
}
);
width = 2100;
},
{
layerId = "C5C974ED-4386-41E8-AA57-C40E24C26BBD";
paths = (
{
closed = 1;
nodes = (
"354 214 OFFCURVE",
"344 348 OFFCURVE",
"344 502 CURVE SMOOTH",
"344 660 OFFCURVE",
"358 788 OFFCURVE",
"420 788 CURVE SMOOTH",
"484 788 OFFCURVE",
"498 720 OFFCURVE",
"512 626 CURVE",
"632 744 LINE",
"579 954 OFFCURVE",
"476 1024 OFFCURVE",
"374 1024 CURVE SMOOTH",
"190 1024 OFFCURVE",
"30 868 OFFCURVE",
"30 502 CURVE SMOOTH",
"30 140 OFFCURVE",
"206 -22 OFFCURVE",
"398 -22 CURVE",
"408 214 LINE"
);
},
{
closed = 1;
nodes = (
"126 1424 LINE",
"396 1356 OFFCURVE",
"488 1030 OFFCURVE",
"488 654 CURVE SMOOTH",
"488 280 OFFCURVE",
"484 214 OFFCURVE",
"408 214 CURVE",
"398 -22 LINE",
"616 -22 OFFCURVE",
"802 70 OFFCURVE",
"802 654 CURVE SMOOTH",
"802 1212 OFFCURVE",
"454 1536 OFFCURVE",
"218 1606 CURVE"
);
},
{
closed = 1;
nodes = (
"130 1342 LINE",
"256 1200 LINE",
"632 1470 LINE",
"524 1614 LINE"
);
}
);
width = 900;
},
{
layerId = "DF71BB49-08D0-48AB-8F46-D55A70C0C2BD";
paths = (
{
closed = 1;
nodes = (
"737 275 OFFCURVE",
"565 337 OFFCURVE",
"565 502 CURVE SMOOTH",
"565 670 OFFCURVE",
"722 727 OFFCURVE",
"950 727 CURVE SMOOTH",
"1192 727 OFFCURVE",
"1366 694 OFFCURVE",
"1420 624 CURVE",
"1595 748 LINE",
"1460 948 OFFCURVE",
"1263 1024 OFFCURVE",
"932 1024 CURVE SMOOTH",
"497 1024 OFFCURVE",
"158 869 OFFCURVE",
"158 502 CURVE SMOOTH",
"158 139 OFFCURVE",
"536 -22 OFFCURVE",
"968 -22 CURVE",
"968 275 LINE"
);
},
{
closed = 1;
nodes = (
"457 1415 LINE",
"1027 1331 OFFCURVE",
"1386 973 OFFCURVE",
"1386 648 CURVE SMOOTH",
"1386 371 OFFCURVE",
"1275 275 OFFCURVE",
"968 275 CURVE",
"968 -22 LINE",
"1435 -22 OFFCURVE",
"1796 102 OFFCURVE",
"1796 654 CURVE SMOOTH",
"1796 1237 OFFCURVE",
"1155 1552 OFFCURVE",
"603 1639 CURVE"
);
},
{
closed = 1;
nodes = (
"544 1284 LINE",
"699 1111 LINE",
"1324 1516 LINE",
"1207 1691 LINE"
);
}
);
width = 2100;
}
);
unicode = 00F0;
},
{
glyphname = e;
lastChange = "2020-04-30 16:03:08 +0000";
layers = (
{
anchors = (
{
name = bottom;
position = "{456, 0}";
},
{
name = ogonek;
position = "{470, 0}";
},
{
name = top;
position = "{456, 1000}";
}
);
layerId = "2E286313-D5BF-4FB4-A4B7-BD9BC13B574E";
paths = (
{
closed = 1;
nodes = (
"186 498 LINE",
"750 498 LINE",
"750 778 OFFCURVE",
"666 1024 OFFCURVE",
"456 1024 CURVE SMOOTH",
"294 1024 OFFCURVE",
"144 868 OFFCURVE",
"144 502 CURVE SMOOTH",
"144 140 OFFCURVE",
"272 -22 OFFCURVE",
"450 -22 CURVE SMOOTH",
"626 -22 OFFCURVE",
"712 128 OFFCURVE",
"734 184 CURVE",
"672 218 LINE",
"656 166 OFFCURVE",
"602 44 OFFCURVE",
"450 44 CURVE SMOOTH",
"282 44 OFFCURVE",
"210 212 OFFCURVE",
"210 502 CURVE SMOOTH",
"210 816 OFFCURVE",
"312 958 OFFCURVE",
"452 958 CURVE SMOOTH",
"624 958 OFFCURVE",
"680 746 OFFCURVE",
"680 562 CURVE",
"186 562 LINE"
);
}
);
width = 900;
},
{
anchors = (
{
name = bottom;
position = "{1076, 0}";
},
{
name = ogonek;
position = "{1110, 0}";
},
{
name = top;
position = "{1076, 1000}";
}
);
layerId = "E338D14E-1DA5-418D-88BC-8956EEA80AB9";
paths = (
{
closed = 1;
nodes = (
"420 498 LINE",
"1734 498 LINE",
"1734 820 OFFCURVE",
"1458 1024 OFFCURVE",
"1068 1024 CURVE SMOOTH",
"690 1024 OFFCURVE",
"356 854 OFFCURVE",
"356 510 CURVE SMOOTH",
"356 168 OFFCURVE",
"668 -22 OFFCURVE",
"1064 -22 CURVE SMOOTH",
"1406 -22 OFFCURVE",
"1638 110 OFFCURVE",
"1718 184 CURVE",
"1656 238 LINE",
"1590 168 OFFCURVE",
"1390 44 OFFCURVE",
"1064 44 CURVE SMOOTH",
"670 44 OFFCURVE",
"432 232 OFFCURVE",
"432 502 CURVE SMOOTH",
"432 816 OFFCURVE",
"722 958 OFFCURVE",
"1068 958 CURVE SMOOTH",
"1448 958 OFFCURVE",
"1648 752 OFFCURVE",
"1648 562 CURVE",
"420 562 LINE"
);
}
);
width = 2100;
},
{
anchors = (
{
name = bottom;
position = "{424, 0}";
},
{
name = ogonek;
position = "{438, 0}";
},
{
name = top;
position = "{424, 1000}";
}
);
layerId = "C5C974ED-4386-41E8-AA57-C40E24C26BBD";
paths = (
{
closed = 1;
nodes = (
"314 428 LINE",
"850 428 LINE",
"850 828 OFFCURVE",
"684 1024 OFFCURVE",
"442 1024 CURVE SMOOTH",
"210 1024 OFFCURVE",
"30 830 OFFCURVE",
"30 500 CURVE SMOOTH",
"30 170 OFFCURVE",
"210 -22 OFFCURVE",
"446 -22 CURVE SMOOTH",
"662 -22 OFFCURVE",
"782 112 OFFCURVE",
"812 228 CURVE",
"530 356 LINE",
"518 282 OFFCURVE",
"484 234 OFFCURVE",
"446 234 CURVE SMOOTH",
"386 234 OFFCURVE",
"364 302 OFFCURVE",
"364 492 CURVE SMOOTH",
"364 694 OFFCURVE",
"388 776 OFFCURVE",
"448 776 CURVE SMOOTH",
"508 776 OFFCURVE",
"522 694 OFFCURVE",
"522 642 CURVE",
"314 642 LINE"
);
}
);
width = 900;
},
{
anchors = (
{
name = bottom;
position = "{1032, 0}";
},
{
name = ogonek;
position = "{1066, 0}";
},
{
name = top;
position = "{1032, 1000}";
}
);
layerId = "DF71BB49-08D0-48AB-8F46-D55A70C0C2BD";
paths = (
{
closed = 1;
nodes = (
"593 413 LINE",
"1869 413 LINE",
"1869 863 OFFCURVE",
"1471 1024 OFFCURVE",
"1049 1024 CURVE SMOOTH",
"586 1024 OFFCURVE",
"201 870 OFFCURVE",
"201 507 CURVE SMOOTH",
"201 141 OFFCURVE",
"584 -22 OFFCURVE",
"1058 -22 CURVE SMOOTH",
"1453 -22 OFFCURVE",
"1678 79 OFFCURVE",
"1794 141 CURVE",
"1435 378 LINE",
"1375 328 OFFCURVE",
"1231 302 OFFCURVE",
"1058 302 CURVE SMOOTH",
"811 302 OFFCURVE",
"641 368 OFFCURVE",
"641 502 CURVE SMOOTH",
"641 664 OFFCURVE",
"825 731 OFFCURVE",
"1062 731 CURVE SMOOTH",
"1288 731 OFFCURVE",
"1391 654 OFFCURVE",
"1400 631 CURVE",
"593 631 LINE"
);
}
);
width = 2100;
}
);
leftKerningGroup = o;
rightKerningGroup = e;
unicode = 0065;
},
{
glyphname = f;
lastChange = "2020-04-30 16:03:38 +0000";
layers = (
{
layerId = "2E286313-D5BF-4FB4-A4B7-BD9BC13B574E";
paths = (
{
closed = 1;
nodes = (
"160 936 LINE",
"778 936 LINE",
"778 1000 LINE",
"160 1000 LINE"
);
},
{
closed = 1;
nodes = (
"478 1614 OFFCURVE",
"376 1488 OFFCURVE",
"376 1252 CURVE SMOOTH",
"376 0 LINE",
"446 0 LINE",
"446 1236 LINE SMOOTH",
"446 1468 OFFCURVE",
"522 1548 OFFCURVE",
"654 1548 CURVE SMOOTH",
"756 1548 OFFCURVE",
"798 1470 OFFCURVE",
"808 1448 CURVE",
"858 1488 LINE",
"844 1522 OFFCURVE",
"778 1614 OFFCURVE",
"652 1614 CURVE SMOOTH"
);
}
);
width = 900;
},
{
layerId = "E338D14E-1DA5-418D-88BC-8956EEA80AB9";
paths = (
{
closed = 1;
nodes = (
"286 936 LINE",
"1806 936 LINE",
"1806 1000 LINE",
"286 1000 LINE"
);
},
{
closed = 1;
nodes = (
"1066 1614 OFFCURVE",
"838 1444 OFFCURVE",
"838 1088 CURVE SMOOTH",
"838 0 LINE",
"914 0 LINE",
"914 1072 LINE SMOOTH",
"914 1444 OFFCURVE",
"1170 1548 OFFCURVE",
"1418 1548 CURVE SMOOTH",
"1636 1548 OFFCURVE",
"1732 1480 OFFCURVE",
"1768 1446 CURVE",
"1822 1492 LINE",
"1798 1520 OFFCURVE",
"1684 1614 OFFCURVE",
"1412 1614 CURVE SMOOTH"
);
}
);
width = 2100;
},
{
layerId = "C5C974ED-4386-41E8-AA57-C40E24C26BBD";
paths = (
{
closed = 1;
nodes = (
"84 756 LINE",
"800 756 LINE",
"800 1000 LINE",
"84 1000 LINE"
);
},
{
closed = 1;
nodes = (
"398 1614 OFFCURVE",
"230 1484 OFFCURVE",
"230 1252 CURVE SMOOTH",
"230 0 LINE",
"554 0 LINE",
"554 1190 LINE SMOOTH",
"554 1318 OFFCURVE",
"580 1358 OFFCURVE",
"636 1358 CURVE SMOOTH",
"682 1358 OFFCURVE",
"706 1312 OFFCURVE",
"720 1268 CURVE",
"922 1448 LINE",
"898 1502 OFFCURVE",
"798 1614 OFFCURVE",
"616 1614 CURVE SMOOTH"
);
}
);
width = 900;
},
{
layerId = "DF71BB49-08D0-48AB-8F46-D55A70C0C2BD";
paths = (
{
closed = 1;
nodes = (
"183 692 LINE",
"1693 692 LINE",
"1693 1000 LINE",
"183 1000 LINE"
);
},
{
closed = 1;
nodes = (
"959 1614 OFFCURVE",
"640 1439 OFFCURVE",
"640 1088 CURVE SMOOTH",
"640 0 LINE",
"1061 0 LINE",
"1061 1010 LINE SMOOTH",
"1061 1240 OFFCURVE",
"1249 1310 OFFCURVE",
"1394 1310 CURVE SMOOTH",
"1538 1310 OFFCURVE",
"1607 1265 OFFCURVE",
"1649 1202 CURVE",
"1909 1438 LINE",
"1873 1491 OFFCURVE",
"1714 1614 OFFCURVE",
"1363 1614 CURVE SMOOTH"
);
}
);
width = 2100;
}
);
leftKerningGroup = f;
rightKerningGroup = f;
unicode = 0066;
},
{
glyphname = g;
lastChange = "2020-04-30 21:07:06 +0000";
layers = (
{
anchors = (
{
name = bottom;
position = "{450, 0}";
},
{
name = top;
position = "{450, 1000}";
}
);
layerId = "2E286313-D5BF-4FB4-A4B7-BD9BC13B574E";
paths = (
{
closed = 1;
nodes = (
"614 298 OFFCURVE",
"756 416 OFFCURVE",
"756 662 CURVE SMOOTH",
"756 906 OFFCURVE",
"620 1024 OFFCURVE",
"452 1024 CURVE SMOOTH",
"282 1024 OFFCURVE",
"146 906 OFFCURVE",
"146 662 CURVE SMOOTH",
"146 416 OFFCURVE",
"290 298 OFFCURVE",
"452 298 CURVE SMOOTH"
);
},
{
closed = 1;
nodes = (
"312 364 OFFCURVE",
"216 474 OFFCURVE",
"216 662 CURVE SMOOTH",
"216 848 OFFCURVE",
"298 960 OFFCURVE",
"452 960 CURVE SMOOTH",
"604 960 OFFCURVE",
"686 848 OFFCURVE",
"686 662 CURVE SMOOTH",
"686 474 OFFCURVE",
"590 364 OFFCURVE",
"452 364 CURVE SMOOTH"
);
},
{
closed = 1;
nodes = (
"814 1020 LINE",
"766 1066 LINE",
"628 918 LINE",
"676 870 LINE"
);
},
{
closed = 1;
nodes = (
"350 64 LINE SMOOTH",
"286 64 OFFCURVE",
"202 106 OFFCURVE",
"202 196 CURVE SMOOTH",
"202 270 OFFCURVE",
"274 322 OFFCURVE",
"342 344 CURVE",
"296 386 LINE",
"230 363 OFFCURVE",
"132 296 OFFCURVE",
"132 192 CURVE SMOOTH",
"132 82 OFFCURVE",
"246 -2 OFFCURVE",
"304 -2 CURVE SMOOTH",
"494 -2 LINE SMOOTH",
"666 -2 OFFCURVE",
"708 -62 OFFCURVE",
"708 -168 CURVE SMOOTH",
"708 -296 OFFCURVE",
"602 -340 OFFCURVE",
"440 -340 CURVE SMOOTH",
"270 -340 OFFCURVE",
"180 -270 OFFCURVE",
"180 -166 CURVE SMOOTH",
"180 -30 OFFCURVE",
"304 0 OFFCURVE",
"392 18 CURVE",
"332 50 LINE",
"264 38 OFFCURVE",
"112 -8 OFFCURVE",
"112 -166 CURVE SMOOTH",
"112 -312 OFFCURVE",
"228 -402 OFFCURVE",
"440 -402 CURVE SMOOTH",
"648 -402 OFFCURVE",
"776 -316 OFFCURVE",
"776 -164 CURVE SMOOTH",
"776 -20 OFFCURVE",
"676 64 OFFCURVE",
"498 64 CURVE SMOOTH"
);
}
);
width = 900;
},
{
anchors = (
{
name = bottom;
position = "{1050, 0}";
},
{
name = top;
position = "{1050, 1000}";
}
);
layerId = "E338D14E-1DA5-418D-88BC-8956EEA80AB9";
paths = (
{
closed = 1;
nodes = (
"1408 298 OFFCURVE",
"1718 396 OFFCURVE",
"1718 662 CURVE SMOOTH",
"1718 926 OFFCURVE",
"1424 1024 OFFCURVE",
"1054 1024 CURVE SMOOTH",
"680 1024 OFFCURVE",
"386 926 OFFCURVE",
"386 662 CURVE SMOOTH",
"386 396 OFFCURVE",
"700 298 OFFCURVE",
"1054 298 CURVE SMOOTH"
);
},
{
closed = 1;
nodes = (
"728 364 OFFCURVE",
"464 454 OFFCURVE",
"464 662 CURVE SMOOTH",
"464 868 OFFCURVE",
"694 960 OFFCURVE",
"1054 960 CURVE SMOOTH",
"1410 960 OFFCURVE",
"1640 868 OFFCURVE",
"1640 662 CURVE SMOOTH",
"1640 454 OFFCURVE",
"1376 364 OFFCURVE",
"1054 364 CURVE SMOOTH"
);
},
{
closed = 1;
nodes = (
"1816 1020 LINE",
"1764 1066 LINE",
"1552 856 LINE",
"1602 808 LINE"
);
},
{
closed = 1;
nodes = (
"664 64 LINE SMOOTH",
"552 64 OFFCURVE",
"494 110 OFFCURVE",
"494 184 CURVE SMOOTH",
"494 274 OFFCURVE",
"634 338 OFFCURVE",
"758 360 CURVE",
"670 386 LINE",
"552 366 OFFCURVE",
"422 288 OFFCURVE",
"422 182 CURVE SMOOTH",
"422 90 OFFCURVE",
"502 -2 OFFCURVE",
"696 -2 CURVE SMOOTH",
"1318 -2 LINE SMOOTH",
"1626 -2 OFFCURVE",
"1682 -64 OFFCURVE",
"1682 -148 CURVE SMOOTH",
"1682 -258 OFFCURVE",
"1516 -358 OFFCURVE",
"1044 -358 CURVE SMOOTH",
"557 -358 OFFCURVE",
"424 -274 OFFCURVE",
"424 -170 CURVE SMOOTH",
"424 -54 OFFCURVE",
"580 8 OFFCURVE",
"686 18 CURVE",
"603 45 LINE",
"533 43 OFFCURVE",
"352 -30 OFFCURVE",
"352 -166 CURVE SMOOTH",
"352 -312 OFFCURVE",
"461 -422 OFFCURVE",
"1044 -422 CURVE SMOOTH",
"1622 -422 OFFCURVE",
"1758 -280 OFFCURVE",
"1758 -146 CURVE SMOOTH",
"1758 -30 OFFCURVE",
"1656 64 OFFCURVE",
"1336 64 CURVE SMOOTH"
);
}
);
width = 2100;
},
{
anchors = (
{
name = bottom;
position = "{428, 0}";
},
{
name = top;
position = "{428, 1000}";
}
);
layerId = "C5C974ED-4386-41E8-AA57-C40E24C26BBD";
paths = (
{
closed = 1;
nodes = (
"600 298 OFFCURVE",
"814 404 OFFCURVE",
"814 662 CURVE SMOOTH",
"814 918 OFFCURVE",
"618 1024 OFFCURVE",
"430 1024 CURVE SMOOTH",
"240 1024 OFFCURVE",
"44 918 OFFCURVE",
"44 662 CURVE SMOOTH",
"44 404 OFFCURVE",
"236 298 OFFCURVE",
"430 298 CURVE SMOOTH"
);
},
{
closed = 1;
nodes = (
"386 540 OFFCURVE",
"378 582 OFFCURVE",
"378 662 CURVE SMOOTH",
"378 740 OFFCURVE",
"386 782 OFFCURVE",
"430 782 CURVE SMOOTH",
"472 782 OFFCURVE",
"482 740 OFFCURVE",
"482 662 CURVE SMOOTH",
"482 582 OFFCURVE",
"474 540 OFFCURVE",
"430 540 CURVE SMOOTH"
);
},
{
closed = 1;
nodes = (
"896 938 LINE",
"730 1098 LINE",
"456 822 LINE",
"622 658 LINE"
);
},
{
closed = 1;
nodes = (
"454 232 LINE SMOOTH",
"390 232 OFFCURVE",
"334 240 OFFCURVE",
"334 270 CURVE SMOOTH",
"334 294 OFFCURVE",
"346 306 OFFCURVE",
"376 332 CURVE",
"230 400 LINE",
"176 378 OFFCURVE",
"62 328 OFFCURVE",
"62 198 CURVE SMOOTH",
"62 60 OFFCURVE",
"274 -2 OFFCURVE",
"342 -2 CURVE SMOOTH",
"474 -2 LINE SMOOTH",
"526 -2 OFFCURVE",
"562 -34 OFFCURVE",
"562 -84 CURVE SMOOTH",
"562 -144 OFFCURVE",
"508 -168 OFFCURVE",
"430 -168 CURVE SMOOTH",
"350 -168 OFFCURVE",
"318 -137 OFFCURVE",
"318 -86 CURVE SMOOTH",
"318 -38 OFFCURVE",
"338 0 OFFCURVE",
"392 14 CURVE",
"244 94 LINE",
"184 78 OFFCURVE",
"30 15 OFFCURVE",
"30 -131 CURVE SMOOTH",
"30 -305 OFFCURVE",
"206 -400 OFFCURVE",
"428 -400 CURVE SMOOTH",
"662 -400 OFFCURVE",
"862 -327 OFFCURVE",
"862 -76 CURVE SMOOTH",
"862 158 OFFCURVE",
"698 232 OFFCURVE",
"518 232 CURVE SMOOTH"
);
}
);
width = 900;
},
{
anchors = (
{
name = bottom;
position = "{1020, 0}";
},
{
name = top;
position = "{1020, 1000}";
}
);
layerId = "DF71BB49-08D0-48AB-8F46-D55A70C0C2BD";
paths = (
{
closed = 1;
nodes = (
"1390 318 OFFCURVE",
"1797 380 OFFCURVE",
"1797 662 CURVE SMOOTH",
"1797 942 OFFCURVE",
"1422 1024 OFFCURVE",
"1024 1024 CURVE SMOOTH",
"623 1024 OFFCURVE",
"248 942 OFFCURVE",
"248 662 CURVE SMOOTH",
"248 380 OFFCURVE",
"627 318 OFFCURVE",
"1024 318 CURVE SMOOTH"
);
},
{
closed = 1;
nodes = (
"845 613 OFFCURVE",
"684 625 OFFCURVE",
"684 667 CURVE SMOOTH",
"684 716 OFFCURVE",
"830 728 OFFCURVE",
"1024 728 CURVE SMOOTH",
"1215 728 OFFCURVE",
"1363 716 OFFCURVE",
"1363 667 CURVE SMOOTH",
"1363 625 OFFCURVE",
"1202 613 OFFCURVE",
"1024 613 CURVE SMOOTH"
);
},
{
closed = 1;
nodes = (
"1928 909 LINE",
"1715 1109 LINE",
"1319 726 LINE",
"1529 520 LINE"
);
},
{
closed = 1;
nodes = (
"805 262 LINE SMOOTH",
"688 262 OFFCURVE",
"653 268 OFFCURVE",
"653 288 CURVE SMOOTH",
"653 307 OFFCURVE",
"712 330 OFFCURVE",
"784 344 CURVE",
"581 405 LINE",
"479 386 OFFCURVE",
"327 348 OFFCURVE",
"327 207 CURVE SMOOTH",
"327 77 OFFCURVE",
"541 -2 OFFCURVE",
"748 -2 CURVE SMOOTH",
"1226 -2 LINE SMOOTH",
"1371 -2 OFFCURVE",
"1484 -10 OFFCURVE",
"1484 -44 CURVE SMOOTH",
"1484 -72 OFFCURVE",
"1377 -102 OFFCURVE",
"1021 -102 CURVE SMOOTH",
"677 -102 OFFCURVE",
"552 -93 OFFCURVE",
"552 -41 CURVE SMOOTH",
"552 -14 OFFCURVE",
"605 14 OFFCURVE",
"664 18 CURVE",
"483 86 LINE",
"414 78 OFFCURVE",
"201 24 OFFCURVE",
"201 -119 CURVE SMOOTH",
"201 -302 OFFCURVE",
"436 -396 OFFCURVE",
"1018 -396 CURVE SMOOTH",
"1630 -396 OFFCURVE",
"1875 -241 OFFCURVE",
"1875 -27 CURVE SMOOTH",
"1875 171 OFFCURVE",
"1685 262 OFFCURVE",
"1363 262 CURVE SMOOTH"
);
}
);
width = 2100;
}
);
unicode = 0067;
},
{
glyphname = g.ss01;
lastChange = "2020-04-30 15:52:17 +0000";
layers = (
{
layerId = "2E286313-D5BF-4FB4-A4B7-BD9BC13B574E";
paths = (
{
closed = 1;
nodes = (
"626 -22 OFFCURVE",
"720 148 OFFCURVE",
"720 372 CURVE",
"668 340 LINE",
"652 174 OFFCURVE",
"576 44 OFFCURVE",
"438 44 CURVE SMOOTH",
"310 44 OFFCURVE",
"204 178 OFFCURVE",
"204 502 CURVE SMOOTH",
"204 832 OFFCURVE",
"296 956 OFFCURVE",
"426 956 CURVE SMOOTH",
"564 956 OFFCURVE",
"650 790 OFFCURVE",
"668 644 CURVE",
"720 604 LINE",
"720 828 OFFCURVE",
"602 1022 OFFCURVE",
"414 1022 CURVE SMOOTH",
"270 1022 OFFCURVE",
"136 868 OFFCURVE",
"136 502 CURVE SMOOTH",
"136 136 OFFCURVE",
"286 -22 OFFCURVE",
"430 -22 CURVE SMOOTH"
);
},
{
closed = 1;
nodes = (
"666 -384 OFFCURVE",
"734 -220 OFFCURVE",
"734 16 CURVE SMOOTH",
"734 234 LINE",
"664 170 LINE",
"664 56 LINE SMOOTH",
"664 -176 OFFCURVE",
"648 -318 OFFCURVE",
"434 -318 CURVE SMOOTH",
"292 -318 OFFCURVE",
"240 -226 OFFCURVE",
"224 -196 CURVE",
"184 -252 LINE",
"200 -284 OFFCURVE",
"276 -384 OFFCURVE",
"430 -384 CURVE SMOOTH"
);
},
{
closed = 1;
nodes = (
"734 78 LINE",
"734 1000 LINE",
"664 1000 LINE",
"664 142 LINE",
"664 78 LINE"
);
}
);
width = 900;
},
{
layerId = "E338D14E-1DA5-418D-88BC-8956EEA80AB9";
paths = (
{
closed = 1;
nodes = (
"1430 -22 OFFCURVE",
"1634 208 OFFCURVE",
"1634 432 CURVE",
"1572 400 LINE",
"1534 234 OFFCURVE",
"1354 44 OFFCURVE",
"1032 44 CURVE SMOOTH",
"722 44 OFFCURVE",
"440 178 OFFCURVE",
"440 502 CURVE SMOOTH",
"440 832 OFFCURVE",
"690 956 OFFCURVE",
"1002 956 CURVE SMOOTH",
"1324 956 OFFCURVE",
"1528 770 OFFCURVE",
"1572 624 CURVE",
"1634 584 LINE",
"1634 808 OFFCURVE",
"1394 1022 OFFCURVE",
"976 1022 CURVE SMOOTH",
"640 1022 OFFCURVE",
"362 868 OFFCURVE",
"362 502 CURVE SMOOTH",
"362 136 OFFCURVE",
"676 -22 OFFCURVE",
"1012 -22 CURVE SMOOTH"
);
},
{
closed = 1;
nodes = (
"1338 -384 OFFCURVE",
"1638 -232 OFFCURVE",
"1638 74 CURVE SMOOTH",
"1638 128 LINE",
"1566 128 LINE",
"1566 100 LINE SMOOTH",
"1566 -182 OFFCURVE",
"1302 -318 OFFCURVE",
"1006 -318 CURVE SMOOTH",
"684 -318 OFFCURVE",
"492 -206 OFFCURVE",
"456 -182 CURVE",
"410 -244 LINE",
"450 -268 OFFCURVE",
"664 -384 OFFCURVE",
"1006 -384 CURVE SMOOTH"
);
},
{
closed = 1;
nodes = (
"1638 108 LINE",
"1638 1000 LINE",
"1566 1000 LINE",
"1566 142 LINE",
"1566 108 LINE"
);
}
);
width = 2100;
},
{
layerId = "C5C974ED-4386-41E8-AA57-C40E24C26BBD";
paths = (
{
closed = 1;
nodes = (
"466 -22 OFFCURVE",
"590 170 OFFCURVE",
"590 394 CURVE",
"506 454 LINE",
"506 308 OFFCURVE",
"484 214 OFFCURVE",
"420 214 CURVE SMOOTH",
"334 214 OFFCURVE",
"332 324 OFFCURVE",
"332 502 CURVE SMOOTH",
"332 680 OFFCURVE",
"340 786 OFFCURVE",
"406 786 CURVE SMOOTH",
"470 786 OFFCURVE",
"488 678 OFFCURVE",
"506 552 CURVE",
"590 612 LINE",
"590 790 OFFCURVE",
"472 1022 OFFCURVE",
"332 1022 CURVE SMOOTH",
"120 1022 OFFCURVE",
"28 848 OFFCURVE",
"28 502 CURVE SMOOTH",
"28 156 OFFCURVE",
"114 -22 OFFCURVE",
"326 -22 CURVE SMOOTH"
);
},
{
closed = 1;
nodes = (
"606 -384 OFFCURVE",
"768 -256 OFFCURVE",
"768 20 CURVE SMOOTH",
"768 264 LINE",
"462 206 LINE",
"462 24 LINE SMOOTH",
"462 -74 OFFCURVE",
"480 -148 OFFCURVE",
"346 -148 CURVE SMOOTH",
"270 -148 OFFCURVE",
"236 -120 OFFCURVE",
"214 -92 CURVE",
"36 -292 LINE",
"64 -332 OFFCURVE",
"198 -384 OFFCURVE",
"320 -384 CURVE SMOOTH"
);
},
{
closed = 1;
nodes = (
"768 48 LINE",
"768 1000 LINE",
"462 1000 LINE",
"462 142 LINE",
"462 34 LINE"
);
}
);
width = 900;
},
{
layerId = "DF71BB49-08D0-48AB-8F46-D55A70C0C2BD";
paths = (
{
closed = 1;
nodes = (
"1267 -22 OFFCURVE",
"1471 238 OFFCURVE",
"1471 462 CURVE",
"1311 460 LINE",
"1273 334 OFFCURVE",
"1201 275 OFFCURVE",
"980 275 CURVE SMOOTH",
"727 275 OFFCURVE",
"641 377 OFFCURVE",
"641 502 CURVE SMOOTH",
"641 626 OFFCURVE",
"750 725 OFFCURVE",
"975 725 CURVE SMOOTH",
"1195 725 OFFCURVE",
"1267 659 OFFCURVE",
"1311 526 CURVE",
"1471 595 LINE",
"1471 756 OFFCURVE",
"1272 1022 OFFCURVE",
"878 1022 CURVE SMOOTH",
"450 1022 OFFCURVE",
"188 841 OFFCURVE",
"188 502 CURVE SMOOTH",
"188 163 OFFCURVE",
"457 -22 OFFCURVE",
"884 -22 CURVE SMOOTH"
);
},
{
closed = 1;
nodes = (
"1255 -384 OFFCURVE",
"1684 -281 OFFCURVE",
"1684 79 CURVE SMOOTH",
"1684 169 LINE",
"1292 177 LINE",
"1292 57 LINE SMOOTH",
"1292 -44 OFFCURVE",
"1072 -87 OFFCURVE",
"886 -87 CURVE SMOOTH",
"652 -87 OFFCURVE",
"486 -62 OFFCURVE",
"442 -41 CURVE",
"209 -298 LINE",
"265 -333 OFFCURVE",
"557 -384 OFFCURVE",
"856 -384 CURVE SMOOTH"
);
},
{
closed = 1;
nodes = (
"1684 67 LINE",
"1684 1000 LINE",
"1292 1000 LINE",
"1292 142 LINE",
"1292 48 LINE"
);
}
);
width = 2100;
}
);
leftKerningGroup = g;
rightKerningGroup = g;
},
{
glyphname = h;
lastChange = "2020-04-30 16:05:12 +0000";
layers = (
{
anchors = (
{
name = bottom;
position = "{490, 0}";
},
{
name = center;
position = "{234, 1298}";
},
{
name = top;
position = "{490, 1539}";
}
);
layerId = "2E286313-D5BF-4FB4-A4B7-BD9BC13B574E";
paths = (
{
closed = 1;
nodes = (
"766 0 LINE",
"766 624 LINE SMOOTH",
"766 910 OFFCURVE",
"692 1024 OFFCURVE",
"526 1024 CURVE SMOOTH",
"330 1024 OFFCURVE",
"220 826 OFFCURVE",
"218 624 CURVE",
"278 624 LINE",
"284 816 OFFCURVE",
"384 958 OFFCURVE",
"520 958 CURVE SMOOTH",
"666 958 OFFCURVE",
"696 838 OFFCURVE",
"696 604 CURVE SMOOTH",
"696 0 LINE"
);
},
{
closed = 1;
nodes = (
"282 0 LINE",
"282 1600 LINE",
"212 1600 LINE",
"212 0 LINE"
);
}
);
width = 900;
},
{
anchors = (
{
name = bottom;
position = "{1070, 0}";
},
{
name = center;
position = "{472, 1298}";
},
{
name = top;
position = "{1124, 1539}";
}
);
layerId = "E338D14E-1DA5-418D-88BC-8956EEA80AB9";
paths = (
{
closed = 1;
nodes = (
"1694 0 LINE",
"1694 484 LINE SMOOTH",
"1694 890 OFFCURVE",
"1532 1024 OFFCURVE",
"1160 1024 CURVE SMOOTH",
"704 1024 OFFCURVE",
"458 806 OFFCURVE",
"454 524 CURVE",
"514 524 LINE",
"528 796 OFFCURVE",
"830 958 OFFCURVE",
"1146 958 CURVE SMOOTH",
"1488 958 OFFCURVE",
"1618 844 OFFCURVE",
"1618 464 CURVE SMOOTH",
"1618 0 LINE"
);
},
{
closed = 1;
nodes = (
"518 0 LINE",
"518 1600 LINE",
"442 1600 LINE",
"442 0 LINE"
);
}
);
width = 2100;
},
{
anchors = (
{
name = bottom;
position = "{469, 0}";
},
{
name = center;
position = "{235, 1298}";
},
{
name = top;
position = "{490, 1539}";
}
);
layerId = "C5C974ED-4386-41E8-AA57-C40E24C26BBD";
paths = (
{
closed = 1;
nodes = (
"837 0 LINE",
"837 650 LINE SMOOTH",
"837 918 OFFCURVE",
"730 1022 OFFCURVE",
"584 1022 CURVE SMOOTH",
"432 1022 OFFCURVE",
"315 897 OFFCURVE",
"315 672 CURVE",
"381 632 LINE",
"381 698 OFFCURVE",
"392 766 OFFCURVE",
"443 766 CURVE SMOOTH",
"485 766 OFFCURVE",
"501 719 OFFCURVE",
"501 621 CURVE SMOOTH",
"501 0 LINE"
);
},
{
closed = 1;
nodes = (
"381 0 LINE",
"381 1600 LINE",
"47 1600 LINE",
"47 0 LINE"
);
}
);
width = 900;
},
{
anchors = (
{
name = bottom;
position = "{1041, 0}";
},
{
name = center;
position = "{473, 1298}";
},
{
name = top;
position = "{1124, 1539}";
}
);
layerId = "DF71BB49-08D0-48AB-8F46-D55A70C0C2BD";
paths = (
{
closed = 1;
nodes = (
"1790 0 LINE",
"1790 519 LINE SMOOTH",
"1790 863 OFFCURVE",
"1596 1021 OFFCURVE",
"1209 1021 CURVE SMOOTH",
"808 1021 OFFCURVE",
"505 886 OFFCURVE",
"504 576 CURVE",
"652 535 LINE",
"655 636 OFFCURVE",
"841 697 OFFCURVE",
"1041 697 CURVE SMOOTH",
"1267 697 OFFCURVE",
"1353 668 OFFCURVE",
"1353 487 CURVE SMOOTH",
"1353 0 LINE"
);
},
{
closed = 1;
nodes = (
"652 0 LINE",
"652 1600 LINE",
"218 1600 LINE",
"218 0 LINE"
);
}
);
width = 2100;
}
);
leftKerningGroup = h;
rightKerningGroup = n;
unicode = 0068;
},
{
glyphname = i;
lastChange = "2020-04-30 16:05:55 +0000";
layers = (
{
anchors = (
{
name = bottom;
position = "{450, 0}";
}
);
layerId = "2E286313-D5BF-4FB4-A4B7-BD9BC13B574E";
paths = (
{
closed = 1;
nodes = (
"494 1306 OFFCURVE",
"534 1346 OFFCURVE",
"534 1396 CURVE SMOOTH",
"534 1446 OFFCURVE",
"494 1486 OFFCURVE",
"444 1486 CURVE SMOOTH",
"394 1486 OFFCURVE",
"354 1446 OFFCURVE",
"354 1396 CURVE SMOOTH",
"354 1346 OFFCURVE",
"394 1306 OFFCURVE",
"444 1306 CURVE SMOOTH"
);
},
{
closed = 1;
nodes = (
"478 1000 LINE",
"154 1000 LINE",
"154 936 LINE",
"408 936 LINE",
"408 0 LINE",
"726 0 LINE",
"726 64 LINE",
"478 64 LINE"
);
}
);
width = 900;
},
{
anchors = (
{
name = bottom;
position = "{1050, 0}";
}
);
layerId = "E338D14E-1DA5-418D-88BC-8956EEA80AB9";
paths = (
{
closed = 1;
nodes = (
"1086 1306 OFFCURVE",
"1126 1346 OFFCURVE",
"1126 1396 CURVE SMOOTH",
"1126 1446 OFFCURVE",
"1086 1486 OFFCURVE",
"1036 1486 CURVE SMOOTH",
"986 1486 OFFCURVE",
"946 1446 OFFCURVE",
"946 1396 CURVE SMOOTH",
"946 1346 OFFCURVE",
"986 1306 OFFCURVE",
"1036 1306 CURVE SMOOTH"
);
},
{
closed = 1;
nodes = (
"1070 1000 LINE",
"382 1000 LINE",
"382 936 LINE",
"1000 936 LINE",
"1000 0 LINE",
"1704 0 LINE",
"1704 64 LINE",
"1070 64 LINE"
);
}
);
width = 2100;
},
{
anchors = (
{
name = bottom;
position = "{408, 0}";
}
);
layerId = "C5C974ED-4386-41E8-AA57-C40E24C26BBD";
paths = (
{
closed = 1;
nodes = (
"566 1174 OFFCURVE",
"664 1272 OFFCURVE",
"664 1396 CURVE SMOOTH",
"664 1520 OFFCURVE",
"566 1618 OFFCURVE",
"442 1618 CURVE SMOOTH",
"318 1618 OFFCURVE",
"220 1520 OFFCURVE",
"220 1396 CURVE SMOOTH",
"220 1272 OFFCURVE",
"318 1174 OFFCURVE",
"442 1174 CURVE SMOOTH"
);
},
{
closed = 1;
nodes = (
"611 1000 LINE",
"75 1000 LINE",
"75 756 LINE",
"273 756 LINE",
"273 0 LINE",
"812 0 LINE",
"812 244 LINE",
"611 244 LINE"
);
}
);
width = 900;
},
{
anchors = (
{
name = bottom;
position = "{993, 0}";
}
);
layerId = "DF71BB49-08D0-48AB-8F46-D55A70C0C2BD";
paths = (
{
closed = 1;
nodes = (
"1167 1176 OFFCURVE",
"1264 1273 OFFCURVE",
"1264 1396 CURVE SMOOTH",
"1264 1519 OFFCURVE",
"1167 1616 OFFCURVE",
"1044 1616 CURVE SMOOTH",
"921 1616 OFFCURVE",
"824 1519 OFFCURVE",
"824 1396 CURVE SMOOTH",
"824 1273 OFFCURVE",
"921 1176 OFFCURVE",
"1044 1176 CURVE SMOOTH"
);
},
{
closed = 1;
nodes = (
"1251 1000 LINE",
"275 1000 LINE",
"275 692 LINE",
"817 692 LINE",
"817 0 LINE",
"1821 0 LINE",
"1821 308 LINE",
"1251 308 LINE"
);
}
);
width = 2100;
}
);
leftKerningGroup = i;
rightKerningGroup = i;
unicode = 0069;
},
{
glyphname = i.ss01;
lastChange = "2020-04-30 15:52:49 +0000";
layers = (
{
anchors = (
{
name = bottom;
position = "{450, 0}";
}
);
layerId = "2E286313-D5BF-4FB4-A4B7-BD9BC13B574E";
paths = (
{
closed = 1;
nodes = (
"484 1306 OFFCURVE",
"524 1346 OFFCURVE",
"524 1396 CURVE SMOOTH",
"524 1446 OFFCURVE",
"484 1486 OFFCURVE",
"434 1486 CURVE SMOOTH",
"384 1486 OFFCURVE",
"344 1446 OFFCURVE",
"344 1396 CURVE SMOOTH",
"344 1346 OFFCURVE",
"384 1306 OFFCURVE",
"434 1306 CURVE SMOOTH"
);
},
{
closed = 1;
nodes = (
"520 40 OFFCURVE",
"464 60 OFFCURVE",
"464 246 CURVE SMOOTH",
"464 1000 LINE",
"166 1000 LINE",
"166 936 LINE",
"394 936 LINE",
"394 234 LINE SMOOTH",
"394 28 OFFCURVE",
"460 -22 OFFCURVE",
"562 -22 CURVE SMOOTH",
"644 -22 OFFCURVE",
"718 -2 OFFCURVE",
"726 0 CURVE",
"726 64 LINE",
"718 62 OFFCURVE",
"642 40 OFFCURVE",
"576 40 CURVE SMOOTH"
);
}
);
width = 900;
},
{
anchors = (
{
name = bottom;
position = "{1050, 0}";
}
);
layerId = "E338D14E-1DA5-418D-88BC-8956EEA80AB9";
paths = (
{
closed = 1;
nodes = (
"1052 1306 OFFCURVE",
"1092 1346 OFFCURVE",
"1092 1396 CURVE SMOOTH",
"1092 1446 OFFCURVE",
"1052 1486 OFFCURVE",
"1002 1486 CURVE SMOOTH",
"952 1486 OFFCURVE",
"912 1446 OFFCURVE",
"912 1396 CURVE SMOOTH",
"912 1346 OFFCURVE",
"952 1306 OFFCURVE",
"1002 1306 CURVE SMOOTH"
);
},
{
closed = 1;
nodes = (
"1150 40 OFFCURVE",
"1038 60 OFFCURVE",
"1038 246 CURVE SMOOTH",
"1038 1000 LINE",
"388 1000 LINE",
"388 936 LINE",
"962 936 LINE",
"962 234 LINE SMOOTH",
"962 28 OFFCURVE",
"1096 -22 OFFCURVE",
"1312 -22 CURVE SMOOTH",
"1502 -22 OFFCURVE",
"1674 -2 OFFCURVE",
"1694 0 CURVE",
"1694 64 LINE",
"1676 62 OFFCURVE",
"1498 40 OFFCURVE",
"1344 40 CURVE SMOOTH"
);
}
);
width = 2100;
},
{
anchors = (
{
name = bottom;
position = "{408, 0}";
}
);
layerId = "C5C974ED-4386-41E8-AA57-C40E24C26BBD";
paths = (
{
closed = 1;
nodes = (
"532 1210 OFFCURVE",
"614 1292 OFFCURVE",
"614 1396 CURVE SMOOTH",
"614 1500 OFFCURVE",
"532 1582 OFFCURVE",
"428 1582 CURVE SMOOTH",
"324 1582 OFFCURVE",
"242 1500 OFFCURVE",
"242 1396 CURVE SMOOTH",
"242 1292 OFFCURVE",
"324 1210 OFFCURVE",
"428 1210 CURVE SMOOTH"
);
},
{
closed = 1;
nodes = (
"594 212 OFFCURVE",
"582 218 OFFCURVE",
"582 344 CURVE SMOOTH",
"582 1000 LINE",
"132 1000 LINE",
"132 756 LINE",
"276 756 LINE",
"276 244 LINE SMOOTH",
"276 18 OFFCURVE",
"422 -22 OFFCURVE",
"570 -22 CURVE SMOOTH",
"670 -22 OFFCURVE",
"746 -4 OFFCURVE",
"758 0 CURVE",
"758 246 LINE",
"752 242 OFFCURVE",
"684 212 OFFCURVE",
"634 212 CURVE SMOOTH"
);
}
);
width = 900;
},
{
anchors = (
{
name = bottom;
position = "{993, 0}";
}
);
layerId = "DF71BB49-08D0-48AB-8F46-D55A70C0C2BD";
paths = (
{
closed = 1;
nodes = (
"1117 1176 OFFCURVE",
"1214 1273 OFFCURVE",
"1214 1396 CURVE SMOOTH",
"1214 1519 OFFCURVE",
"1117 1616 OFFCURVE",
"994 1616 CURVE SMOOTH",
"871 1616 OFFCURVE",
"774 1519 OFFCURVE",
"774 1396 CURVE SMOOTH",
"774 1273 OFFCURVE",
"871 1176 OFFCURVE",
"994 1176 CURVE SMOOTH"
);
},
{
closed = 1;
nodes = (
"1241 273 OFFCURVE",
"1198 285 OFFCURVE",
"1198 379 CURVE SMOOTH",
"1198 1000 LINE",
"342 1000 LINE",
"342 692 LINE",
"802 692 LINE",
"802 248 LINE SMOOTH",
"802 29 OFFCURVE",
"1010 -22 OFFCURVE",
"1323 -22 CURVE SMOOTH",
"1533 -22 OFFCURVE",
"1712 -5 OFFCURVE",
"1738 0 CURVE",
"1738 311 LINE",
"1722 306 OFFCURVE",
"1527 273 OFFCURVE",
"1396 273 CURVE SMOOTH"
);
}
);
width = 2100;
}
);
},
{
glyphname = idotless;
lastChange = "2020-04-30 15:52:17 +0000";
layers = (
{
anchors = (
{
name = bottom;
position = "{600, 0}";
},
{
name = ogonek;
position = "{476, 0}";
},
{
name = top;
position = "{444, 1000}";
}
);
layerId = "2E286313-D5BF-4FB4-A4B7-BD9BC13B574E";
paths = (
{
closed = 1;
nodes = (
"478 1000 LINE",
"134 1000 LINE",
"134 936 LINE",
"408 936 LINE",
"408 0 LINE",
"726 0 LINE",
"726 64 LINE",
"478 64 LINE"
);
}
);
width = 900;
},
{
anchors = (
{
name = bottom;
position = "{600, 0}";
},
{
name = ogonek;
position = "{1052, 0}";
},
{
name = top;
position = "{1020, 1000}";
}
);
layerId = "E338D14E-1DA5-418D-88BC-8956EEA80AB9";
paths = (
{
closed = 1;
nodes = (
"1072 1000 LINE",
"318 1000 LINE",
"318 936 LINE",
"996 936 LINE",
"996 0 LINE",
"1704 0 LINE",
"1704 64 LINE",
"1072 64 LINE"
);
}
);
width = 2100;
},
{
anchors = (
{
name = bottom;
position = "{600, 0}";
},
{
name = ogonek;
position = "{422, 0}";
},
{
name = top;
position = "{418, 1000}";
}
);
layerId = "C5C974ED-4386-41E8-AA57-C40E24C26BBD";
paths = (
{
closed = 1;
nodes = (
"594 1000 LINE",
"152 1000 LINE",
"152 756 LINE",
"290 756 LINE",
"290 0 LINE",
"718 0 LINE",
"718 244 LINE",
"594 244 LINE"
);
}
);
width = 900;
},
{
anchors = (
{
name = bottom;
position = "{600, 0}";
},
{
name = ogonek;
position = "{978, 0}";
},
{
name = top;
position = "{984, 1000}";
}
);
layerId = "DF71BB49-08D0-48AB-8F46-D55A70C0C2BD";
paths = (
{
closed = 1;
nodes = (
"1229 1000 LINE",
"342 1000 LINE",
"342 692 LINE",
"835 692 LINE",
"835 0 LINE",
"1693 0 LINE",
"1693 308 LINE",
"1229 308 LINE"
);
}
);
width = 2100;
}
);
unicode = 0131;
},
{
glyphname = j;
lastChange = "2020-04-30 21:05:15 +0000";
layers = (
{
layerId = "2E286313-D5BF-4FB4-A4B7-BD9BC13B574E";
paths = (
{
closed = 1;
nodes = (
"672 1306 OFFCURVE",
"712 1346 OFFCURVE",
"712 1396 CURVE SMOOTH",
"712 1446 OFFCURVE",
"672 1486 OFFCURVE",
"622 1486 CURVE SMOOTH",
"572 1486 OFFCURVE",
"532 1446 OFFCURVE",
"532 1396 CURVE SMOOTH",
"532 1346 OFFCURVE",
"572 1306 OFFCURVE",
"622 1306 CURVE SMOOTH"
);
},
{
closed = 1;
nodes = (
"288 1000 LINE",
"288 936 LINE",
"592 936 LINE",
"592 -4 LINE SMOOTH",
"592 -176 OFFCURVE",
"526 -318 OFFCURVE",
"384 -318 CURVE SMOOTH",
"308 -318 OFFCURVE",
"270 -296 OFFCURVE",
"252 -282 CURVE",
"208 -344 LINE",
"230 -358 OFFCURVE",
"280 -384 OFFCURVE",
"384 -384 CURVE SMOOTH",
"532 -384 OFFCURVE",
"662 -254 OFFCURVE",
"662 -24 CURVE SMOOTH",
"662 1000 LINE"
);
}
);
width = 900;
},
{
layerId = "E338D14E-1DA5-418D-88BC-8956EEA80AB9";
paths = (
{
closed = 1;
nodes = (
"1532 1306 OFFCURVE",
"1572 1346 OFFCURVE",
"1572 1396 CURVE SMOOTH",
"1572 1446 OFFCURVE",
"1532 1486 OFFCURVE",
"1482 1486 CURVE SMOOTH",
"1432 1486 OFFCURVE",
"1392 1448 OFFCURVE",
"1392 1396 CURVE SMOOTH",
"1392 1346 OFFCURVE",
"1432 1306 OFFCURVE",
"1482 1306 CURVE SMOOTH"
);
},
{
closed = 1;
nodes = (
"558 1000 LINE",
"558 936 LINE",
"1460 936 LINE",
"1460 56 LINE SMOOTH",
"1460 -214 OFFCURVE",
"1214 -318 OFFCURVE",
"918 -318 CURVE SMOOTH",
"664 -318 OFFCURVE",
"492 -252 OFFCURVE",
"458 -222 CURVE",
"412 -284 LINE",
"450 -312 OFFCURVE",
"644 -384 OFFCURVE",
"918 -384 CURVE SMOOTH",
"1178 -384 OFFCURVE",
"1528 -298 OFFCURVE",
"1528 16 CURVE SMOOTH",
"1528 1000 LINE"
);
}
);
width = 2100;
},
{
layerId = "C5C974ED-4386-41E8-AA57-C40E24C26BBD";
paths = (
{
closed = 1;
nodes = (
"680 1174 OFFCURVE",
"778 1272 OFFCURVE",
"778 1396 CURVE SMOOTH",
"778 1520 OFFCURVE",
"680 1618 OFFCURVE",
"556 1618 CURVE SMOOTH",
"432 1618 OFFCURVE",
"334 1520 OFFCURVE",
"334 1396 CURVE SMOOTH",
"334 1272 OFFCURVE",
"432 1174 OFFCURVE",
"556 1174 CURVE SMOOTH"
);
},
{
closed = 1;
nodes = (
"169 1000 LINE",
"169 756 LINE",
"395 756 LINE",
"395 -4 LINE SMOOTH",
"395 -88 OFFCURVE",
"371 -128 OFFCURVE",
"331 -128 CURVE SMOOTH",
"305 -128 OFFCURVE",
"281 -108 OFFCURVE",
"265 -90 CURVE",
"105 -328 LINE",
"133 -350 OFFCURVE",
"218 -384 OFFCURVE",
"318 -384 CURVE SMOOTH",
"594 -384 OFFCURVE",
"733 -246 OFFCURVE",
"733 -36 CURVE SMOOTH",
"733 1000 LINE"
);
}
);
width = 900;
},
{
layerId = "DF71BB49-08D0-48AB-8F46-D55A70C0C2BD";
paths = (
{
closed = 1;
nodes = (
"1556 1176 OFFCURVE",
"1653 1273 OFFCURVE",
"1653 1396 CURVE SMOOTH",
"1653 1519 OFFCURVE",
"1556 1616 OFFCURVE",
"1433 1616 CURVE SMOOTH",
"1310 1616 OFFCURVE",
"1213 1519 OFFCURVE",
"1213 1396 CURVE SMOOTH",
"1213 1273 OFFCURVE",
"1310 1176 OFFCURVE",
"1433 1176 CURVE SMOOTH"
);
},
{
closed = 1;
nodes = (
"493 1000 LINE",
"493 692 LINE",
"1213 692 LINE",
"1213 126 LINE SMOOTH",
"1213 -25 OFFCURVE",
"1098 -60 OFFCURVE",
"943 -60 CURVE SMOOTH",
"757 -60 OFFCURVE",
"604 3 OFFCURVE",
"572 39 CURVE",
"369 -262 LINE",
"415 -301 OFFCURVE",
"657 -394 OFFCURVE",
"925 -394 CURVE SMOOTH",
"1359 -394 OFFCURVE",
"1645 -287 OFFCURVE",
"1645 0 CURVE SMOOTH",
"1645 1000 LINE"
);
}
);
width = 2100;
}
);
leftKerningGroup = j;
rightKerningGroup = j;
unicode = 006A;
},
{
glyphname = jdotless;
lastChange = "2020-04-30 16:06:13 +0000";
layers = (
{
anchors = (
{
name = bottom;
position = "{450, -400}";
},
{
name = top;
position = "{471, 1000}";
}
);
layerId = "C5C974ED-4386-41E8-AA57-C40E24C26BBD";
paths = (
{
closed = 1;
nodes = (
"109 1000 LINE",
"109 756 LINE",
"305 756 LINE",
"305 -4 LINE SMOOTH",
"305 -88 OFFCURVE",
"281 -128 OFFCURVE",
"241 -128 CURVE SMOOTH",
"215 -128 OFFCURVE",
"191 -108 OFFCURVE",
"175 -90 CURVE",
"15 -328 LINE",
"43 -350 OFFCURVE",
"128 -384 OFFCURVE",
"228 -384 CURVE SMOOTH",
"504 -384 OFFCURVE",
"643 -246 OFFCURVE",
"643 -36 CURVE SMOOTH",
"643 1000 LINE"
);
}
);
width = 900;
},
{
anchors = (
{
name = bottom;
position = "{450, -400}";
},
{
name = top;
position = "{562, 1000}";
}
);
layerId = "2E286313-D5BF-4FB4-A4B7-BD9BC13B574E";
paths = (
{
closed = 1;
nodes = (
"228 1000 LINE",
"228 936 LINE",
"532 936 LINE",
"532 -4 LINE SMOOTH",
"532 -176 OFFCURVE",
"466 -318 OFFCURVE",
"324 -318 CURVE SMOOTH",
"248 -318 OFFCURVE",
"210 -296 OFFCURVE",
"192 -282 CURVE",
"148 -344 LINE",
"170 -358 OFFCURVE",
"220 -384 OFFCURVE",
"324 -384 CURVE SMOOTH",
"472 -384 OFFCURVE",
"602 -254 OFFCURVE",
"602 -24 CURVE SMOOTH",
"602 1000 LINE"
);
}
);
width = 900;
},
{
anchors = (
{
name = bottom;
position = "{1050, -400}";
},
{
name = top;
position = "{1308, 1000}";
}
);
layerId = "E338D14E-1DA5-418D-88BC-8956EEA80AB9";
paths = (
{
closed = 1;
nodes = (
"442 1000 LINE",
"442 936 LINE",
"1268 936 LINE",
"1268 56 LINE SMOOTH",
"1268 -214 OFFCURVE",
"1098 -318 OFFCURVE",
"802 -318 CURVE SMOOTH",
"548 -318 OFFCURVE",
"376 -252 OFFCURVE",
"342 -222 CURVE",
"296 -284 LINE",
"334 -312 OFFCURVE",
"528 -384 OFFCURVE",
"802 -384 CURVE SMOOTH",
"1062 -384 OFFCURVE",
"1336 -298 OFFCURVE",
"1336 16 CURVE SMOOTH",
"1336 1000 LINE"
);
}
);
width = 2100;
},
{
anchors = (
{
name = bottom;
position = "{1051, -400}";
},
{
name = top;
position = "{1185, 1000}";
}
);
layerId = "DF71BB49-08D0-48AB-8F46-D55A70C0C2BD";
paths = (
{
closed = 1;
nodes = (
"240 1000 LINE",
"240 692 LINE",
"960 692 LINE",
"960 126 LINE SMOOTH",
"960 -25 OFFCURVE",
"845 -60 OFFCURVE",
"690 -60 CURVE SMOOTH",
"504 -60 OFFCURVE",
"351 3 OFFCURVE",
"319 39 CURVE",
"116 -262 LINE",
"162 -301 OFFCURVE",
"404 -394 OFFCURVE",
"672 -394 CURVE SMOOTH",
"1106 -394 OFFCURVE",
"1392 -287 OFFCURVE",
"1392 0 CURVE SMOOTH",
"1392 1000 LINE"
);
}
);
width = 2100;
}
);
unicode = 0237;
},
{
glyphname = k;
lastChange = "2020-04-30 15:52:49 +0000";
layers = (
{
anchors = (
{
name = bottom;
position = "{450, 0}";
},
{
name = top;
position = "{450, 1000}";
}
);
layerId = "2E286313-D5BF-4FB4-A4B7-BD9BC13B574E";
paths = (
{
closed = 1;
nodes = (
"364 536 LINE",
"414 492 LINE",
"764 1000 LINE",
"688 1000 LINE"
);
},
{
closed = 1;
nodes = (
"786 0 LINE",
"422 540 LINE",
"346 540 LINE",
"708 0 LINE"
);
},
{
closed = 1;
nodes = (
"298 550 LINE",
"298 1600 LINE",
"228 1600 LINE",
"228 0 LINE",
"298 0 LINE",
"298 486 LINE",
"400 486 LINE",
"400 550 LINE"
);
}
);
width = 900;
},
{
anchors = (
{
name = bottom;
position = "{1050, 0}";
},
{
name = top;
position = "{1050, 1000}";
}
);
layerId = "E338D14E-1DA5-418D-88BC-8956EEA80AB9";
paths = (
{
closed = 1;
nodes = (
"932 536 LINE",
"986 492 LINE",
"1764 1000 LINE",
"1652 1000 LINE"
);
},
{
closed = 1;
nodes = (
"1816 0 LINE",
"1006 540 LINE",
"908 520 LINE",
"1704 0 LINE"
);
},
{
closed = 1;
nodes = (
"620 550 LINE",
"620 1600 LINE",
"552 1600 LINE",
"552 0 LINE",
"620 0 LINE",
"620 486 LINE",
"992 486 LINE",
"992 550 LINE"
);
}
);
width = 2100;
},
{
anchors = (
{
name = bottom;
position = "{448, 0}";
},
{
name = top;
position = "{448, 1000}";
}
);
layerId = "C5C974ED-4386-41E8-AA57-C40E24C26BBD";
paths = (
{
closed = 1;
nodes = (
"358 558 LINE",
"618 490 LINE",
"884 1000 LINE",
"534 1000 LINE"
);
},
{
closed = 1;
nodes = (
"908 0 LINE",
"614 558 LINE",
"306 564 LINE",
"558 0 LINE"
);
},
{
closed = 1;
nodes = (
"388 630 LINE",
"388 1600 LINE",
"52 1600 LINE",
"52 0 LINE",
"388 0 LINE",
"388 406 LINE",
"456 406 LINE",
"456 630 LINE"
);
}
);
width = 900;
},
{
anchors = (
{
name = bottom;
position = "{1047, 0}";
},
{
name = top;
position = "{1047, 1000}";
}
);
layerId = "DF71BB49-08D0-48AB-8F46-D55A70C0C2BD";
paths = (
{
closed = 1;
nodes = (
"913 566 LINE",
"1290 489 LINE",
"1927 1000 LINE",
"1437 1000 LINE"
);
},
{
closed = 1;
nodes = (
"1981 0 LINE",
"1294 564 LINE",
"843 553 LINE",
"1495 0 LINE"
);
},
{
closed = 1;
nodes = (
"742 659 LINE",
"742 1600 LINE",
"313 1600 LINE",
"313 0 LINE",
"742 0 LINE",
"742 377 LINE",
"1068 377 LINE",
"1068 659 LINE"
);
}
);
width = 2100;
}
);
leftKerningGroup = h;
rightKerningGroup = k;
unicode = 006B;
},
{
glyphname = kgreenlandic;
lastChange = "2020-04-30 16:06:33 +0000";
layers = (
{
anchors = (
{
name = bottom;
position = "{490, 0}";
},
{
name = top;
position = "{457, 1000}";
}
);
layerId = "C5C974ED-4386-41E8-AA57-C40E24C26BBD";
paths = (
{
closed = 1;
nodes = (
"884 0 LINE",
"674 511 LINE",
"856 1000 LINE",
"504 1000 LINE",
"414 593 LINE",
"412 593 LINE",
"412 1000 LINE",
"76 1000 LINE",
"76 0 LINE",
"412 0 LINE",
"412 433 LINE",
"414 433 LINE",
"530 0 LINE"
);
}
);
width = 900;
},
{
anchors = (
{
name = bottom;
position = "{480, 0}";
},
{
name = top;
position = "{480, 1000}";
}
);
layerId = "2E286313-D5BF-4FB4-A4B7-BD9BC13B574E";
paths = (
{
closed = 1;
nodes = (
"774 0 LINE",
"462 497 LINE",
"740 1000 LINE",
"668 1000 LINE",
"412 535 LINE",
"332 535 LINE",
"332 1000 LINE",
"266 1000 LINE",
"266 0 LINE",
"332 0 LINE",
"332 471 LINE",
"402 471 LINE",
"702 0 LINE"
);
}
);
width = 900;
},
{
anchors = (
{
name = bottom;
position = "{1090, 0}";
},
{
name = top;
position = "{1090, 1000}";
}
);
layerId = "E338D14E-1DA5-418D-88BC-8956EEA80AB9";
paths = (
{
closed = 1;
nodes = (
"1758 0 LINE",
"966 551 LINE",
"1700 1000 LINE",
"1588 1000 LINE",
"906 585 LINE",
"622 585 LINE",
"622 1000 LINE",
"554 1000 LINE",
"554 0 LINE",
"622 0 LINE",
"622 521 LINE",
"894 521 LINE",
"1646 0 LINE"
);
}
);
width = 2100;
},
{
anchors = (
{
name = bottom;
position = "{1103, 0}";
},
{
name = top;
position = "{1059, 1000}";
}
);
layerId = "DF71BB49-08D0-48AB-8F46-D55A70C0C2BD";
paths = (
{
closed = 1;
nodes = (
"1907 0 LINE",
"1196 500 LINE",
"1857 1000 LINE",
"1365 1000 LINE",
"909 654 LINE",
"730 654 LINE",
"730 1000 LINE",
"296 1000 LINE",
"296 0 LINE",
"730 0 LINE",
"730 339 LINE",
"910 339 LINE",
"1412 0 LINE"
);
}
);
width = 2100;
}
);
unicode = 0138;
},
{
glyphname = l;
lastChange = "2020-04-30 15:52:49 +0000";
layers = (
{
anchors = (
{
name = bottom;
position = "{450, 0}";
},
{
name = center;
position = "{384, 756}";
},
{
name = top;
position = "{382, 1600}";
},
{
name = topright;
position = "{870, 1400}";
}
);
layerId = "2E286313-D5BF-4FB4-A4B7-BD9BC13B574E";
paths = (
{
closed = 1;
nodes = (
"420 1600 LINE",
"142 1600 LINE",
"142 1536 LINE",
"350 1536 LINE",
"350 0 LINE",
"676 0 LINE",
"676 64 LINE",
"420 64 LINE"
);
}
);
width = 900;
},
{
anchors = (
{
name = bottom;
position = "{1050, 0}";
},
{
name = center;
position = "{892, 756}";
},
{
name = top;
position = "{892, 1600}";
},
{
name = topright;
position = "{2030, 1400}";
}
);
layerId = "E338D14E-1DA5-418D-88BC-8956EEA80AB9";
paths = (
{
closed = 1;
nodes = (
"932 1600 LINE",
"288 1600 LINE",
"288 1536 LINE",
"864 1536 LINE",
"864 0 LINE",
"1600 0 LINE",
"1600 64 LINE",
"932 64 LINE"
);
}
);
width = 2100;
},
{
anchors = (
{
name = bottom;
position = "{438, 0}";
},
{
name = center;
position = "{478, 756}";
},
{
name = top;
position = "{448, 1600}";
},
{
name = topright;
position = "{820, 1400}";
}
);
layerId = "C5C974ED-4386-41E8-AA57-C40E24C26BBD";
paths = (
{
closed = 1;
nodes = (
"598 1600 LINE",
"64 1600 LINE",
"64 1356 LINE",
"262 1356 LINE",
"262 0 LINE",
"784 0 LINE",
"784 244 LINE",
"598 244 LINE"
);
}
);
width = 900;
},
{
anchors = (
{
name = bottom;
position = "{1034, 0}";
},
{
name = center;
position = "{1019, 756}";
},
{
name = top;
position = "{981, 1600}";
},
{
name = topright;
position = "{1962, 1400}";
}
);
layerId = "DF71BB49-08D0-48AB-8F46-D55A70C0C2BD";
paths = (
{
closed = 1;
nodes = (
"1173 1600 LINE",
"182 1600 LINE",
"182 1292 LINE",
"744 1292 LINE",
"744 0 LINE",
"1746 0 LINE",
"1746 308 LINE",
"1173 308 LINE"
);
}
);
width = 2100;
}
);
unicode = 006C;
},
{
glyphname = l.ss01;
lastChange = "2020-04-30 15:52:49 +0000";
layers = (
{
anchors = (
{
name = bottom;
position = "{534, -2}";
},
{
name = center;
position = "{418, 782}";
},
{
name = top;
position = "{418, 1600}";
},
{
name = topright;
position = "{782, 1000}";
}
);
layerId = "2E286313-D5BF-4FB4-A4B7-BD9BC13B574E";
paths = (
{
closed = 1;
nodes = (
"512 40 OFFCURVE",
"460 74 OFFCURVE",
"460 246 CURVE SMOOTH",
"460 1600 LINE",
"148 1600 LINE",
"148 1536 LINE",
"390 1536 LINE",
"390 234 LINE SMOOTH",
"390 28 OFFCURVE",
"472 -22 OFFCURVE",
"564 -22 CURVE SMOOTH",
"646 -22 OFFCURVE",
"718 -2 OFFCURVE",
"728 0 CURVE",
"728 64 LINE",
"720 62 OFFCURVE",
"644 40 OFFCURVE",
"578 40 CURVE SMOOTH"
);
}
);
width = 900;
},
{
anchors = (
{
name = bottom;
position = "{1246, -2}";
},
{
name = center;
position = "{974, 782}";
},
{
name = top;
position = "{974, 1600}";
},
{
name = topright;
position = "{2030, 1000}";
}
);
layerId = "E338D14E-1DA5-418D-88BC-8956EEA80AB9";
paths = (
{
closed = 1;
nodes = (
"1194 40 OFFCURVE",
"1002 60 OFFCURVE",
"1002 246 CURVE SMOOTH",
"1002 1600 LINE",
"344 1600 LINE",
"344 1536 LINE",
"934 1536 LINE",
"934 234 LINE SMOOTH",
"934 28 OFFCURVE",
"1140 -22 OFFCURVE",
"1356 -22 CURVE SMOOTH",
"1546 -22 OFFCURVE",
"1676 -2 OFFCURVE",
"1698 0 CURVE",
"1698 64 LINE",
"1680 62 OFFCURVE",
"1502 40 OFFCURVE",
"1348 40 CURVE SMOOTH"
);
}
);
width = 2100;
},
{
anchors = (
{
name = bottom;
position = "{484, -2}";
},
{
name = center;
position = "{422, 782}";
},
{
name = top;
position = "{422, 1600}";
},
{
name = topright;
position = "{750, 1000}";
}
);
layerId = "C5C974ED-4386-41E8-AA57-C40E24C26BBD";
paths = (
{
closed = 1;
nodes = (
"590 212 OFFCURVE",
"594 240 OFFCURVE",
"594 344 CURVE SMOOTH",
"594 1600 LINE",
"114 1600 LINE",
"114 1356 LINE",
"288 1356 LINE",
"288 244 LINE SMOOTH",
"288 18 OFFCURVE",
"416 -22 OFFCURVE",
"560 -22 CURVE SMOOTH",
"674 -22 OFFCURVE",
"774 0 OFFCURVE",
"774 0 CURVE",
"774 246 LINE",
"768 242 OFFCURVE",
"680 212 OFFCURVE",
"616 212 CURVE SMOOTH"
);
}
);
width = 900;
},
{
anchors = (
{
name = bottom;
position = "{1178, -2}";
},
{
name = center;
position = "{980, 782}";
},
{
name = top;
position = "{980, 1600}";
},
{
name = topright;
position = "{1987, 1000}";
}
);
layerId = "DF71BB49-08D0-48AB-8F46-D55A70C0C2BD";
paths = (
{
closed = 1;
nodes = (
"1288 273 OFFCURVE",
"1184 290 OFFCURVE",
"1184 379 CURVE SMOOTH",
"1184 1600 LINE",
"298 1600 LINE",
"298 1292 LINE",
"796 1292 LINE",
"796 248 LINE SMOOTH",
"796 38 OFFCURVE",
"1006 -22 OFFCURVE",
"1351 -22 CURVE SMOOTH",
"1584 -22 OFFCURVE",
"1752 1 OFFCURVE",
"1761 0 CURVE",
"1761 311 LINE",
"1745 306 OFFCURVE",
"1549 273 OFFCURVE",
"1400 273 CURVE SMOOTH"
);
}
);
width = 2100;
}
);
leftKerningGroup = h;
rightKerningGroup = l;
},
{
glyphname = lslash;
lastChange = "2020-04-30 15:52:49 +0000";
layers = (
{
components = (
{
name = l;
}
);
layerId = "2E286313-D5BF-4FB4-A4B7-BD9BC13B574E";
paths = (
{
closed = 1;
nodes = (
"174 406 LINE",
"590 822 LINE",
"590 904 LINE",
"174 486 LINE"
);
}
);
width = 900;
},
{
components = (
{
name = l;
}
);
layerId = "E338D14E-1DA5-418D-88BC-8956EEA80AB9";
paths = (
{
closed = 1;
nodes = (
"512 406 LINE",
"1272 822 LINE",
"1272 904 LINE",
"512 486 LINE"
);
}
);
width = 2100;
},
{
components = (
{
alignment = -1;
name = l;
}
);
layerId = "C5C974ED-4386-41E8-AA57-C40E24C26BBD";
paths = (
{
closed = 1;
nodes = (
"156 266 LINE",
"686 890 LINE",
"686 1152 LINE",
"156 526 LINE"
);
}
);
width = 900;
},
{
components = (
{
alignment = -1;
name = l;
}
);
layerId = "DF71BB49-08D0-48AB-8F46-D55A70C0C2BD";
paths = (
{
closed = 1;
nodes = (
"488 216 LINE",
"1403 914 LINE",
"1403 1241 LINE",
"488 540 LINE"
);
}
);
width = 2100;
}
);
unicode = 0142;
},
{
glyphname = m;
lastChange = "2020-04-30 16:07:19 +0000";
layers = (
{
anchors = (
{
name = bottom;
position = "{450, 0}";
},
{
name = top;
position = "{450, 1000}";
}
);
layerId = "2E286313-D5BF-4FB4-A4B7-BD9BC13B574E";
paths = (
{
closed = 1;
nodes = (
"846 0 LINE",
"846 744 LINE SMOOTH",
"846 870 OFFCURVE",
"820 1022 OFFCURVE",
"670 1022 CURVE SMOOTH",
"522 1022 OFFCURVE",
"432 890 OFFCURVE",
"432 666 CURVE",
"478 710 LINE",
"482 810 OFFCURVE",
"550 956 OFFCURVE",
"648 956 CURVE SMOOTH",
"742 956 OFFCURVE",
"776 902 OFFCURVE",
"776 684 CURVE SMOOTH",
"776 0 LINE"
);
},
{
closed = 1;
nodes = (
"126 0 LINE",
"126 824 LINE",
"126 1000 LINE",
"56 1000 LINE",
"56 0 LINE"
);
},
{
closed = 1;
nodes = (
"482 0 LINE",
"482 774 LINE",
"482 950 OFFCURVE",
"408 1022 OFFCURVE",
"306 1022 CURVE SMOOTH",
"182 1022 OFFCURVE",
"80 908 OFFCURVE",
"80 684 CURVE",
"122 724 LINE",
"124 802 OFFCURVE",
"194 956 OFFCURVE",
"292 956 CURVE SMOOTH",
"374 956 OFFCURVE",
"414 902 OFFCURVE",
"414 684 CURVE SMOOTH",
"414 0 LINE"
);
}
);
width = 900;
},
{
anchors = (
{
name = bottom;
position = "{1050, 0}";
},
{
name = top;
position = "{1050, 1000}";
}
);
layerId = "E338D14E-1DA5-418D-88BC-8956EEA80AB9";
paths = (
{
closed = 1;
nodes = (
"1872 0 LINE",
"1872 604 LINE SMOOTH",
"1872 890 OFFCURVE",
"1734 1022 OFFCURVE",
"1482 1022 CURVE SMOOTH",
"1196 1022 OFFCURVE",
"1032 842 OFFCURVE",
"1032 658 CURVE",
"1078 692 LINE",
"1102 770 OFFCURVE",
"1220 956 OFFCURVE",
"1468 956 CURVE SMOOTH",
"1670 956 OFFCURVE",
"1804 862 OFFCURVE",
"1804 604 CURVE SMOOTH",
"1804 0 LINE"
);
},
{
closed = 1;
nodes = (
"318 0 LINE",
"318 784 LINE",
"318 1000 LINE",
"250 1000 LINE",
"250 0 LINE"
);
},
{
closed = 1;
nodes = (
"1082 0 LINE",
"1082 702 LINE",
"1082 878 OFFCURVE",
"936 1022 OFFCURVE",
"712 1022 CURVE SMOOTH",
"442 1022 OFFCURVE",
"268 848 OFFCURVE",
"268 664 CURVE",
"314 684 LINE",
"338 758 OFFCURVE",
"452 956 OFFCURVE",
"698 956 CURVE SMOOTH",
"900 956 OFFCURVE",
"1014 862 OFFCURVE",
"1014 604 CURVE SMOOTH",
"1014 0 LINE"
);
}
);
width = 2100;
},
{
anchors = (
{
name = bottom;
position = "{438, 0}";
},
{
name = top;
position = "{438, 1000}";
}
);
layerId = "C5C974ED-4386-41E8-AA57-C40E24C26BBD";
paths = (
{
closed = 1;
nodes = (
"892 0 LINE",
"892 796 LINE SMOOTH",
"892 940 OFFCURVE",
"840 1022 OFFCURVE",
"734 1022 CURVE SMOOTH",
"590 1022 OFFCURVE",
"480 836 OFFCURVE",
"480 620 CURVE",
"558 656 LINE",
"558 740 OFFCURVE",
"560 776 OFFCURVE",
"578 776 CURVE SMOOTH",
"596 776 OFFCURVE",
"596 732 OFFCURVE",
"596 634 CURVE SMOOTH",
"596 0 LINE"
);
},
{
closed = 1;
nodes = (
"310 0 LINE",
"310 818 LINE",
"260 1000 LINE",
"12 1000 LINE",
"12 0 LINE"
);
},
{
closed = 1;
nodes = (
"558 0 LINE",
"558 796 LINE",
"558 940 OFFCURVE",
"532 1022 OFFCURVE",
"432 1022 CURVE SMOOTH",
"304 1022 OFFCURVE",
"214 842 OFFCURVE",
"214 626 CURVE",
"310 664 LINE",
"310 740 OFFCURVE",
"312 776 OFFCURVE",
"330 776 CURVE SMOOTH",
"348 776 OFFCURVE",
"348 732 OFFCURVE",
"348 636 CURVE SMOOTH",
"348 0 LINE"
);
}
);
width = 900;
},
{
anchors = (
{
name = bottom;
position = "{1034, 0}";
},
{
name = top;
position = "{1034, 1000}";
}
);
layerId = "DF71BB49-08D0-48AB-8F46-D55A70C0C2BD";
paths = (
{
closed = 1;
nodes = (
"2016 0 LINE",
"2016 675 LINE SMOOTH",
"2016 876 OFFCURVE",
"1883 1022 OFFCURVE",
"1616 1022 CURVE SMOOTH",
"1336 1022 OFFCURVE",
"1097 769 OFFCURVE",
"1097 596 CURVE",
"1268 592 LINE",
"1273 648 OFFCURVE",
"1350 712 OFFCURVE",
"1448 712 CURVE SMOOTH",
"1559 712 OFFCURVE",
"1587 627 OFFCURVE",
"1587 537 CURVE SMOOTH",
"1587 0 LINE"
);
},
{
closed = 1;
nodes = (
"541 0 LINE",
"541 776 LINE",
"486 1000 LINE",
"109 1000 LINE",
"109 0 LINE"
);
},
{
closed = 1;
nodes = (
"1267 0 LINE",
"1267 683 LINE",
"1267 865 OFFCURVE",
"1141 1022 OFFCURVE",
"890 1022 CURVE SMOOTH",
"615 1022 OFFCURVE",
"399 772 OFFCURVE",
"399 599 CURVE",
"542 603 LINE",
"551 663 OFFCURVE",
"625 712 OFFCURVE",
"723 712 CURVE SMOOTH",
"841 712 OFFCURVE",
"843 632 OFFCURVE",
"843 539 CURVE SMOOTH",
"843 0 LINE"
);
}
);
width = 2100;
}
);
leftKerningGroup = n;
rightKerningGroup = n;
unicode = 006D;
},
{
glyphname = n;
lastChange = "2020-04-30 15:52:17 +0000";
layers = (
{
anchors = (
{
name = bottom;
position = "{466, 0}";
},
{
name = top;
position = "{484, 1000}";
}
);
layerId = "2E286313-D5BF-4FB4-A4B7-BD9BC13B574E";
paths = (
{
closed = 1;
nodes = (
"282 0 LINE",
"282 804 LINE",
"282 1000 LINE",
"214 1000 LINE",
"214 862 OFFCURVE",
"214 870 OFFCURVE",
"214 0 CURVE"
);
},
{
closed = 1;
nodes = (
"728 0 LINE",
"728 644 LINE SMOOTH",
"728 866 OFFCURVE",
"694 1024 OFFCURVE",
"528 1024 CURVE SMOOTH",
"332 1024 OFFCURVE",
"222 826 OFFCURVE",
"220 624 CURVE",
"280 624 LINE",
"286 816 OFFCURVE",
"384 958 OFFCURVE",
"520 958 CURVE SMOOTH",
"646 958 OFFCURVE",
"658 812 OFFCURVE",
"658 642 CURVE SMOOTH",
"658 0 LINE"
);
}
);
width = 900;
},
{
anchors = (
{
name = bottom;
position = "{1086, 0}";
},
{
name = top;
position = "{1086, 1000}";
}
);
layerId = "E338D14E-1DA5-418D-88BC-8956EEA80AB9";
paths = (
{
closed = 1;
nodes = (
"532 0 LINE",
"532 804 LINE",
"532 1000 LINE",
"464 1000 LINE",
"464 862 OFFCURVE",
"464 870 OFFCURVE",
"464 0 CURVE"
);
},
{
closed = 1;
nodes = (
"1710 0 LINE",
"1710 504 LINE SMOOTH",
"1710 890 OFFCURVE",
"1528 1024 OFFCURVE",
"1176 1024 CURVE SMOOTH",
"720 1024 OFFCURVE",
"470 806 OFFCURVE",
"466 524 CURVE",
"530 524 LINE",
"544 796 OFFCURVE",
"846 958 OFFCURVE",
"1162 958 CURVE SMOOTH",
"1484 958 OFFCURVE",
"1634 844 OFFCURVE",
"1634 484 CURVE SMOOTH",
"1634 0 LINE"
);
}
);
width = 2100;
},
{
anchors = (
{
name = bottom;
position = "{452, 0}";
},
{
name = top;
position = "{458, 1000}";
}
);
layerId = "C5C974ED-4386-41E8-AA57-C40E24C26BBD";
paths = (
{
closed = 1;
nodes = (
"408 0 LINE",
"408 804 LINE",
"348 1000 LINE",
"80 1000 LINE",
"80 862 OFFCURVE",
"80 870 OFFCURVE",
"80 0 CURVE"
);
},
{
closed = 1;
nodes = (
"842 0 LINE",
"842 672 LINE SMOOTH",
"842 884 OFFCURVE",
"765 1022 OFFCURVE",
"595 1022 CURVE SMOOTH",
"428 1022 OFFCURVE",
"329 854 OFFCURVE",
"329 652 CURVE",
"407 632 LINE",
"407 678 OFFCURVE",
"413 766 OFFCURVE",
"460 766 CURVE SMOOTH",
"502 766 OFFCURVE",
"508 688 OFFCURVE",
"508 624 CURVE SMOOTH",
"508 0 LINE"
);
}
);
width = 900;
},
{
anchors = (
{
name = bottom;
position = "{1067, 0}";
},
{
name = top;
position = "{1051, 1000}";
}
);
layerId = "DF71BB49-08D0-48AB-8F46-D55A70C0C2BD";
paths = (
{
closed = 1;
nodes = (
"703 0 LINE",
"703 804 LINE",
"621 1000 LINE",
"282 1000 LINE",
"282 862 OFFCURVE",
"282 870 OFFCURVE",
"282 0 CURVE"
);
},
{
closed = 1;
nodes = (
"1865 0 LINE",
"1865 542 LINE SMOOTH",
"1865 881 OFFCURVE",
"1669 1021 OFFCURVE",
"1267 1021 CURVE SMOOTH",
"851 1021 OFFCURVE",
"574 844 OFFCURVE",
"573 562 CURVE",
"702 535 LINE",
"708 609 OFFCURVE",
"886 697 OFFCURVE",
"1080 697 CURVE SMOOTH",
"1314 697 OFFCURVE",
"1430 661 OFFCURVE",
"1430 460 CURVE SMOOTH",
"1430 0 LINE"
);
}
);
width = 2100;
}
);
leftKerningGroup = n;
rightKerningGroup = n;
unicode = 006E;
},
{
glyphname = eng;
lastChange = "2020-04-30 16:07:41 +0000";
layers = (
{
components = (
{
name = n;
}
);
layerId = "2E286313-D5BF-4FB4-A4B7-BD9BC13B574E";
paths = (
{
closed = 1;
nodes = (
"236 -366 LINE",
"264 -374 OFFCURVE",
"316 -384 OFFCURVE",
"400 -384 CURVE",
"552 -384 OFFCURVE",
"728 -260 OFFCURVE",
"728 -4 CURVE",
"728 4 LINE",
"658 0 LINE",
"658 -172 OFFCURVE",
"570 -318 OFFCURVE",
"394 -318 CURVE",
"332 -318 OFFCURVE",
"266 -306 OFFCURVE",
"254 -300 CURVE"
);
}
);
width = 900;
},
{
components = (
{
name = n;
}
);
layerId = "E338D14E-1DA5-418D-88BC-8956EEA80AB9";
paths = (
{
closed = 1;
nodes = (
"1210 -366 LINE",
"1238 -374 OFFCURVE",
"1290 -384 OFFCURVE",
"1374 -384 CURVE",
"1526 -384 OFFCURVE",
"1710 -260 OFFCURVE",
"1710 -4 CURVE",
"1710 4 LINE",
"1634 0 LINE",
"1634 -172 OFFCURVE",
"1544 -318 OFFCURVE",
"1368 -318 CURVE",
"1306 -318 OFFCURVE",
"1240 -306 OFFCURVE",
"1228 -300 CURVE"
);
}
);
width = 2100;
},
{
components = (
{
alignment = -1;
name = n;
}
);
layerId = "C5C974ED-4386-41E8-AA57-C40E24C26BBD";
paths = (
{
closed = 1;
nodes = (
"198 -366 LINE",
"246 -378 OFFCURVE",
"302 -384 OFFCURVE",
"366 -384 CURVE",
"598 -384 OFFCURVE",
"842 -260 OFFCURVE",
"842 -24 CURVE",
"842 44 LINE",
"508 0 LINE",
"508 -36 OFFCURVE",
"488 -122 OFFCURVE",
"352 -122 CURVE",
"310 -122 OFFCURVE",
"278 -120 OFFCURVE",
"262 -112 CURVE"
);
}
);
width = 900;
},
{
components = (
{
alignment = -1;
name = n;
}
);
layerId = "DF71BB49-08D0-48AB-8F46-D55A70C0C2BD";
paths = (
{
closed = 1;
nodes = (
"1036 -366 LINE",
"1093 -380 OFFCURVE",
"1183 -384 OFFCURVE",
"1235 -384 CURVE SMOOTH",
"1496 -384 OFFCURVE",
"1864 -293 OFFCURVE",
"1864 -31 CURVE",
"1864 58 LINE",
"1430 0 LINE",
"1430 -63 OFFCURVE",
"1324 -82 OFFCURVE",
"1229 -82 CURVE SMOOTH",
"1188 -82 OFFCURVE",
"1134 -74 OFFCURVE",
"1116 -65 CURVE"
);
}
);
width = 2100;
}
);
unicode = 014B;
},
{
glyphname = o;
lastChange = "2020-04-30 15:52:17 +0000";
layers = (
{
anchors = (
{
name = bottom;
position = "{446, 0}";
},
{
name = center;
position = "{446, 500}";
},
{
name = ogonek;
position = "{450, 0}";
},
{
name = top;
position = "{446, 1000}";
},
{
name = topright;
position = "{635, 904}";
}
);
layerId = "2E286313-D5BF-4FB4-A4B7-BD9BC13B574E";
paths = (
{
closed = 1;
nodes = (
"610 -22 OFFCURVE",
"722 116 OFFCURVE",
"722 502 CURVE SMOOTH",
"722 886 OFFCURVE",
"610 1024 OFFCURVE",
"450 1024 CURVE SMOOTH",
"290 1024 OFFCURVE",
"178 886 OFFCURVE",
"178 502 CURVE SMOOTH",
"178 116 OFFCURVE",
"290 -22 OFFCURVE",
"450 -22 CURVE SMOOTH"
);
},
{
closed = 1;
nodes = (
"326 44 OFFCURVE",
"248 144 OFFCURVE",
"248 502 CURVE SMOOTH",
"248 854 OFFCURVE",
"326 958 OFFCURVE",
"450 958 CURVE SMOOTH",
"574 958 OFFCURVE",
"652 854 OFFCURVE",
"652 502 CURVE SMOOTH",
"652 144 OFFCURVE",
"574 44 OFFCURVE",
"450 44 CURVE SMOOTH"
);
}
);
width = 900;
},
{
anchors = (
{
name = bottom;
position = "{1042, 0}";
},
{
name = center;
position = "{1042, 500}";
},
{
name = ogonek;
position = "{1052, 0}";
},
{
name = top;
position = "{1042, 1000}";
},
{
name = topright;
position = "{1495, 904}";
}
);
layerId = "E338D14E-1DA5-418D-88BC-8956EEA80AB9";
paths = (
{
closed = 1;
nodes = (
"1472 -22 OFFCURVE",
"1712 170 OFFCURVE",
"1712 502 CURVE SMOOTH",
"1712 834 OFFCURVE",
"1472 1024 OFFCURVE",
"1052 1024 CURVE SMOOTH",
"634 1024 OFFCURVE",
"390 836 OFFCURVE",
"390 502 CURVE SMOOTH",
"390 170 OFFCURVE",
"632 -22 OFFCURVE",
"1052 -22 CURVE SMOOTH"
);
},
{
closed = 1;
nodes = (
"682 44 OFFCURVE",
"468 210 OFFCURVE",
"468 502 CURVE SMOOTH",
"468 794 OFFCURVE",
"684 958 OFFCURVE",
"1052 958 CURVE SMOOTH",
"1422 958 OFFCURVE",
"1634 794 OFFCURVE",
"1634 502 CURVE SMOOTH",
"1634 212 OFFCURVE",
"1424 44 OFFCURVE",
"1052 44 CURVE SMOOTH"
);
}
);
width = 2100;
},
{
anchors = (
{
name = bottom;
position = "{444, 0}";
},
{
name = center;
position = "{444, 500}";
},
{
name = ogonek;
position = "{448, 0}";
},
{
name = top;
position = "{444, 1000}";
},
{
name = topright;
position = "{625, 904}";
}
);
layerId = "C5C974ED-4386-41E8-AA57-C40E24C26BBD";
paths = (
{
closed = 1;
nodes = (
"618 -22 OFFCURVE",
"836 98 OFFCURVE",
"836 502 CURVE SMOOTH",
"836 904 OFFCURVE",
"618 1024 OFFCURVE",
"448 1024 CURVE SMOOTH",
"274 1024 OFFCURVE",
"60 904 OFFCURVE",
"60 502 CURVE SMOOTH",
"60 98 OFFCURVE",
"276 -22 OFFCURVE",
"448 -22 CURVE SMOOTH"
);
},
{
closed = 1;
nodes = (
"418 234 OFFCURVE",
"392 272 OFFCURVE",
"392 502 CURVE SMOOTH",
"392 728 OFFCURVE",
"416 768 OFFCURVE",
"448 768 CURVE SMOOTH",
"476 768 OFFCURVE",
"502 728 OFFCURVE",
"502 502 CURVE SMOOTH",
"502 272 OFFCURVE",
"476 234 OFFCURVE",
"448 234 CURVE SMOOTH"
);
}
);
width = 900;
},
{
anchors = (
{
name = bottom;
position = "{1039, 0}";
},
{
name = center;
position = "{1039, 500}";
},
{
name = ogonek;
position = "{1049, 0}";
},
{
name = top;
position = "{1039, 1000}";
},
{
name = topright;
position = "{1482, 904}";
}
);
layerId = "DF71BB49-08D0-48AB-8F46-D55A70C0C2BD";
paths = (
{
closed = 1;
nodes = (
"1483 -22 OFFCURVE",
"1867 146 OFFCURVE",
"1867 502 CURVE SMOOTH",
"1867 858 OFFCURVE",
"1483 1024 OFFCURVE",
"1049 1024 CURVE SMOOTH",
"612 1024 OFFCURVE",
"230 860 OFFCURVE",
"230 502 CURVE SMOOTH",
"230 146 OFFCURVE",
"613 -22 OFFCURVE",
"1049 -22 CURVE SMOOTH"
);
},
{
closed = 1;
nodes = (
"807 302 OFFCURVE",
"664 384 OFFCURVE",
"664 502 CURVE SMOOTH",
"664 623 OFFCURVE",
"807 700 OFFCURVE",
"1049 700 CURVE SMOOTH",
"1289 700 OFFCURVE",
"1431 623 OFFCURVE",
"1431 502 CURVE SMOOTH",
"1431 386 OFFCURVE",
"1291 302 OFFCURVE",
"1049 302 CURVE SMOOTH"
);
}
);
width = 2100;
}
);
leftKerningGroup = o;
rightKerningGroup = o;
unicode = 006F;
},
{
glyphname = oe;
lastChange = "2020-04-30 16:08:55 +0000";
layers = (
{
anchors = (
{
name = bottom;
position = "{450, 0}";
},
{
name = top;
position = "{450, 1000}";
}
);
layerId = "2E286313-D5BF-4FB4-A4B7-BD9BC13B574E";
paths = (
{
closed = 1;
nodes = (
"390 -22 OFFCURVE",
"488 116 OFFCURVE",
"488 502 CURVE SMOOTH",
"488 886 OFFCURVE",
"390 1024 OFFCURVE",
"276 1024 CURVE SMOOTH",
"160 1024 OFFCURVE",
"54 886 OFFCURVE",
"54 502 CURVE SMOOTH",
"54 116 OFFCURVE",
"160 -22 OFFCURVE",
"276 -22 CURVE SMOOTH"
);
},
{
closed = 1;
nodes = (
"196 44 OFFCURVE",
"126 144 OFFCURVE",
"126 502 CURVE SMOOTH",
"126 854 OFFCURVE",
"196 958 OFFCURVE",
"276 958 CURVE SMOOTH",
"354 958 OFFCURVE",
"410 854 OFFCURVE",
"410 502 CURVE SMOOTH",
"410 144 OFFCURVE",
"354 44 OFFCURVE",
"276 44 CURVE SMOOTH"
);
},
{
closed = 1;
nodes = (
"802 154 OFFCURVE",
"766 44 OFFCURVE",
"646 44 CURVE SMOOTH",
"508 44 OFFCURVE",
"488 244 OFFCURVE",
"488 502 CURVE SMOOTH",
"488 768 OFFCURVE",
"530 958 OFFCURVE",
"654 958 CURVE SMOOTH",
"796 958 OFFCURVE",
"800 740 OFFCURVE",
"800 562 CURVE",
"476 562 LINE",
"476 498 LINE",
"870 498 LINE",
"886 838 OFFCURVE",
"820 1024 OFFCURVE",
"654 1024 CURVE SMOOTH",
"524 1024 OFFCURVE",
"414 888 OFFCURVE",
"414 514 CURVE SMOOTH",
"414 148 OFFCURVE",
"494 -22 OFFCURVE",
"644 -22 CURVE SMOOTH",
"736 -22 OFFCURVE",
"840 38 OFFCURVE",
"886 186 CURVE",
"820 214 LINE"
);
}
);
width = 900;
},
{
anchors = (
{
name = bottom;
position = "{1050, 0}";
},
{
name = top;
position = "{1050, 1000}";
}
);
layerId = "E338D14E-1DA5-418D-88BC-8956EEA80AB9";
paths = (
{
closed = 1;
nodes = (
"890 -22 OFFCURVE",
"1106 116 OFFCURVE",
"1106 502 CURVE SMOOTH",
"1106 886 OFFCURVE",
"890 1024 OFFCURVE",
"644 1024 CURVE SMOOTH",
"394 1024 OFFCURVE",
"176 886 OFFCURVE",
"176 502 CURVE SMOOTH",
"176 116 OFFCURVE",
"394 -22 OFFCURVE",
"644 -22 CURVE SMOOTH"
);
},
{
closed = 1;
nodes = (
"458 44 OFFCURVE",
"250 144 OFFCURVE",
"250 502 CURVE SMOOTH",
"250 854 OFFCURVE",
"458 958 OFFCURVE",
"644 958 CURVE SMOOTH",
"826 958 OFFCURVE",
"1026 854 OFFCURVE",
"1026 502 CURVE SMOOTH",
"1026 144 OFFCURVE",
"826 44 OFFCURVE",
"644 44 CURVE SMOOTH"
);
},
{
closed = 1;
nodes = (
"1902 174 OFFCURVE",
"1792 44 OFFCURVE",
"1528 44 CURVE SMOOTH",
"1246 44 OFFCURVE",
"1106 244 OFFCURVE",
"1106 502 CURVE SMOOTH",
"1106 768 OFFCURVE",
"1260 958 OFFCURVE",
"1530 958 CURVE SMOOTH",
"1820 958 OFFCURVE",
"1926 740 OFFCURVE",
"1926 562 CURVE",
"1092 562 LINE",
"1092 498 LINE",
"1994 498 LINE",
"2006 836 OFFCURVE",
"1818 1024 OFFCURVE",
"1530 1024 CURVE SMOOTH",
"1266 1024 OFFCURVE",
"1036 888 OFFCURVE",
"1036 514 CURVE SMOOTH",
"1036 116 OFFCURVE",
"1282 -22 OFFCURVE",
"1522 -22 CURVE SMOOTH",
"1756 -22 OFFCURVE",
"1914 70 OFFCURVE",
"1986 168 CURVE",
"1926 212 LINE"
);
}
);
width = 2100;
},
{
anchors = (
{
name = bottom;
position = "{408, 0}";
},
{
name = top;
position = "{408, 1000}";
}
);
layerId = "C5C974ED-4386-41E8-AA57-C40E24C26BBD";
paths = (
{
closed = 1;
nodes = (
"436 -22 OFFCURVE",
"496 216 OFFCURVE",
"496 502 CURVE SMOOTH",
"496 786 OFFCURVE",
"436 1024 OFFCURVE",
"246 1024 CURVE SMOOTH",
"96 1024 OFFCURVE",
"-28 886 OFFCURVE",
"-28 502 CURVE SMOOTH",
"-28 116 OFFCURVE",
"96 -22 OFFCURVE",
"246 -22 CURVE SMOOTH"
);
},
{
closed = 1;
nodes = (
"234 224 OFFCURVE",
"228 234 OFFCURVE",
"228 502 CURVE SMOOTH",
"228 768 OFFCURVE",
"234 778 OFFCURVE",
"246 778 CURVE SMOOTH",
"258 778 OFFCURVE",
"260 768 OFFCURVE",
"260 502 CURVE SMOOTH",
"260 234 OFFCURVE",
"258 224 OFFCURVE",
"246 224 CURVE SMOOTH"
);
},
{
closed = 1;
nodes = (
"627 276 OFFCURVE",
"620 224 OFFCURVE",
"596 224 CURVE SMOOTH",
"574 224 OFFCURVE",
"554 264 OFFCURVE",
"554 502 CURVE SMOOTH",
"554 728 OFFCURVE",
"564 778 OFFCURVE",
"582 778 CURVE SMOOTH",
"596 778 OFFCURVE",
"603 676 OFFCURVE",
"603 598 CURVE",
"474 598 LINE",
"474 408 LINE",
"832 408 LINE",
"852 748 OFFCURVE",
"786 1024 OFFCURVE",
"586 1024 CURVE SMOOTH",
"416 1024 OFFCURVE",
"298 888 OFFCURVE",
"298 494 CURVE SMOOTH",
"298 116 OFFCURVE",
"398 -22 OFFCURVE",
"592 -22 CURVE SMOOTH",
"676 -22 OFFCURVE",
"796 54 OFFCURVE",
"846 230 CURVE",
"630 322 LINE"
);
}
);
width = 900;
},
{
anchors = (
{
name = bottom;
position = "{993, 0}";
},
{
name = top;
position = "{993, 1000}";
}
);
layerId = "DF71BB49-08D0-48AB-8F46-D55A70C0C2BD";
paths = (
{
closed = 1;
nodes = (
"942 -22 OFFCURVE",
"1117 252 OFFCURVE",
"1117 502 CURVE SMOOTH",
"1117 750 OFFCURVE",
"952 1024 OFFCURVE",
"603 1024 CURVE SMOOTH",
"308 1024 OFFCURVE",
"24 886 OFFCURVE",
"24 502 CURVE SMOOTH",
"24 116 OFFCURVE",
"298 -22 OFFCURVE",
"603 -22 CURVE SMOOTH"
);
},
{
closed = 1;
nodes = (
"510 288 OFFCURVE",
"388 330 OFFCURVE",
"388 502 CURVE SMOOTH",
"388 683 OFFCURVE",
"510 714 OFFCURVE",
"603 714 CURVE SMOOTH",
"695 714 OFFCURVE",
"822 683 OFFCURVE",
"822 502 CURVE SMOOTH",
"822 330 OFFCURVE",
"695 288 OFFCURVE",
"603 288 CURVE SMOOTH"
);
},
{
closed = 1;
nodes = (
"1593 331 OFFCURVE",
"1532 278 OFFCURVE",
"1433 278 CURVE SMOOTH",
"1309 278 OFFCURVE",
"1196 311 OFFCURVE",
"1196 502 CURVE SMOOTH",
"1196 674 OFFCURVE",
"1279 724 OFFCURVE",
"1405 724 CURVE SMOOTH",
"1518 724 OFFCURVE",
"1553 633 OFFCURVE",
"1553 591 CURVE",
"1089 591 LINE",
"1089 376 LINE",
"1942 376 LINE",
"1942 787 OFFCURVE",
"1742 1024 OFFCURVE",
"1408 1024 CURVE SMOOTH",
"1110 1024 OFFCURVE",
"879 888 OFFCURVE",
"879 487 CURVE SMOOTH",
"879 73 OFFCURVE",
"1142 -22 OFFCURVE",
"1401 -22 CURVE SMOOTH",
"1625 -22 OFFCURVE",
"1808 87 OFFCURVE",
"1896 198 CURVE",
"1608 349 LINE"
);
}
);
width = 2100;
}
);
unicode = 0153;
},
{
glyphname = p;
lastChange = "2020-04-30 16:09:30 +0000";
layers = (
{
anchors = (
{
name = bottom;
position = "{496, 0}";
},
{
name = top;
position = "{496, 1000}";
}
);
layerId = "2E286313-D5BF-4FB4-A4B7-BD9BC13B574E";
paths = (
{
closed = 1;
nodes = (
"196 -400 LINE",
"264 -400 LINE",
"264 783 LINE",
"264 1000 LINE",
"196 1000 LINE"
);
},
{
closed = 1;
nodes = (
"304 1024 OFFCURVE",
"206 788 OFFCURVE",
"206 580 CURVE",
"262 620 LINE",
"268 706 OFFCURVE",
"316 958 OFFCURVE",
"500 958 CURVE SMOOTH",
"652 958 OFFCURVE",
"702 756 OFFCURVE",
"702 498 CURVE SMOOTH",
"702 240 OFFCURVE",
"638 44 OFFCURVE",
"484 44 CURVE SMOOTH",
"302 44 OFFCURVE",
"268 270 OFFCURVE",
"262 356 CURVE",
"206 416 LINE",
"206 192 OFFCURVE",
"278 -22 OFFCURVE",
"486 -22 CURVE SMOOTH",
"660 -22 OFFCURVE",
"772 172 OFFCURVE",
"772 498 CURVE SMOOTH",
"772 824 OFFCURVE",
"676 1024 OFFCURVE",
"502 1024 CURVE SMOOTH"
);
}
);
width = 900;
},
{
anchors = (
{
name = bottom;
position = "{1136, 0}";
},
{
name = top;
position = "{1136, 1000}";
}
);
layerId = "E338D14E-1DA5-418D-88BC-8956EEA80AB9";
paths = (
{
closed = 1;
nodes = (
"450 -400 LINE",
"520 -400 LINE",
"520 728 LINE",
"520 1000 LINE",
"450 1000 LINE"
);
},
{
closed = 1;
nodes = (
"712 1024 OFFCURVE",
"464 796 OFFCURVE",
"464 588 CURVE",
"516 620 LINE",
"528 706 OFFCURVE",
"706 958 OFFCURVE",
"1134 958 CURVE SMOOTH",
"1490 958 OFFCURVE",
"1694 796 OFFCURVE",
"1694 498 CURVE SMOOTH",
"1694 200 OFFCURVE",
"1456 44 OFFCURVE",
"1098 44 CURVE SMOOTH",
"672 44 OFFCURVE",
"530 270 OFFCURVE",
"516 356 CURVE",
"464 408 LINE",
"464 184 OFFCURVE",
"650 -22 OFFCURVE",
"1102 -22 CURVE SMOOTH",
"1482 -22 OFFCURVE",
"1770 134 OFFCURVE",
"1770 498 CURVE SMOOTH",
"1770 862 OFFCURVE",
"1518 1024 OFFCURVE",
"1138 1024 CURVE SMOOTH"
);
}
);
width = 2100;
},
{
anchors = (
{
name = bottom;
position = "{484, 0}";
},
{
name = top;
position = "{484, 1000}";
}
);
layerId = "C5C974ED-4386-41E8-AA57-C40E24C26BBD";
paths = (
{
closed = 1;
nodes = (
"60 -400 LINE",
"396 -400 LINE",
"396 858 LINE",
"336 1000 LINE",
"60 1000 LINE"
);
},
{
closed = 1;
nodes = (
"372 1024 OFFCURVE",
"306 788 OFFCURVE",
"306 580 CURVE",
"386 580 LINE",
"390 662 OFFCURVE",
"404 768 OFFCURVE",
"450 768 CURVE SMOOTH",
"508 768 OFFCURVE",
"522 678 OFFCURVE",
"522 498 CURVE SMOOTH",
"522 318 OFFCURVE",
"504 234 OFFCURVE",
"446 234 CURVE SMOOTH",
"404 234 OFFCURVE",
"392 334 OFFCURVE",
"386 416 CURVE",
"306 442 LINE",
"306 218 OFFCURVE",
"370 -22 OFFCURVE",
"548 -22 CURVE SMOOTH",
"752 -22 OFFCURVE",
"846 150 OFFCURVE",
"846 498 CURVE SMOOTH",
"846 846 OFFCURVE",
"746 1024 OFFCURVE",
"580 1024 CURVE SMOOTH"
);
}
);
width = 900;
},
{
anchors = (
{
name = bottom;
position = "{1119, 0}";
},
{
name = top;
position = "{1119, 1000}";
}
);
layerId = "DF71BB49-08D0-48AB-8F46-D55A70C0C2BD";
paths = (
{
closed = 1;
nodes = (
"265 -400 LINE",
"699 -400 LINE",
"699 757 LINE",
"617 1000 LINE",
"265 1000 LINE"
);
},
{
closed = 1;
nodes = (
"772 1022 OFFCURVE",
"587 862 OFFCURVE",
"587 611 CURVE",
"696 570 LINE",
"716 660 OFFCURVE",
"851 698 OFFCURVE",
"1039 698 CURVE SMOOTH",
"1300 698 OFFCURVE",
"1381 625 OFFCURVE",
"1381 502 CURVE SMOOTH",
"1381 376 OFFCURVE",
"1313 302 OFFCURVE",
"1050 302 CURVE SMOOTH",
"847 302 OFFCURVE",
"712 373 OFFCURVE",
"696 454 CURVE",
"587 416 LINE",
"587 165 OFFCURVE",
"783 -22 OFFCURVE",
"1182 -22 CURVE SMOOTH",
"1607 -22 OFFCURVE",
"1842 163 OFFCURVE",
"1842 502 CURVE SMOOTH",
"1842 841 OFFCURVE",
"1591 1022 OFFCURVE",
"1179 1022 CURVE SMOOTH"
);
}
);
width = 2100;
}
);
leftKerningGroup = p;
rightKerningGroup = o;
unicode = 0070;
},
{
glyphname = thorn;
lastChange = "2020-04-30 15:52:49 +0000";
layers = (
{
anchors = (
{
name = bottom;
position = "{496, 0}";
},
{
name = top;
position = "{496, 1000}";
}
);
layerId = "2E286313-D5BF-4FB4-A4B7-BD9BC13B574E";
paths = (
{
closed = 1;
nodes = (
"226 -400 LINE",
"226 1600 LINE",
"156 1600 LINE",
"156 -400 LINE"
);
},
{
closed = 1;
nodes = (
"354 1022 OFFCURVE",
"182 828 OFFCURVE",
"182 604 CURVE",
"214 590 LINE",
"232 764 OFFCURVE",
"372 956 OFFCURVE",
"494 956 CURVE SMOOTH",
"620 956 OFFCURVE",
"706 820 OFFCURVE",
"706 502 CURVE SMOOTH",
"706 184 OFFCURVE",
"608 44 OFFCURVE",
"482 44 CURVE SMOOTH",
"360 44 OFFCURVE",
"228 216 OFFCURVE",
"216 442 CURVE",
"182 420 LINE",
"190 154 OFFCURVE",
"328 -22 OFFCURVE",
"488 -22 CURVE SMOOTH",
"632 -22 OFFCURVE",
"776 136 OFFCURVE",
"776 502 CURVE SMOOTH",
"776 868 OFFCURVE",
"644 1022 OFFCURVE",
"500 1022 CURVE SMOOTH"
);
}
);
width = 900;
},
{
anchors = (
{
name = bottom;
position = "{1156, 0}";
},
{
name = top;
position = "{1156, 1000}";
}
);
layerId = "E338D14E-1DA5-418D-88BC-8956EEA80AB9";
paths = (
{
closed = 1;
nodes = (
"500 -400 LINE",
"500 1600 LINE",
"430 1600 LINE",
"430 -400 LINE"
);
},
{
closed = 1;
nodes = (
"732 1024 OFFCURVE",
"450 796 OFFCURVE",
"450 588 CURVE",
"496 620 LINE",
"508 706 OFFCURVE",
"726 958 OFFCURVE",
"1154 958 CURVE SMOOTH",
"1510 958 OFFCURVE",
"1674 796 OFFCURVE",
"1674 498 CURVE SMOOTH",
"1674 200 OFFCURVE",
"1476 44 OFFCURVE",
"1118 44 CURVE SMOOTH",
"692 44 OFFCURVE",
"510 270 OFFCURVE",
"496 356 CURVE",
"450 408 LINE",
"450 184 OFFCURVE",
"670 -22 OFFCURVE",
"1122 -22 CURVE SMOOTH",
"1508 -22 OFFCURVE",
"1750 132 OFFCURVE",
"1750 498 CURVE SMOOTH",
"1750 864 OFFCURVE",
"1544 1024 OFFCURVE",
"1158 1024 CURVE SMOOTH"
);
}
);
width = 2100;
},
{
anchors = (
{
name = bottom;
position = "{480, 0}";
},
{
name = top;
position = "{480, 1000}";
}
);
layerId = "C5C974ED-4386-41E8-AA57-C40E24C26BBD";
paths = (
{
closed = 1;
nodes = (
"362 -400 LINE",
"362 1600 LINE",
"24 1600 LINE",
"24 -400 LINE"
);
},
{
closed = 1;
nodes = (
"330 1022 OFFCURVE",
"214 836 OFFCURVE",
"214 608 CURVE",
"316 556 LINE",
"338 646 OFFCURVE",
"368 776 OFFCURVE",
"440 776 CURVE SMOOTH",
"510 776 OFFCURVE",
"524 686 OFFCURVE",
"524 504 CURVE SMOOTH",
"524 320 OFFCURVE",
"498 224 OFFCURVE",
"426 224 CURVE SMOOTH",
"354 224 OFFCURVE",
"322 360 OFFCURVE",
"316 484 CURVE",
"214 424 LINE",
"216 188 OFFCURVE",
"322 -22 OFFCURVE",
"484 -22 CURVE SMOOTH",
"682 -22 OFFCURVE",
"858 138 OFFCURVE",
"858 504 CURVE SMOOTH",
"858 870 OFFCURVE",
"694 1022 OFFCURVE",
"498 1022 CURVE SMOOTH"
);
}
);
width = 900;
},
{
anchors = (
{
name = bottom;
position = "{1093, 0}";
},
{
name = top;
position = "{1093, 1000}";
}
);
layerId = "DF71BB49-08D0-48AB-8F46-D55A70C0C2BD";
paths = (
{
closed = 1;
nodes = (
"644 -400 LINE",
"644 1600 LINE",
"210 1600 LINE",
"210 -400 LINE"
);
},
{
closed = 1;
nodes = (
"659 1024 OFFCURVE",
"453 807 OFFCURVE",
"453 593 CURVE",
"594 574 LINE",
"611 546 OFFCURVE",
"680 714 OFFCURVE",
"1040 714 CURVE SMOOTH",
"1320 714 OFFCURVE",
"1386 614 OFFCURVE",
"1386 501 CURVE SMOOTH",
"1386 385 OFFCURVE",
"1286 288 OFFCURVE",
"1001 288 CURVE SMOOTH",
"643 288 OFFCURVE",
"597 465 OFFCURVE",
"591 413 CURVE",
"453 413 LINE",
"444 230 OFFCURVE",
"622 -22 OFFCURVE",
"1076 -22 CURVE SMOOTH",
"1535 -22 OFFCURVE",
"1820 135 OFFCURVE",
"1820 501 CURVE SMOOTH",
"1820 867 OFFCURVE",
"1570 1024 OFFCURVE",
"1114 1024 CURVE SMOOTH"
);
}
);
width = 2100;
}
);
unicode = 00FE;
},
{
glyphname = r;
lastChange = "2020-04-30 15:52:17 +0000";
layers = (
{
anchors = (
{
name = bottom;
position = "{410, 0}";
},
{
name = top;
position = "{410, 1000}";
}
);
layerId = "2E286313-D5BF-4FB4-A4B7-BD9BC13B574E";
paths = (
{
closed = 1;
nodes = (
"412 646 LINE",
"446 820 OFFCURVE",
"556 956 OFFCURVE",
"694 956 CURVE SMOOTH",
"744 956 OFFCURVE",
"775 943 OFFCURVE",
"784 934 CURVE",
"814 994 LINE",
"798 1006 OFFCURVE",
"752 1024 OFFCURVE",
"704 1024 CURVE SMOOTH",
"514 1024 OFFCURVE",
"360 832 OFFCURVE",
"360 608 CURVE"
);
},
{
closed = 1;
nodes = (
"418 814 LINE",
"418 1000 LINE",
"184 1000 LINE",
"184 936 LINE",
"348 936 LINE",
"348 64 LINE",
"164 64 LINE",
"164 0 LINE",
"614 0 LINE",
"614 64 LINE",
"418 64 LINE"
);
}
);
width = 900;
},
{
anchors = (
{
name = bottom;
position = "{1010, 0}";
},
{
name = top;
position = "{1010, 1000}";
}
);
layerId = "E338D14E-1DA5-418D-88BC-8956EEA80AB9";
paths = (
{
closed = 1;
nodes = (
"970 636 LINE",
"1050 810 OFFCURVE",
"1326 956 OFFCURVE",
"1648 956 CURVE SMOOTH",
"1765 956 OFFCURVE",
"1842 941 OFFCURVE",
"1868 930 CURVE",
"1900 998 LINE",
"1862 1008 OFFCURVE",
"1784 1024 OFFCURVE",
"1672 1024 CURVE SMOOTH",
"1246 1024 OFFCURVE",
"924 826 OFFCURVE",
"924 602 CURVE"
);
},
{
closed = 1;
nodes = (
"978 748 LINE",
"978 1000 LINE",
"420 1000 LINE",
"420 936 LINE",
"908 936 LINE",
"908 64 LINE",
"400 64 LINE",
"400 0 LINE",
"1482 0 LINE",
"1482 64 LINE",
"978 64 LINE"
);
}
);
width = 2100;
},
{
anchors = (
{
name = bottom;
position = "{398, 0}";
},
{
name = top;
position = "{398, 1000}";
}
);
layerId = "C5C974ED-4386-41E8-AA57-C40E24C26BBD";
paths = (
{
closed = 1;
nodes = (
"526 644 LINE",
"526 710 OFFCURVE",
"570 758 OFFCURVE",
"634 758 CURVE SMOOTH",
"684 758 OFFCURVE",
"721 712 OFFCURVE",
"732 694 CURVE",
"902 958 LINE",
"894 972 OFFCURVE",
"820 1024 OFFCURVE",
"710 1024 CURVE SMOOTH",
"522 1024 OFFCURVE",
"378 850 OFFCURVE",
"378 626 CURVE"
);
},
{
closed = 1;
nodes = (
"528 826 LINE",
"448 1000 LINE",
"84 1000 LINE",
"84 756 LINE",
"200 756 LINE",
"200 244 LINE",
"84 244 LINE",
"84 0 LINE",
"644 0 LINE",
"644 244 LINE",
"528 244 LINE"
);
}
);
width = 900;
},
{
anchors = (
{
name = bottom;
position = "{993, 0}";
},
{
name = top;
position = "{993, 1000}";
}
);
layerId = "DF71BB49-08D0-48AB-8F46-D55A70C0C2BD";
paths = (
{
closed = 1;
nodes = (
"1124 633 LINE",
"1158 661 OFFCURVE",
"1258 687 OFFCURVE",
"1477 687 CURVE SMOOTH",
"1635 687 OFFCURVE",
"1771 626 OFFCURVE",
"1797 604 CURVE",
"2019 949 LINE",
"2000 963 OFFCURVE",
"1876 1024 OFFCURVE",
"1680 1024 CURVE SMOOTH",
"1256 1024 OFFCURVE",
"948 850 OFFCURVE",
"948 626 CURVE"
);
},
{
closed = 1;
nodes = (
"1127 764 LINE",
"1018 1000 LINE",
"284 1000 LINE",
"284 692 LINE",
"707 692 LINE",
"707 308 LINE",
"291 308 LINE",
"291 0 LINE",
"1522 0 LINE",
"1522 308 LINE",
"1127 308 LINE"
);
}
);
width = 2100;
}
);
leftKerningGroup = n;
rightKerningGroup = r;
unicode = 0072;
},
{
glyphname = s;
lastChange = "2020-04-30 21:06:10 +0000";
layers = (
{
anchors = (
{
name = bottom;
position = "{450, 0}";
},
{
name = top;
position = "{450, 1000}";
}
);
layerId = "2E286313-D5BF-4FB4-A4B7-BD9BC13B574E";
paths = (
{
closed = 1;
nodes = (
"614 -22 OFFCURVE",
"770 74 OFFCURVE",
"770 270 CURVE SMOOTH",
"770 476 OFFCURVE",
"536 542 OFFCURVE",
"464 562 CURVE SMOOTH",
"394 582 OFFCURVE",
"240 630 OFFCURVE",
"240 776 CURVE SMOOTH",
"240 912 OFFCURVE",
"346 958 OFFCURVE",
"458 958 CURVE SMOOTH",
"550 958 OFFCURVE",
"632 930 OFFCURVE",
"672 842 CURVE",
"730 884 LINE",
"700 956 OFFCURVE",
"586 1024 OFFCURVE",
"458 1024 CURVE SMOOTH",
"332 1024 OFFCURVE",
"170 956 OFFCURVE",
"170 776 CURVE SMOOTH",
"170 580 OFFCURVE",
"376 518 OFFCURVE",
"450 496 CURVE SMOOTH",
"514 478 OFFCURVE",
"700 422 OFFCURVE",
"700 270 CURVE SMOOTH",
"700 118 OFFCURVE",
"592 44 OFFCURVE",
"456 44 CURVE SMOOTH",
"352 44 OFFCURVE",
"254 82 OFFCURVE",
"208 150 CURVE",
"150 102 LINE",
"204 30 OFFCURVE",
"326 -22 OFFCURVE",
"454 -22 CURVE SMOOTH"
);
}
);
width = 900;
},
{
anchors = (
{
name = bottom;
position = "{1050, 0}";
},
{
name = top;
position = "{1050, 1000}";
}
);
layerId = "E338D14E-1DA5-418D-88BC-8956EEA80AB9";
paths = (
{
closed = 1;
nodes = (
"1448 -22 OFFCURVE",
"1760 56 OFFCURVE",
"1760 270 CURVE SMOOTH",
"1760 490 OFFCURVE",
"1366 540 OFFCURVE",
"1062 564 CURVE SMOOTH",
"744 589 OFFCURVE",
"520 630 OFFCURVE",
"520 766 CURVE SMOOTH",
"520 920 OFFCURVE",
"920 958 OFFCURVE",
"1088 958 CURVE SMOOTH",
"1276 958 OFFCURVE",
"1564 902 OFFCURVE",
"1630 834 CURVE",
"1690 890 LINE",
"1648 936 OFFCURVE",
"1406 1024 OFFCURVE",
"1088 1024 CURVE SMOOTH",
"772 1024 OFFCURVE",
"432 946 OFFCURVE",
"432 766 CURVE SMOOTH",
"432 570 OFFCURVE",
"704 526 OFFCURVE",
"1050 496 CURVE SMOOTH",
"1358 470 OFFCURVE",
"1672 416 OFFCURVE",
"1672 270 CURVE SMOOTH",
"1672 100 OFFCURVE",
"1330 44 OFFCURVE",
"1064 44 CURVE SMOOTH",
"820 44 OFFCURVE",
"532 96 OFFCURVE",
"426 164 CURVE",
"368 100 LINE",
"494 28 OFFCURVE",
"760 -22 OFFCURVE",
"1058 -22 CURVE SMOOTH"
);
}
);
width = 2100;
},
{
anchors = (
{
name = bottom;
position = "{448, 0}";
},
{
name = top;
position = "{448, 1000}";
}
);
layerId = "C5C974ED-4386-41E8-AA57-C40E24C26BBD";
paths = (
{
closed = 1;
nodes = (
"630 -22 OFFCURVE",
"828 90 OFFCURVE",
"828 300 CURVE SMOOTH",
"828 512 OFFCURVE",
"599 600 OFFCURVE",
"493 640 CURVE SMOOTH",
"449 657 OFFCURVE",
"398 679 OFFCURVE",
"398 719 CURVE SMOOTH",
"398 753 OFFCURVE",
"428 778 OFFCURVE",
"466 778 CURVE SMOOTH",
"518 778 OFFCURVE",
"549 730 OFFCURVE",
"562 673 CURVE",
"824 822 LINE",
"774 940 OFFCURVE",
"636 1024 OFFCURVE",
"452 1024 CURVE SMOOTH",
"252 1024 OFFCURVE",
"78 918 OFFCURVE",
"78 724 CURVE SMOOTH",
"78 544 OFFCURVE",
"209 459 OFFCURVE",
"358 398 CURVE SMOOTH",
"447 361 OFFCURVE",
"510 328 OFFCURVE",
"510 288 CURVE SMOOTH",
"510 248 OFFCURVE",
"484 230 OFFCURVE",
"438 230 CURVE SMOOTH",
"382 230 OFFCURVE",
"344 269 OFFCURVE",
"324 336 CURVE",
"54 178 LINE",
"100 62 OFFCURVE",
"266 -22 OFFCURVE",
"442 -22 CURVE SMOOTH"
);
}
);
width = 900;
},
{
anchors = (
{
name = bottom;
position = "{1048, 0}";
},
{
name = top;
position = "{1048, 1000}";
}
);
layerId = "DF71BB49-08D0-48AB-8F46-D55A70C0C2BD";
paths = (
{
closed = 1;
nodes = (
"1470 -22 OFFCURVE",
"1839 78 OFFCURVE",
"1839 341 CURVE SMOOTH",
"1839 569 OFFCURVE",
"1454 632 OFFCURVE",
"1102 653 CURVE SMOOTH",
"772 673 OFFCURVE",
"695 681 OFFCURVE",
"695 698 CURVE SMOOTH",
"695 715 OFFCURVE",
"795 734 OFFCURVE",
"1055 734 CURVE SMOOTH",
"1244 734 OFFCURVE",
"1463 675 OFFCURVE",
"1491 662 CURVE",
"1776 944 LINE",
"1729 966 OFFCURVE",
"1514 1024 OFFCURVE",
"1080 1024 CURVE SMOOTH",
"663 1024 OFFCURVE",
"267 934 OFFCURVE",
"267 705 CURVE SMOOTH",
"267 502 OFFCURVE",
"478 392 OFFCURVE",
"925 366 CURVE SMOOTH",
"1343 342 OFFCURVE",
"1414 336 OFFCURVE",
"1414 318 CURVE SMOOTH",
"1414 298 OFFCURVE",
"1327 266 OFFCURVE",
"1050 266 CURVE SMOOTH",
"812 266 OFFCURVE",
"637 303 OFFCURVE",
"568 341 CURVE",
"258 94 LINE",
"395 26 OFFCURVE",
"682 -22 OFFCURVE",
"1042 -22 CURVE SMOOTH"
);
}
);
width = 2100;
}
);
leftKerningGroup = s;
rightKerningGroup = s;
unicode = 0073;
},
{
glyphname = germandbls;
lastChange = "2020-04-30 16:12:11 +0000";
layers = (
{
layerId = "2E286313-D5BF-4FB4-A4B7-BD9BC13B574E";
paths = (
{
closed = 1;
nodes = (
"598 856 OFFCURVE",
"734 900 OFFCURVE",
"734 1104 CURVE SMOOTH",
"734 1340 OFFCURVE",
"608 1452 OFFCURVE",
"446 1452 CURVE SMOOTH",
"284 1452 OFFCURVE",
"152 1324 OFFCURVE",
"152 1046 CURVE SMOOTH",
"152 0 LINE",
"218 0 LINE",
"218 1024 LINE SMOOTH",
"218 1336 OFFCURVE",
"350 1386 OFFCURVE",
"446 1386 CURVE SMOOTH",
"532 1386 OFFCURVE",
"668 1324 OFFCURVE",
"668 1116 CURVE SMOOTH",
"668 916 OFFCURVE",
"524 928 OFFCURVE",
"524 782 CURVE SMOOTH",
"524 636 OFFCURVE",
"732 664 OFFCURVE",
"732 394 CURVE SMOOTH",
"732 104 OFFCURVE",
"604 44 OFFCURVE",
"484 44 CURVE SMOOTH",
"430 44 OFFCURVE",
"376 60 OFFCURVE",
"348 70 CURVE",
"334 4 LINE",
"380 -10 OFFCURVE",
"426 -22 OFFCURVE",
"484 -22 CURVE SMOOTH",
"666 -22 OFFCURVE",
"808 96 OFFCURVE",
"808 394 CURVE SMOOTH",
"808 690 OFFCURVE",
"598 708 OFFCURVE",
"598 782 CURVE SMOOTH"
);
}
);
width = 900;
},
{
layerId = "E338D14E-1DA5-418D-88BC-8956EEA80AB9";
paths = (
{
closed = 1;
nodes = (
"1304 856 OFFCURVE",
"1712 860 OFFCURVE",
"1712 1104 CURVE SMOOTH",
"1712 1340 OFFCURVE",
"1434 1452 OFFCURVE",
"1056 1452 CURVE SMOOTH",
"678 1452 OFFCURVE",
"352 1324 OFFCURVE",
"352 1046 CURVE SMOOTH",
"352 0 LINE",
"422 0 LINE",
"422 1024 LINE SMOOTH",
"422 1320 OFFCURVE",
"832 1386 OFFCURVE",
"1056 1386 CURVE SMOOTH",
"1256 1386 OFFCURVE",
"1632 1352 OFFCURVE",
"1632 1104 CURVE SMOOTH",
"1632 884 OFFCURVE",
"1222 948 OFFCURVE",
"1222 782 CURVE SMOOTH",
"1222 616 OFFCURVE",
"1804 684 OFFCURVE",
"1804 394 CURVE SMOOTH",
"1804 104 OFFCURVE",
"1410 44 OFFCURVE",
"1130 44 CURVE SMOOTH",
"1002 44 OFFCURVE",
"860 72 OFFCURVE",
"800 82 CURVE",
"780 10 LINE",
"866 -4 OFFCURVE",
"994 -22 OFFCURVE",
"1130 -22 CURVE SMOOTH",
"1554 -22 OFFCURVE",
"1886 96 OFFCURVE",
"1886 394 CURVE SMOOTH",
"1886 730 OFFCURVE",
"1304 708 OFFCURVE",
"1304 782 CURVE SMOOTH"
);
}
);
width = 2100;
},
{
layerId = "C5C974ED-4386-41E8-AA57-C40E24C26BBD";
paths = (
{
closed = 1;
nodes = (
"646 856 OFFCURVE",
"786 911 OFFCURVE",
"786 1100 CURVE SMOOTH",
"786 1336 OFFCURVE",
"635 1452 OFFCURVE",
"400 1452 CURVE SMOOTH",
"186 1452 OFFCURVE",
"-4 1364 OFFCURVE",
"-4 1026 CURVE SMOOTH",
"-4 0 LINE",
"302 0 LINE",
"302 1027 LINE SMOOTH",
"302 1143 OFFCURVE",
"335 1186 OFFCURVE",
"379 1186 CURVE SMOOTH",
"425 1186 OFFCURVE",
"450 1138 OFFCURVE",
"450 1084 CURVE SMOOTH",
"450 968 OFFCURVE",
"336 917 OFFCURVE",
"336 782 CURVE SMOOTH",
"336 634 OFFCURVE",
"504 535 OFFCURVE",
"504 359 CURVE SMOOTH",
"504 269 OFFCURVE",
"486 244 OFFCURVE",
"450 244 CURVE SMOOTH",
"420 244 OFFCURVE",
"384 263 OFFCURVE",
"350 291 CURVE",
"314 2 LINE",
"356 -16 OFFCURVE",
"390 -21 OFFCURVE",
"440 -21 CURVE SMOOTH",
"604 -21 OFFCURVE",
"814 96 OFFCURVE",
"814 394 CURVE SMOOTH",
"814 636 OFFCURVE",
"646 663 OFFCURVE",
"646 782 CURVE SMOOTH"
);
}
);
width = 900;
},
{
layerId = "DF71BB49-08D0-48AB-8F46-D55A70C0C2BD";
paths = (
{
closed = 1;
nodes = (
"1462 815 OFFCURVE",
"1783 875 OFFCURVE",
"1783 1099 CURVE SMOOTH",
"1783 1335 OFFCURVE",
"1470 1452 OFFCURVE",
"994 1452 CURVE SMOOTH",
"546 1452 OFFCURVE",
"100 1343 OFFCURVE",
"100 984 CURVE SMOOTH",
"100 0 LINE",
"536 0 LINE",
"536 921 LINE SMOOTH",
"536 1043 OFFCURVE",
"718 1115 OFFCURVE",
"966 1115 CURVE SMOOTH",
"1107 1115 OFFCURVE",
"1300 1070 OFFCURVE",
"1300 1021 CURVE SMOOTH",
"1300 915 OFFCURVE",
"967 933 OFFCURVE",
"967 782 CURVE SMOOTH",
"967 613 OFFCURVE",
"1381 589 OFFCURVE",
"1381 427 CURVE SMOOTH",
"1381 374 OFFCURVE",
"1286 315 OFFCURVE",
"1122 315 CURVE SMOOTH",
"1026 315 OFFCURVE",
"870 348 OFFCURVE",
"803 382 CURVE",
"706 7 LINE",
"786 -12 OFFCURVE",
"943 -21 OFFCURVE",
"1071 -21 CURVE SMOOTH",
"1469 -21 OFFCURVE",
"1895 74 OFFCURVE",
"1895 394 CURVE SMOOTH",
"1895 657 OFFCURVE",
"1462 749 OFFCURVE",
"1462 785 CURVE SMOOTH"
);
}
);
width = 2100;
}
);
unicode = 00DF;
},
{
glyphname = t;
lastChange = "2020-04-30 15:52:17 +0000";
layers = (
{
anchors = (
{
name = bottom;
position = "{450, 0}";
},
{
name = center;
position = "{450, 500}";
},
{
name = top;
position = "{446, 1290}";
},
{
name = topright;
position = "{870, 1000}";
}
);
layerId = "2E286313-D5BF-4FB4-A4B7-BD9BC13B574E";
paths = (
{
closed = 1;
nodes = (
"736 936 LINE",
"736 1000 LINE",
"156 1000 LINE",
"156 936 LINE"
);
},
{
closed = 1;
nodes = (
"474 1290 LINE",
"406 1290 LINE",
"406 0 LINE",
"714 0 LINE",
"714 64 LINE",
"474 64 LINE"
);
}
);
width = 900;
},
{
anchors = (
{
name = bottom;
position = "{1050, 0}";
},
{
name = center;
position = "{1012, 500}";
},
{
name = top;
position = "{1008, 1360}";
},
{
name = topright;
position = "{2030, 1000}";
}
);
layerId = "E338D14E-1DA5-418D-88BC-8956EEA80AB9";
paths = (
{
closed = 1;
nodes = (
"1718 936 LINE",
"1718 1000 LINE",
"376 1000 LINE",
"376 936 LINE"
);
},
{
closed = 1;
nodes = (
"1038 1360 LINE",
"970 1360 LINE",
"970 0 LINE",
"1640 0 LINE",
"1640 64 LINE",
"1038 64 LINE"
);
}
);
width = 2100;
},
{
anchors = (
{
name = bottom;
position = "{388, 0}";
},
{
name = center;
position = "{402, 500}";
},
{
name = top;
position = "{408, 1285}";
},
{
name = topright;
position = "{770, 1000}";
}
);
layerId = "C5C974ED-4386-41E8-AA57-C40E24C26BBD";
paths = (
{
closed = 1;
nodes = (
"744 756 LINE",
"744 1000 LINE",
"57 1000 LINE",
"57 756 LINE"
);
},
{
closed = 1;
nodes = (
"567 1290 LINE",
"231 1290 LINE",
"231 0 LINE",
"679 0 LINE",
"679 224 LINE",
"567 224 LINE"
);
}
);
width = 900;
},
{
anchors = (
{
name = bottom;
position = "{966, 0}";
},
{
name = center;
position = "{947, 500}";
},
{
name = top;
position = "{965, 1360}";
},
{
name = topright;
position = "{1895, 1000}";
}
);
layerId = "DF71BB49-08D0-48AB-8F46-D55A70C0C2BD";
paths = (
{
closed = 1;
nodes = (
"1729 692 LINE",
"1729 1000 LINE",
"242 1000 LINE",
"242 692 LINE"
);
},
{
closed = 1;
nodes = (
"1165 1360 LINE",
"733 1360 LINE",
"733 0 LINE",
"1593 0 LINE",
"1593 281 LINE",
"1165 281 LINE"
);
}
);
width = 2100;
}
);
unicode = 0074;
},
